<?xml version="1.0" encoding="utf-8"?>
<!-- Generator: Adobe Illustrator 19.0.1, SVG Export Plug-In . SVG Version: 6.00 Build 0)  -->
<svg version="1.1" xmlns="http://www.w3.org/2000/svg" xmlns:xlink="http://www.w3.org/1999/xlink" x="0px" y="0px"
	 viewBox="0 0 48 48" style="enable-background:new 0 0 48 48;" xml:space="preserve">
<style type="text/css">
	.st0{fill:#FF7043;stroke:#212121;stroke-linecap:round;stroke-miterlimit:10;}
	.st1{fill:#E0E0E0;}
	.st2{fill:#212121;}
	.st3{fill:#FFCC80;}
	.st4{display:none;}
	.st5{display:inline;}
	.st6{clip-path:url(#SVGID_2_);}
	.st7{fill:#4DB6AC;}
	.st8{clip-path:url(#SVGID_4_);}
	.st9{fill:#26A69A;}
	.st10{fill:none;stroke:#212121;stroke-linecap:round;stroke-miterlimit:10;}
	.st11{fill:#66BB6A;stroke:#212121;stroke-linecap:round;stroke-linejoin:round;stroke-miterlimit:10;}
	.st12{fill:#F44336;}
	.st13{fill:#EEEEEE;}
	.st14{fill:#FFA726;}
	.st15{fill:#FFD54F;}
	.st16{display:inline;fill:#212121;}
	.st17{clip-path:url(#SVGID_6_);}
	.st18{fill:#F5F5F5;}
	.st19{display:inline;fill:#F5F5F5;}
	.st20{clip-path:url(#SVGID_8_);}
	.st21{fill:#DBDBDB;}
	.st22{fill:none;stroke:#212121;stroke-miterlimit:10;}
	.st23{fill:#66BB6A;}
	.st24{fill:#FF8A65;}
	.st25{fill:#EF5350;stroke:#212121;stroke-linecap:round;stroke-linejoin:round;stroke-miterlimit:10;}
	.st26{fill:#B71C1C;}
	.st27{display:inline;fill:#80DEEA;}
	.st28{clip-path:url(#SVGID_10_);}
	.st29{fill:#80DEEA;}
	.st30{fill:#74CAD1;}
	.st31{clip-path:url(#SVGID_12_);}
	.st32{fill:#A5D6A7;}
	.st33{fill:#9BC69B;}
	.st34{fill:#FFB74D;stroke:#212121;stroke-linecap:round;stroke-linejoin:round;stroke-miterlimit:10;}
	.st35{fill:#8D6E63;stroke:#212121;stroke-linecap:round;stroke-linejoin:round;stroke-miterlimit:10;}
	.st36{clip-path:url(#SVGID_14_);fill:#A5D6A7;}
	.st37{fill:none;stroke:#212121;stroke-linecap:round;stroke-linejoin:round;stroke-miterlimit:10;}
	.st38{fill:#FFE0B2;}
	.st39{fill:#FFF3E0;}
	.st40{fill:#FFCA28;stroke:#212121;stroke-linecap:round;stroke-linejoin:round;stroke-miterlimit:10;}
	.st41{fill:#FFD54F;stroke:#212121;stroke-miterlimit:10;}
	.st42{fill:#FFF176;stroke:#212121;stroke-miterlimit:10;}
	.st43{fill:#4FC3F7;stroke:#212121;stroke-miterlimit:10;}
	.st44{clip-path:url(#SVGID_16_);}
	.st45{fill:#4FC3F7;}
	.st46{fill:#29B6F6;}
	.st47{fill:none;stroke:#000000;stroke-miterlimit:10;}
	.st48{fill:#FFE0B2;stroke:#212121;stroke-miterlimit:10;}
	.st49{fill:#FFD9A6;}
	.st50{fill:#D7F0F9;}
	.st51{clip-path:url(#SVGID_18_);fill:#FFD54F;stroke:#212121;stroke-miterlimit:10;}
	.st52{fill:#E57373;}
	.st53{fill:#9CCC65;}
	.st54{fill:#97BA60;}
	.st55{fill:#EBF4F7;}
	.st56{fill:#BDBDBD;}
	.st57{clip-path:url(#SVGID_22_);}
	.st58{clip-path:url(#SVGID_24_);}
	.st59{fill:#C62828;}
	.st60{fill:#AF2525;}
</style>
<g id="soups">
</g>
<g id="main_dishes">
</g>
<g id="salads">
</g>
<g id="desserts">
</g>
<g id="drinks">
</g>
<g id="alcoholic_drinks">
	<g>
		<polygon class="st2" points="20.7,18 3.1,18 3.1,19 20.7,19 20.7,18 		"/>
	</g>
	<rect x="34.6" y="30.6" class="st2" width="1.3" height="13"/>
	<g>
		<path class="st50" d="M28,47.5c0.3-1.1,1.4-2.1,3-2.6l4.3-1.5l4.3,1.5c1.6,0.6,2.7,1.6,3,2.6H28z"/>
		<path class="st2" d="M35.3,43.9l4.1,1.5c1.1,0.4,1.9,1,2.4,1.7h-13c0.4-0.7,1.3-1.3,2.4-1.7L35.3,43.9 M35.3,42.8l-4.4,1.6
			c-2.1,0.7-3.4,2.1-3.4,3.6h15.6c0-1.5-1.3-2.9-3.4-3.6L35.3,42.8L35.3,42.8z"/>
	</g>
	<g>
		<path class="st50" d="M30.8,30.4c-1,0-1.8-0.7-2-1.6l-0.7-2.6h14.3l-0.7,2.6c-0.2,0.9-1.1,1.6-2,1.6H30.8z"/>
		<path class="st2" d="M41.8,26.7l-0.5,2c-0.2,0.7-0.8,1.2-1.6,1.2h-8.9c-0.7,0-1.4-0.5-1.6-1.2l-0.5-2H41.8 M43.1,25.7H27.5
			l0.8,3.2c0.3,1.2,1.3,2,2.5,2h8.9c1.2,0,2.2-0.8,2.5-2L43.1,25.7L43.1,25.7z"/>
	</g>
	<g>
		<path class="st2" d="M46.6,17.6L42.1,26H28.4l-4.5-8.4H46.6L46.6,17.6 M46.6,16.6H23.9c-0.8,0-1.2,0.8-0.9,1.5l4.8,8.9h14.9
			l4.8-8.9C47.8,17.4,47.3,16.6,46.6,16.6L46.6,16.6z"/>
	</g>
	<g>
		<path class="st2" d="M46.6,17.6L42.1,26H28.4l-4.5-8.4H46.6L46.6,17.6 M46.6,16.6H23.9c-0.8,0-1.2,0.8-0.9,1.5l4.8,8.9h14.9
			l4.8-8.9C47.8,17.4,47.3,16.6,46.6,16.6L46.6,16.6z"/>
	</g>
	<g>
		<defs>
			<path id="SVGID_17_" d="M42.7,27H27.8L23,18.1c-0.4-0.7,0.1-1.5,0.9-1.5h22.7c0.8,0,1.2,0.8,0.9,1.5L42.7,27z"/>
		</defs>
		<clipPath id="SVGID_2_">
			<use xlink:href="#SVGID_17_"  style="overflow:visible;"/>
		</clipPath>
		<polygon style="clip-path:url(#SVGID_2_);fill:#FFD54F;stroke:#212121;stroke-miterlimit:10;" points="25.8,21.5 45.3,21.5 
			42.7,26.5 28.4,26.5 		"/>
	</g>
	<g>
		<path class="st2" d="M46.6,17.6L42.1,26H28.4l-4.5-8.4H46.6L46.6,17.6 M46.6,16.6H23.9c-0.8,0-1.2,0.8-0.9,1.5l4.8,8.9h14.9
			l4.8-8.9C47.8,17.4,47.3,16.6,46.6,16.6L46.6,16.6z"/>
	</g>
	<g>
		<g>
			<circle class="st52" cx="39.6" cy="23.4" r="2.1"/>
			<path class="st2" d="M39.6,21.8c0.9,0,1.6,0.7,1.6,1.6S40.5,25,39.6,25c-0.9,0-1.6-0.7-1.6-1.6S38.8,21.8,39.6,21.8 M39.6,20.8
				c-1.4,0-2.6,1.2-2.6,2.6s1.2,2.6,2.6,2.6c1.4,0,2.6-1.2,2.6-2.6S41.1,20.8,39.6,20.8L39.6,20.8z"/>
		</g>
		<path class="st37" d="M40.4,20.9c0,0,2.6-5.3,4.5-5.5"/>
	</g>
	<g>
		<line class="st37" x1="36.4" y1="10.4" x2="33.7" y2="25.8"/>
		<g>
			<polygon class="st53" points="30.2,8.8 37.4,4.7 42.8,11 42.8,11 			"/>
			<path class="st2" d="M37.3,5.3l4.2,5l-9.9-1.7L37.3,5.3 M37.4,4.2c-0.1,0-0.2,0-0.3,0.1L30,8.4c-0.4,0.2-0.3,0.9,0.2,1l12.5,2.2
				c0,0,0.1,0,0.1,0c0.4,0,0.7-0.5,0.4-0.9l-5.3-6.3C37.7,4.2,37.6,4.2,37.4,4.2L37.4,4.2z"/>
		</g>
	</g>
	<g>
		<g>
			<line class="st37" x1="15.4" y1="6.4" x2="12.7" y2="21.8"/>
			<g>
				<polygon class="st52" points="9.2,4.8 16.4,0.7 21.8,7 21.8,7 				"/>
				<g>
					<path class="st2" d="M16.3,1.3l4.2,5l-9.9-1.7L16.3,1.3 M16.4,0.2c-0.1,0-0.2,0-0.3,0.1L9,4.4c-0.4,0.2-0.3,0.9,0.2,1l12.5,2.2
						c0,0,0.1,0,0.1,0c0.4,0,0.7-0.5,0.4-0.9l-5.3-6.3C16.7,0.2,16.6,0.2,16.4,0.2L16.4,0.2z"/>
				</g>
			</g>
		</g>
		<g>
			<g>
				<rect x="11.3" y="36.3" class="st2" width="1.3" height="10"/>
			</g>
			<g>
				<path class="st53" d="M21.9,26.8c0-1.3-0.2-2.3-0.7-3.5c-0.6-1.5-0.9-3.3-1-4.3H4.6c-0.1,1-0.4,2.8-1,4.2
					c-0.6,1.6-0.8,3.2-0.6,5c0.6,4.9,4.5,8.7,9.2,9.2c0.1,0,0.1,0,0.2,0C17.8,37,21.9,32.4,21.9,26.8z"/>
				<path class="st54" d="M21.3,23.3c-0.6-1.5-0.9-3.3-1-4.3h-3c0.1,1,0.4,2.8,1,4.3c0.4,1.2,0.7,2.3,0.7,3.6c0,5-3.4,9.2-8,10.4
					c0.4,0.1,0.9,0.2,1.3,0.2c0.1,0,0.1,0,0.2,0c5.3-0.5,9.5-5,9.5-10.6C21.9,25.6,21.7,24.5,21.3,23.3z"/>
			</g>
			<g>
				<defs>
					<path id="SVGID_19_" d="M21.2,13.9l0.6-2.9c0.1-0.6-0.3-1.1-0.9-1.1H3.1c-0.6,0-1.1,0.5-0.9,1.1l0.6,3.2c0.6,3,0.5,6.2-0.7,9.1
						c-0.6,1.5-0.8,3.3-0.6,5.1c0.6,4.8,4.5,8.6,9.2,9.1c6.3,0.7,11.7-4.2,11.7-10.4c0-1.3-0.2-2.6-0.7-3.7
						C20.6,20.3,20.5,17,21.2,13.9z"/>
				</defs>
				<clipPath id="SVGID_4_">
					<use xlink:href="#SVGID_19_"  style="overflow:visible;"/>
				</clipPath>
			</g>
			<g>
				<path class="st50" d="M5.5,47.5c0.3-0.9,1.3-1.8,2.7-2.2l2-0.6c0.5-0.2,1.1-0.2,1.7-0.2s1.2,0.1,1.7,0.2l2,0.6
					c1.5,0.4,2.5,1.3,2.7,2.2H5.5z"/>
				<g>
					<path class="st2" d="M11.9,45c0.5,0,1.1,0.1,1.5,0.2l2,0.6c0.9,0.3,1.6,0.7,2,1.2H6.4c0.4-0.5,1.1-0.9,2-1.2l2-0.6
						C10.9,45.1,11.4,45,11.9,45 M11.9,44c-0.6,0-1.2,0.1-1.8,0.3l-2,0.6c-1.9,0.6-3.2,1.8-3.2,3.2h14c0-1.4-1.2-2.6-3.2-3.2l-2-0.6
						C13.2,44.1,12.6,44,11.9,44L11.9,44z"/>
				</g>
			</g>
			<g>
				<path class="st2" d="M21.2,10.2l-0.6,3c-0.8,3.7-0.5,7.3,0.7,10.4c0.4,1.1,0.7,2.3,0.7,3.5c0,5.5-4.5,10-10,10
					c-0.4,0-0.8,0-1.1-0.1c-4.5-0.5-8.2-4.2-8.8-8.7c-0.2-1.7,0-3.3,0.6-4.8c1.2-3,1.4-6.5,0.7-10l-0.7-3.3H21.2 M21.2,9.2H2.7
					c-0.6,0-1.1,0.6-1,1.2l0.7,3.3c0.6,3.2,0.5,6.5-0.7,9.5c-0.6,1.6-0.9,3.4-0.7,5.3c0.6,5,4.7,9,9.7,9.6c0.4,0,0.8,0.1,1.2,0.1
					c6.1,0,11-4.9,11-11c0-1.4-0.3-2.7-0.7-3.9c-1.2-3.1-1.3-6.6-0.6-9.8l0.6-3C22.4,9.7,21.9,9.2,21.2,9.2L21.2,9.2z"/>
			</g>
			<g>
				<g>
					<circle class="st55" cx="13.1" cy="32.3" r="1"/>
					<path class="st2" d="M13.1,31.8c0.3,0,0.5,0.2,0.5,0.5s-0.2,0.5-0.5,0.5s-0.5-0.2-0.5-0.5S12.8,31.8,13.1,31.8 M13.1,30.8
						c-0.8,0-1.5,0.7-1.5,1.5s0.7,1.5,1.5,1.5s1.5-0.7,1.5-1.5S13.9,30.8,13.1,30.8L13.1,30.8z"/>
				</g>
				<g>
					<circle class="st55" cx="18.1" cy="28.3" r="2"/>
					<path class="st2" d="M18.1,26.8c0.8,0,1.5,0.7,1.5,1.5s-0.7,1.5-1.5,1.5s-1.5-0.7-1.5-1.5S17.2,26.8,18.1,26.8 M18.1,25.8
						c-1.4,0-2.5,1.1-2.5,2.5s1.1,2.5,2.5,2.5s2.5-1.1,2.5-2.5S19.4,25.8,18.1,25.8L18.1,25.8z"/>
				</g>
				<g>
					<circle class="st55" cx="14.1" cy="24.3" r="1.5"/>
					<path class="st2" d="M14.1,23.3c0.6,0,1,0.4,1,1s-0.4,1-1,1s-1-0.4-1-1S13.5,23.3,14.1,23.3 M14.1,22.3c-1.1,0-2,0.9-2,2
						s0.9,2,2,2s2-0.9,2-2S15.2,22.3,14.1,22.3L14.1,22.3z"/>
				</g>
			</g>
		</g>
	</g>
</g>
<g id="dish">
</g>
<g id="logo">
</g>
</svg>
