<?xml version="1.0" encoding="utf-8"?>
<!-- Generator: Adobe Illustrator 19.0.1, SVG Export Plug-In . SVG Version: 6.00 Build 0)  -->
<svg version="1.1" xmlns="http://www.w3.org/2000/svg" xmlns:xlink="http://www.w3.org/1999/xlink" x="0px" y="0px"
	 viewBox="0 0 48 48" style="enable-background:new 0 0 48 48;" xml:space="preserve">
<style type="text/css">
	.st0{fill:#FF7043;stroke:#212121;stroke-linecap:round;stroke-miterlimit:10;}
	.st1{fill:#E0E0E0;}
	.st2{fill:#212121;}
	.st3{fill:#FFCC80;}
	.st4{display:none;}
	.st5{display:inline;}
	.st6{clip-path:url(#SVGID_2_);}
	.st7{fill:#4DB6AC;}
	.st8{clip-path:url(#SVGID_4_);}
	.st9{fill:#26A69A;}
	.st10{fill:none;stroke:#212121;stroke-linecap:round;stroke-miterlimit:10;}
	.st11{fill:#66BB6A;stroke:#212121;stroke-linecap:round;stroke-linejoin:round;stroke-miterlimit:10;}
	.st12{fill:#F44336;}
	.st13{fill:#EEEEEE;}
	.st14{fill:#FFA726;}
	.st15{fill:#FFD54F;}
	.st16{display:inline;fill:#212121;}
	.st17{clip-path:url(#SVGID_6_);}
	.st18{fill:#F5F5F5;}
	.st19{display:inline;fill:#F5F5F5;}
	.st20{clip-path:url(#SVGID_8_);}
	.st21{fill:#DBDBDB;}
	.st22{fill:none;stroke:#212121;stroke-miterlimit:10;}
	.st23{fill:#66BB6A;}
	.st24{fill:#FF8A65;}
	.st25{fill:#EF5350;stroke:#212121;stroke-linecap:round;stroke-linejoin:round;stroke-miterlimit:10;}
	.st26{fill:#B71C1C;}
	.st27{display:inline;fill:#80DEEA;}
	.st28{clip-path:url(#SVGID_10_);}
	.st29{fill:#80DEEA;}
	.st30{fill:#74CAD1;}
	.st31{clip-path:url(#SVGID_12_);}
	.st32{fill:#A5D6A7;}
	.st33{fill:#9BC69B;}
	.st34{fill:#FFB74D;stroke:#212121;stroke-linecap:round;stroke-linejoin:round;stroke-miterlimit:10;}
	.st35{fill:#8D6E63;stroke:#212121;stroke-linecap:round;stroke-linejoin:round;stroke-miterlimit:10;}
	.st36{clip-path:url(#SVGID_14_);fill:#A5D6A7;}
	.st37{fill:none;stroke:#212121;stroke-linecap:round;stroke-linejoin:round;stroke-miterlimit:10;}
	.st38{fill:#FFE0B2;}
	.st39{fill:#FFF3E0;}
	.st40{fill:#FFCA28;stroke:#212121;stroke-linecap:round;stroke-linejoin:round;stroke-miterlimit:10;}
	.st41{fill:#FFD54F;stroke:#212121;stroke-miterlimit:10;}
	.st42{fill:#FFF176;stroke:#212121;stroke-miterlimit:10;}
	.st43{fill:#4FC3F7;stroke:#212121;stroke-miterlimit:10;}
	.st44{clip-path:url(#SVGID_16_);}
	.st45{fill:#4FC3F7;}
	.st46{fill:#29B6F6;}
	.st47{fill:none;stroke:#000000;stroke-miterlimit:10;}
	.st48{fill:#FFE0B2;stroke:#212121;stroke-miterlimit:10;}
	.st49{fill:#FFD9A6;}
	.st50{fill:#D7F0F9;}
	.st51{clip-path:url(#SVGID_18_);fill:#FFD54F;stroke:#212121;stroke-miterlimit:10;}
	.st52{fill:#E57373;}
	.st53{fill:#9CCC65;}
	.st54{fill:#97BA60;}
	.st55{fill:#EBF4F7;}
	.st56{fill:#BDBDBD;}
	.st57{clip-path:url(#SVGID_22_);}
	.st58{clip-path:url(#SVGID_24_);}
	.st59{fill:#C62828;}
	.st60{fill:#AF2525;}
</style>
<g id="soups">
</g>
<g id="main_dishes">
</g>
<g id="salads">
</g>
<g id="desserts">
	<g>
		<g>
			<g>
				<defs>
					<path id="SVGID_11_" d="M16.8,48H6.1v-1.1C6.1,45.9,7,45,8.1,45h6.8c1.1,0,1.9,0.9,1.9,1.9V48z"/>
				</defs>
				<clipPath id="SVGID_2_">
					<use xlink:href="#SVGID_11_"  style="overflow:visible;"/>
				</clipPath>
				<g class="st6">
					<path class="st32" d="M18.8,48H8.1v-1.1c0-1.1,0.9-1.9,1.9-1.9h6.8c1.1,0,1.9,0.9,1.9,1.9V48z"/>
				</g>
			</g>
			<g>
				<g>
					<path class="st33" d="M13.9,45h-2c1.1,0,2.1,0.9,2.1,1.9V48h2v-1.1C16,45.9,14.9,45,13.9,45z"/>
				</g>
			</g>
			<g>
				<path class="st2" d="M14.9,46c0.5,0,0.9,0.4,0.9,0.9V47H7.1v-0.1c0-0.5,0.4-0.9,0.9-0.9H14.9 M14.9,45H8.1
					c-1.1,0-1.9,0.9-1.9,1.9V48h10.7v-1.1C16.8,45.9,15.9,45,14.9,45L14.9,45z"/>
			</g>
			<g>
				<rect x="10.5" y="36.3" class="st32" width="2" height="9.2"/>
				<path class="st2" d="M12,36.8V45h-1v-8.2H12 M13,35.8h-3V46h3V35.8L13,35.8z"/>
			</g>
			<g>
				<g>
					<circle class="st34" cx="11.2" cy="23.5" r="4.9"/>
					<g>
						<path class="st35" d="M12.2,27.5c0-2.7-2.2-4.9-4.9-4.9s-4.9,2.2-4.9,4.9c0,0.3,0,0.7,0.1,1H12C12.1,28.2,12.2,27.8,12.2,27.5
							z"/>
					</g>
					<g>
						<path class="st25" d="M16.2,24.6c-2.4,0-4.4,1.7-4.8,3.9H21C20.6,26.3,18.6,24.6,16.2,24.6z"/>
					</g>
				</g>
				<g>
					<defs>
						<path id="SVGID_13_" d="M12.6,38.5h-2.4c-4.8,0-8.8-3.9-8.8-8.8v-0.2c0-0.6,0.4-1,1-1h18c0.6,0,1,0.4,1,1v0.2
							C21.4,34.6,17.5,38.5,12.6,38.5z"/>
					</defs>
					<clipPath id="SVGID_4_">
						<use xlink:href="#SVGID_13_"  style="overflow:visible;"/>
					</clipPath>
					<path style="clip-path:url(#SVGID_4_);fill:#A5D6A7;" d="M14.6,38.5h-2.4c-4.8,0-8.8-3.9-8.8-8.8v-0.2c0-0.6,0.4-1,1-1h18
						c0.6,0,1,0.4,1,1v0.2C23.4,34.6,19.5,38.5,14.6,38.5z"/>
				</g>
				<path class="st33" d="M20.2,29h-2c0.6,0,0.8-0.1,0.8,0.5v0.2c0,4.8-3.7,9.3-8.6,9.3h2c4.8,0,8.6-4.4,8.6-9.3v-0.2
					C21,28.9,20.7,29,20.2,29z"/>
				<path class="st37" d="M12.7,38.5h-2.4c-4.8,0-8.8-3.9-8.8-8.8v-0.2c0-0.6,0.4-1,1-1h18c0.6,0,1,0.4,1,1v0.2
					C21.5,34.6,17.5,38.5,12.7,38.5z"/>
			</g>
		</g>
		<path class="st10" d="M6.1,30.9c0,0,0.1,3.7,3.9,5.1"/>
	</g>
	<g>
		<g>
			<path class="st18" d="M27.3,47.5c-1.7,0-3.2-1.3-3.3-3h21.5c-0.2,1.7-1.6,3-3.3,3H27.3z"/>
			<g>
				<path class="st2" d="M44.9,45c-0.4,1.2-1.4,2-2.7,2H27.3c-1.3,0-2.4-0.8-2.7-2H44.9 M46,44H23.4v0.2c0,2.1,1.7,3.8,3.8,3.8h14.9
					c2.1,0,3.8-1.7,3.8-3.8V44L46,44z"/>
			</g>
		</g>
		<g>
			<path class="st38" d="M26.9,44.4c-0.8,0-1.5-0.7-1.5-1.5s0.7-1.5,1.5-1.5h15.6c0.8,0,1.5,0.7,1.5,1.5s-0.7,1.5-1.5,1.5H26.9z"/>
			<path class="st2" d="M42.5,41.9c0.6,0,1,0.4,1,1s-0.4,1-1,1H26.9c-0.6,0-1-0.4-1-1s0.4-1,1-1H42.5 M42.5,40.9H26.9
				c-1.1,0-2,0.9-2,2s0.9,2,2,2h15.6c1.1,0,2-0.9,2-2S43.6,40.9,42.5,40.9L42.5,40.9z"/>
		</g>
		<g>
			<path class="st38" d="M26.9,38.4c-0.8,0-1.5-0.7-1.5-1.5s0.7-1.5,1.5-1.5h15.6c0.8,0,1.5,0.7,1.5,1.5s-0.7,1.5-1.5,1.5H26.9z"/>
			<path class="st2" d="M42.5,35.9c0.6,0,1,0.4,1,1s-0.4,1-1,1H26.9c-0.6,0-1-0.4-1-1s0.4-1,1-1H42.5 M42.5,34.9H26.9
				c-1.1,0-2,0.9-2,2s0.9,2,2,2h15.6c1.1,0,2-0.9,2-2S43.6,34.9,42.5,34.9L42.5,34.9z"/>
		</g>
		<g>
			<path class="st39" d="M26.9,41.4c-0.8,0-1.5-0.7-1.5-1.5s0.7-1.5,1.5-1.5h15.6c0.8,0,1.5,0.7,1.5,1.5s-0.7,1.5-1.5,1.5H26.9z"/>
			<path class="st2" d="M42.5,38.9c0.6,0,1,0.4,1,1s-0.4,1-1,1H26.9c-0.6,0-1-0.4-1-1s0.4-1,1-1H42.5 M42.5,37.9H26.9
				c-1.1,0-2,0.9-2,2s0.9,2,2,2h15.6c1.1,0,2-0.9,2-2S43.6,37.9,42.5,37.9L42.5,37.9z"/>
		</g>
		<g>
			<path class="st38" d="M26.9,38.4c-0.8,0-1.5-0.7-1.5-1.5s0.7-1.5,1.5-1.5h15.6c0.8,0,1.5,0.7,1.5,1.5s-0.7,1.5-1.5,1.5H26.9z"/>
			<path class="st2" d="M42.5,35.9c0.6,0,1,0.4,1,1s-0.4,1-1,1H26.9c-0.6,0-1-0.4-1-1s0.4-1,1-1H42.5 M42.5,34.9H26.9
				c-1.1,0-2,0.9-2,2s0.9,2,2,2h15.6c1.1,0,2-0.9,2-2S43.6,34.9,42.5,34.9L42.5,34.9z"/>
		</g>
		<g>
			<path class="st38" d="M26.9,32.4c-0.8,0-1.5-0.7-1.5-1.5s0.7-1.5,1.5-1.5h15.6c0.8,0,1.5,0.7,1.5,1.5s-0.7,1.5-1.5,1.5H26.9z"/>
			<path class="st2" d="M42.5,29.9c0.6,0,1,0.4,1,1s-0.4,1-1,1H26.9c-0.6,0-1-0.4-1-1s0.4-1,1-1H42.5 M42.5,28.9H26.9
				c-1.1,0-2,0.9-2,2c0,1.1,0.9,2,2,2h15.6c1.1,0,2-0.9,2-2C44.5,29.8,43.6,28.9,42.5,28.9L42.5,28.9z"/>
		</g>
		<path class="st40" d="M28.4,25.9v2.9c0,0.8,0.7,1.5,1.5,1.5h0c0.8,0,1.5-0.7,1.5-1.5v-2.9c0-0.8-0.7-1.5-1.5-1.5h0
			C29.1,24.4,28.4,25.1,28.4,25.9z"/>
		<g>
			<path class="st39" d="M26.9,35.4c-0.8,0-1.5-0.7-1.5-1.5s0.7-1.5,1.5-1.5h15.6c0.8,0,1.5,0.7,1.5,1.5s-0.7,1.5-1.5,1.5H26.9z"/>
			<path class="st2" d="M42.5,32.9c0.6,0,1,0.4,1,1s-0.4,1-1,1H26.9c-0.6,0-1-0.4-1-1s0.4-1,1-1H42.5 M42.5,31.9H26.9
				c-1.1,0-2,0.9-2,2s0.9,2,2,2h15.6c1.1,0,2-0.9,2-2S43.6,31.9,42.5,31.9L42.5,31.9z"/>
		</g>
		<path class="st40" d="M28,29.5c0,0,0.5,6.5,2.3,6.8c1.8,0.3,1.7-1.6,1.7-2.4c0-0.8,0.2-2.7,1.7-2.9s0.9-1.6,0.9-1.6L28,29.5z"/>
		<g>
			<g>
				<path class="st3" d="M31,18.4c-0.5,0-0.8-0.4-0.8-0.8V4.1c0-0.5,0.4-0.8,0.8-0.8h0.3c0.5,0,0.8,0.4,0.8,0.8v13.4
					c0,0.5-0.4,0.8-0.8,0.8H31z"/>
				<g>
					<path class="st2" d="M31.3,3.8c0.2,0,0.3,0.2,0.3,0.3v13.4c0,0.2-0.2,0.3-0.3,0.3H31c-0.2,0-0.3-0.2-0.3-0.3V4.1
						c0-0.2,0.2-0.3,0.3-0.3H31.3 M31.3,2.8H31c-0.7,0-1.3,0.6-1.3,1.3v13.4c0,0.7,0.6,1.3,1.3,1.3h0.3c0.7,0,1.3-0.6,1.3-1.3V4.1
						C32.6,3.4,32,2.8,31.3,2.8L31.3,2.8z"/>
				</g>
			</g>
			<g>
				<path class="st3" d="M29.6,20.3c-0.6,0-1-0.5-1-1c0-0.6,0.5-1,1-1h3c0.6,0,1,0.5,1,1c0,0.6-0.5,1-1,1H29.6z"/>
				<path class="st2" d="M32.6,18.8c0.3,0,0.5,0.2,0.5,0.5c0,0.3-0.2,0.5-0.5,0.5h-3c-0.3,0-0.5-0.2-0.5-0.5c0-0.3,0.2-0.5,0.5-0.5
					H32.6 M32.6,17.8h-3c-0.8,0-1.5,0.7-1.5,1.5v0c0,0.8,0.7,1.5,1.5,1.5h3c0.8,0,1.5-0.7,1.5-1.5v0C34.1,18.5,33.5,17.8,32.6,17.8
					L32.6,17.8z"/>
			</g>
			<g>
				<path class="st3" d="M29.6,26.3c-0.6,0-1-0.5-1-1c0-0.6,0.5-1,1-1h3c0.6,0,1,0.5,1,1c0,0.6-0.5,1-1,1H29.6z"/>
				<path class="st2" d="M32.6,24.7c0.3,0,0.5,0.2,0.5,0.5c0,0.3-0.2,0.5-0.5,0.5h-3c-0.3,0-0.5-0.2-0.5-0.5c0-0.3,0.2-0.5,0.5-0.5
					H32.6 M32.6,23.7h-3c-0.8,0-1.5,0.7-1.5,1.5v0c0,0.8,0.7,1.5,1.5,1.5h3c0.8,0,1.5-0.7,1.5-1.5v0C34.1,24.4,33.5,23.7,32.6,23.7
					L32.6,23.7z"/>
			</g>
			<g>
				<path class="st3" d="M28.6,22.3c-0.6,0-1-0.5-1-1c0-0.6,0.5-1,1-1h5c0.6,0,1,0.5,1,1c0,0.6-0.5,1-1,1H28.6z"/>
				<path class="st2" d="M33.6,20.8c0.3,0,0.5,0.2,0.5,0.5c0,0.3-0.2,0.5-0.5,0.5h-5c-0.3,0-0.5-0.2-0.5-0.5c0-0.3,0.2-0.5,0.5-0.5
					H33.6 M33.6,19.8h-5c-0.8,0-1.5,0.7-1.5,1.5v0c0,0.8,0.7,1.5,1.5,1.5h5c0.8,0,1.5-0.7,1.5-1.5v0C35.1,20.5,34.5,19.8,33.6,19.8
					L33.6,19.8z"/>
			</g>
			<g>
				<path class="st3" d="M28.6,24.3c-0.6,0-1-0.5-1-1c0-0.6,0.5-1,1-1h5c0.6,0,1,0.5,1,1c0,0.6-0.5,1-1,1H28.6z"/>
				<path class="st2" d="M33.6,22.8c0.3,0,0.5,0.2,0.5,0.5c0,0.3-0.2,0.5-0.5,0.5h-5c-0.3,0-0.5-0.2-0.5-0.5c0-0.3,0.2-0.5,0.5-0.5
					H33.6 M33.6,21.8h-5c-0.8,0-1.5,0.7-1.5,1.5v0c0,0.8,0.7,1.5,1.5,1.5h5c0.8,0,1.5-0.7,1.5-1.5v0C35.1,22.4,34.5,21.8,33.6,21.8
					L33.6,21.8z"/>
			</g>
		</g>
	</g>
</g>
<g id="drinks">
</g>
<g id="alcoholic_drinks">
</g>
<g id="dish">
</g>
<g id="logo">
</g>
</svg>
