<?xml version="1.0" encoding="utf-8"?>
<!-- Generator: Adobe Illustrator 19.0.1, SVG Export Plug-In . SVG Version: 6.00 Build 0)  -->
<svg version="1.1" xmlns="http://www.w3.org/2000/svg" xmlns:xlink="http://www.w3.org/1999/xlink" x="0px" y="0px"
	 viewBox="0 0 48 48" style="enable-background:new 0 0 48 48;" xml:space="preserve">
<style type="text/css">
	.st0{fill:#FF7043;stroke:#212121;stroke-linecap:round;stroke-miterlimit:10;}
	.st1{fill:#E0E0E0;}
	.st2{fill:#212121;}
	.st3{fill:#FFCC80;}
	.st4{display:none;}
	.st5{display:inline;}
	.st6{clip-path:url(#SVGID_2_);}
	.st7{fill:#4DB6AC;}
	.st8{clip-path:url(#SVGID_4_);}
	.st9{fill:#26A69A;}
	.st10{fill:none;stroke:#212121;stroke-linecap:round;stroke-miterlimit:10;}
	.st11{fill:#66BB6A;stroke:#212121;stroke-linecap:round;stroke-linejoin:round;stroke-miterlimit:10;}
	.st12{fill:#F44336;}
	.st13{fill:#EEEEEE;}
	.st14{fill:#FFA726;}
	.st15{fill:#FFD54F;}
	.st16{display:inline;fill:#212121;}
	.st17{clip-path:url(#SVGID_6_);}
	.st18{fill:#F5F5F5;}
	.st19{display:inline;fill:#F5F5F5;}
	.st20{clip-path:url(#SVGID_8_);}
	.st21{fill:#DBDBDB;}
	.st22{fill:none;stroke:#212121;stroke-miterlimit:10;}
	.st23{fill:#66BB6A;}
	.st24{fill:#FF8A65;}
	.st25{fill:#EF5350;stroke:#212121;stroke-linecap:round;stroke-linejoin:round;stroke-miterlimit:10;}
	.st26{fill:#B71C1C;}
	.st27{display:inline;fill:#80DEEA;}
	.st28{clip-path:url(#SVGID_10_);}
	.st29{fill:#80DEEA;}
	.st30{fill:#74CAD1;}
	.st31{clip-path:url(#SVGID_12_);}
	.st32{fill:#A5D6A7;}
	.st33{fill:#9BC69B;}
	.st34{fill:#FFB74D;stroke:#212121;stroke-linecap:round;stroke-linejoin:round;stroke-miterlimit:10;}
	.st35{fill:#8D6E63;stroke:#212121;stroke-linecap:round;stroke-linejoin:round;stroke-miterlimit:10;}
	.st36{clip-path:url(#SVGID_14_);fill:#A5D6A7;}
	.st37{fill:none;stroke:#212121;stroke-linecap:round;stroke-linejoin:round;stroke-miterlimit:10;}
	.st38{fill:#FFE0B2;}
	.st39{fill:#FFF3E0;}
	.st40{fill:#FFCA28;stroke:#212121;stroke-linecap:round;stroke-linejoin:round;stroke-miterlimit:10;}
	.st41{fill:#FFD54F;stroke:#212121;stroke-miterlimit:10;}
	.st42{fill:#FFF176;stroke:#212121;stroke-miterlimit:10;}
	.st43{fill:#4FC3F7;stroke:#212121;stroke-miterlimit:10;}
	.st44{clip-path:url(#SVGID_16_);}
	.st45{fill:#4FC3F7;}
	.st46{fill:#29B6F6;}
	.st47{fill:none;stroke:#000000;stroke-miterlimit:10;}
	.st48{fill:#FFE0B2;stroke:#212121;stroke-miterlimit:10;}
	.st49{fill:#FFD9A6;}
	.st50{fill:#D7F0F9;}
	.st51{clip-path:url(#SVGID_18_);fill:#FFD54F;stroke:#212121;stroke-miterlimit:10;}
	.st52{fill:#E57373;}
	.st53{fill:#9CCC65;}
	.st54{fill:#97BA60;}
	.st55{fill:#EBF4F7;}
	.st56{fill:#BDBDBD;}
	.st57{clip-path:url(#SVGID_22_);}
	.st58{clip-path:url(#SVGID_24_);}
	.st59{fill:#C62828;}
	.st60{fill:#AF2525;}
</style>
<g id="soups">
</g>
<g id="main_dishes">
</g>
<g id="salads">
</g>
<g id="desserts">
</g>
<g id="drinks">
</g>
<g id="alcoholic_drinks">
</g>
<g id="dish">
	<g class="st4">
		<g class="st5">
			<circle class="st18" cx="23.6" cy="22.4" r="2.5"/>
			<path class="st2" d="M23.6,20.4c1.1,0,2,0.9,2,2s-0.9,2-2,2s-2-0.9-2-2S22.5,20.4,23.6,20.4 M23.6,19.4c-1.7,0-3,1.3-3,3
				s1.3,3,3,3s3-1.3,3-3S25.3,19.4,23.6,19.4L23.6,19.4z"/>
		</g>
		<g class="st5">
			<path class="st18" d="M4,47.5c-1.9,0-3.5-1.6-3.5-3.5v-1c0-0.3,0.2-0.5,0.5-0.5h46c0.3,0,0.5,0.2,0.5,0.5v1
				c0,1.9-1.6,3.5-3.5,3.5H4z"/>
			<g>
				<path class="st2" d="M47,43v1c0,1.7-1.3,3-3,3H4c-1.7,0-3-1.3-3-3v-1H47 M47,42H1c-0.6,0-1,0.4-1,1v1c0,2.2,1.8,4,4,4h40
					c2.2,0,4-1.8,4-4v-1C48,42.4,47.6,42,47,42L47,42z"/>
			</g>
		</g>
		<g class="st5">
			<g>
				<path class="st18" d="M3.2,42c0.5-10.9,9.5-19.6,20.5-19.6s20,8.8,20.5,19.6H3.2z"/>
				<path class="st2" d="M23.6,23.4c10.5,0,19.2,7.6,19.9,18.6H3.7C4.4,31,13.1,23.4,23.6,23.4 M23.6,22.4C12.2,22.4,2.8,31,2.6,43
					h42C44.4,31,35.1,22.4,23.6,22.4L23.6,22.4z"/>
			</g>
		</g>
	</g>
	<g>
		<g>
			<g>
				<g>
					<circle class="st18" cx="23.6" cy="22.4" r="3"/>
				</g>
				<g>
					<path class="st56" d="M23.6,19.4c-0.4,0-0.7,0.1-1,0.2c1.2,0.4,2,1.5,2,2.8s-0.8,2.4-2,2.8c0.3,0.1,0.6,0.2,1,0.2
						c1.7,0,3-1.3,3-3S25.3,19.4,23.6,19.4z"/>
				</g>
				<g>
					<path class="st2" d="M23.6,20.4c1.1,0,2,0.9,2,2s-0.9,2-2,2s-2-0.9-2-2S22.5,20.4,23.6,20.4 M23.6,19.4c-1.7,0-3,1.3-3,3
						s1.3,3,3,3s3-1.3,3-3S25.3,19.4,23.6,19.4L23.6,19.4z"/>
				</g>
			</g>
			<g>
				<g>
					<defs>
						<path id="SVGID_21_" d="M23.6,22.4C12.1,22.4,2.8,31,2.6,43h42C44.4,31,35.1,22.4,23.6,22.4z"/>
					</defs>
					<clipPath id="SVGID_2_">
						<use xlink:href="#SVGID_21_"  style="overflow:visible;"/>
					</clipPath>
					<g class="st6">
						<path class="st18" d="M25.6,22.4C14.1,22.4,4.8,31,4.6,43h42C46.4,31,37.1,22.4,25.6,22.4z"/>
					</g>
					<g class="st6">
						<path class="st21" d="M23.6,22.1c-0.7,0-1.3,0.2-2,0.2c10.5,1,18.8,9.7,19,20.7h4C44.4,31,35.1,22.1,23.6,22.1z"/>
					</g>
				</g>
				<g>
					<path class="st2" d="M23.6,23.4c10.5,0,19.2,7.6,20,18.6H3.7C4.4,31,13.1,23.4,23.6,23.4 M23.6,22.4C12.1,22.4,2.8,31,2.6,43
						h42C44.4,31,35.1,22.4,23.6,22.4L23.6,22.4z"/>
				</g>
			</g>
			<g>
				<g>
					<defs>
						<path id="SVGID_23_" d="M44,48H4c-2.2,0-4-1.8-4-4v-1c0-0.6,0.4-1,1-1h46c0.6,0,1,0.4,1,1v1C48,46.2,46.2,48,44,48z"/>
					</defs>
					<clipPath id="SVGID_4_">
						<use xlink:href="#SVGID_23_"  style="overflow:visible;"/>
					</clipPath>
					<g class="st8">
						<path class="st18" d="M46,48H6c-2.2,0-4-1.8-4-4v-1c0-0.6,0.4-1,1-1h46c0.6,0,1,0.4,1,1v1C50,46.2,48.2,48,46,48z"/>
					</g>
					<g class="st8">
						<path class="st21" d="M47,42h-3c0.6,0,1,0.4,1,1v1c0,2.2-1.8,4-4,4h3c2.2,0,4-1.8,4-4v-1C48,42.4,47.6,42,47,42z"/>
					</g>
				</g>
				<g>
					<g>
						<path class="st2" d="M47,43v1c0,1.7-1.3,3-3,3H4c-1.7,0-3-1.3-3-3v-1H47 M47,42H1c-0.6,0-1,0.4-1,1v1c0,2.2,1.8,4,4,4h40
							c2.2,0,4-1.8,4-4v-1C48,42.4,47.6,42,47,42L47,42z"/>
					</g>
				</g>
			</g>
		</g>
		<path class="st37" d="M17.4,27c0,0-3,0.4-5.8,3.8"/>
	</g>
	<g>
		<g>
			<path class="st2" d="M31.1,17c-0.3,0-0.5-0.2-0.5-0.5c0-1.1,0.6-1.7,1.1-2.2c0.4-0.4,0.8-0.8,0.8-1.5c0-0.7-0.3-1.1-0.8-1.5
				c-0.5-0.5-1.1-1.1-1.1-2.2c0-1.1,0.6-1.7,1.1-2.2c0.4-0.4,0.8-0.8,0.8-1.5c0-0.3,0.2-0.5,0.5-0.5s0.5,0.2,0.5,0.5
				c0,1.1-0.6,1.7-1.1,2.2c-0.4,0.4-0.8,0.8-0.8,1.5c0,0.7,0.3,1.1,0.8,1.5c0.5,0.5,1.1,1.1,1.1,2.2c0,1.1-0.6,1.7-1.1,2.2
				c-0.4,0.4-0.8,0.8-0.8,1.5C31.5,16.8,31.3,17,31.1,17z"/>
			<path class="st2" d="M39.1,20c-0.3,0-0.5-0.2-0.5-0.5c0-1.1,0.6-1.7,1.1-2.2c0.4-0.4,0.8-0.8,0.8-1.5c0-0.7-0.3-1.1-0.8-1.5
				c-0.5-0.5-1.1-1.1-1.1-2.2c0-1.1,0.6-1.7,1.1-2.2c0.4-0.4,0.8-0.8,0.8-1.5c0-0.3,0.2-0.5,0.5-0.5s0.5,0.2,0.5,0.5
				c0,1.1-0.6,1.7-1.1,2.2c-0.4,0.4-0.8,0.8-0.8,1.5c0,0.7,0.3,1.1,0.8,1.5c0.5,0.5,1.1,1.1,1.1,2.2c0,1.1-0.6,1.7-1.1,2.2
				c-0.4,0.4-0.8,0.8-0.8,1.5C39.5,19.8,39.3,20,39.1,20z"/>
		</g>
		<g>
			<path class="st2" d="M16.9,17c0.3,0,0.5-0.2,0.5-0.5c0-1.1-0.6-1.7-1.1-2.2c-0.4-0.4-0.8-0.8-0.8-1.5c0-0.7,0.3-1.1,0.8-1.5
				c0.5-0.5,1.1-1.1,1.1-2.2c0-1.1-0.6-1.7-1.1-2.2c-0.4-0.4-0.8-0.8-0.8-1.5c0-0.3-0.2-0.5-0.5-0.5s-0.5,0.2-0.5,0.5
				c0,1.1,0.6,1.7,1.1,2.2c0.4,0.4,0.8,0.8,0.8,1.5c0,0.7-0.3,1.1-0.8,1.5c-0.5,0.5-1.1,1.1-1.1,2.2c0,1.1,0.6,1.7,1.1,2.2
				c0.4,0.4,0.8,0.8,0.8,1.5C16.5,16.8,16.7,17,16.9,17z"/>
			<path class="st2" d="M8.9,20c0.3,0,0.5-0.2,0.5-0.5c0-1.1-0.6-1.7-1.1-2.2c-0.4-0.4-0.8-0.8-0.8-1.5c0-0.7,0.3-1.1,0.8-1.5
				c0.5-0.5,1.1-1.1,1.1-2.2c0-1.1-0.6-1.7-1.1-2.2C7.9,9.5,7.5,9.2,7.5,8.5C7.5,8.2,7.3,8,7.1,8C6.8,8,6.6,8.2,6.6,8.5
				c0,1.1,0.6,1.7,1.1,2.2c0.4,0.4,0.8,0.8,0.8,1.5c0,0.7-0.3,1.1-0.8,1.5c-0.5,0.5-1.1,1.1-1.1,2.2c0,1.1,0.6,1.7,1.1,2.2
				c0.4,0.4,0.8,0.8,0.8,1.5C8.5,19.8,8.7,20,8.9,20z"/>
		</g>
	</g>
</g>
<g id="logo">
</g>
</svg>
