<?xml version="1.0" encoding="utf-8"?>
<!-- Generator: Adobe Illustrator 19.0.1, SVG Export Plug-In . SVG Version: 6.00 Build 0)  -->
<svg version="1.1" xmlns="http://www.w3.org/2000/svg" xmlns:xlink="http://www.w3.org/1999/xlink" x="0px" y="0px"
	 viewBox="0 0 48 48" style="enable-background:new 0 0 48 48;" xml:space="preserve">
<style type="text/css">
	.st0{fill:#FF7043;stroke:#212121;stroke-linecap:round;stroke-miterlimit:10;}
	.st1{fill:#E0E0E0;}
	.st2{fill:#212121;}
	.st3{fill:#FFCC80;}
	.st4{display:none;}
	.st5{display:inline;}
	.st6{clip-path:url(#SVGID_2_);}
	.st7{fill:#4DB6AC;}
	.st8{clip-path:url(#SVGID_4_);}
	.st9{fill:#26A69A;}
	.st10{fill:none;stroke:#212121;stroke-linecap:round;stroke-miterlimit:10;}
	.st11{fill:#66BB6A;stroke:#212121;stroke-linecap:round;stroke-linejoin:round;stroke-miterlimit:10;}
	.st12{fill:#F44336;}
	.st13{fill:#EEEEEE;}
	.st14{fill:#FFA726;}
	.st15{fill:#FFD54F;}
	.st16{display:inline;fill:#212121;}
	.st17{clip-path:url(#SVGID_6_);}
	.st18{fill:#F5F5F5;}
	.st19{display:inline;fill:#F5F5F5;}
	.st20{clip-path:url(#SVGID_8_);}
	.st21{fill:#DBDBDB;}
	.st22{fill:none;stroke:#212121;stroke-miterlimit:10;}
	.st23{fill:#66BB6A;}
	.st24{fill:#FF8A65;}
	.st25{fill:#EF5350;stroke:#212121;stroke-linecap:round;stroke-linejoin:round;stroke-miterlimit:10;}
	.st26{fill:#B71C1C;}
	.st27{display:inline;fill:#80DEEA;}
	.st28{clip-path:url(#SVGID_10_);}
	.st29{fill:#80DEEA;}
	.st30{fill:#74CAD1;}
	.st31{clip-path:url(#SVGID_12_);}
	.st32{fill:#A5D6A7;}
	.st33{fill:#9BC69B;}
	.st34{fill:#FFB74D;stroke:#212121;stroke-linecap:round;stroke-linejoin:round;stroke-miterlimit:10;}
	.st35{fill:#8D6E63;stroke:#212121;stroke-linecap:round;stroke-linejoin:round;stroke-miterlimit:10;}
	.st36{clip-path:url(#SVGID_14_);fill:#A5D6A7;}
	.st37{fill:none;stroke:#212121;stroke-linecap:round;stroke-linejoin:round;stroke-miterlimit:10;}
	.st38{fill:#FFE0B2;}
	.st39{fill:#FFF3E0;}
	.st40{fill:#FFCA28;stroke:#212121;stroke-linecap:round;stroke-linejoin:round;stroke-miterlimit:10;}
	.st41{fill:#FFD54F;stroke:#212121;stroke-miterlimit:10;}
	.st42{fill:#FFF176;stroke:#212121;stroke-miterlimit:10;}
	.st43{fill:#4FC3F7;stroke:#212121;stroke-miterlimit:10;}
	.st44{clip-path:url(#SVGID_16_);}
	.st45{fill:#4FC3F7;}
	.st46{fill:#29B6F6;}
	.st47{fill:none;stroke:#000000;stroke-miterlimit:10;}
	.st48{fill:#FFE0B2;stroke:#212121;stroke-miterlimit:10;}
	.st49{fill:#FFD9A6;}
	.st50{fill:#D7F0F9;}
	.st51{clip-path:url(#SVGID_18_);fill:#FFD54F;stroke:#212121;stroke-miterlimit:10;}
	.st52{fill:#E57373;}
	.st53{fill:#9CCC65;}
	.st54{fill:#97BA60;}
	.st55{fill:#EBF4F7;}
	.st56{fill:#BDBDBD;}
	.st57{clip-path:url(#SVGID_22_);}
	.st58{clip-path:url(#SVGID_24_);}
	.st59{fill:#C62828;}
	.st60{fill:#AF2525;}
</style>
<g id="soups">
</g>
<g id="main_dishes">
</g>
<g id="salads">
</g>
<g id="desserts">
</g>
<g id="drinks">
	<g>
		<g>
			<g>
				<circle class="st41" cx="28.7" cy="15.5" r="7"/>
				<circle class="st42" cx="28.7" cy="15.5" r="4"/>
			</g>
			<polygon class="st37" points="28.7,15.8 28.7,15.4 28.7,11.5 28.7,11.5 			"/>
			<rect x="27.2" y="12.1" class="st22" width="0" height="4.4"/>
			<rect x="30.3" y="12.1" class="st22" width="0" height="4.4"/>
		</g>
		<g>
			<g>
				<g>
					<path class="st43" d="M37.3,17.9c-3.9,0-7,3.1-7,7c0,3.9,3.1,7,7,7s7-3.1,7-7C44.3,21,41.1,17.9,37.3,17.9z M37.3,29.7
						c-2.7,0-4.8-2.2-4.8-4.8c0-2.7,2.2-4.8,4.8-4.8s4.8,2.2,4.8,4.8C42.1,27.5,39.9,29.7,37.3,29.7z"/>
					<g>
						<defs>
							<path id="SVGID_15_" d="M23,43.1L23,43.1c-7.7,0-14-6.3-14-14v-13c0-0.6,0.4-1,1-1h26c0.6,0,1,0.4,1,1v13
								C37,36.8,30.8,43.1,23,43.1z"/>
						</defs>
						<clipPath id="SVGID_2_">
							<use xlink:href="#SVGID_15_"  style="overflow:visible;"/>
						</clipPath>
						<g class="st6">
							<path class="st45" d="M26,43.1L26,43.1c-7.7,0-14-6.3-14-14v-13c0-0.6,0.4-1,1-1h26c0.6,0,1,0.4,1,1v13
								C40,36.8,33.8,43.1,26,43.1z"/>
						</g>
					</g>
					<g>
						<path class="st46" d="M37,16h-4c0.6,0,1,0.5,1,1v12.1c0,6.5-5.2,11.9-12,12.8c0.7,0.1,1.3,0.1,2,0.1h0c7.7,0,14-5.8,14-12.9
							V17C38,16.5,37.6,16,37,16z"/>
					</g>
					<g>
						<g>
							<path class="st2" d="M37,16.1v13c0,7.2-5.8,13-13,13c-7.2,0-13-5.8-13-13v-13H37 M37,15.1H11c-0.6,0-1,0.4-1,1v13
								c0,7.7,6.3,14,14,14h0c7.7,0,14-6.3,14-14v-13C38,15.5,37.6,15.1,37,15.1L37,15.1z"/>
						</g>
					</g>
				</g>
				<line class="st47" x1="10" y1="17.5" x2="38" y2="17.5"/>
			</g>
			<g>
				<line class="st22" x1="19.5" y1="16" x2="19.5" y2="23"/>
				<path class="st48" d="M21.5,31h-4c-0.6,0-1-0.4-1-1v-5.3c0-0.4,0.3-0.8,0.7-0.9l2.3-0.8l2.3,0.8c0.4,0.1,0.7,0.5,0.7,0.9V30
					C22.5,30.6,22,31,21.5,31z"/>
			</g>
		</g>
	</g>
	<g>
		<g>
			<path class="st49" d="M37.4,42.6v-4.1H41c0.3,0,0.5,0.2,0.5,0.5v3.6H37.4z"/>
			<path class="st2" d="M41,39v3.1h-3.1V39H41 M41,38h-4.1v5.1H42V39C42,38.4,41.5,38,41,38L41,38z"/>
		</g>
		<g>
			<rect x="33.2" y="38.5" class="st49" width="4.1" height="4.1"/>
			<path class="st2" d="M36.9,39v3.1h-3.1V39H36.9 M37.9,38h-5.1v5.1h5.1V38L37.9,38z"/>
		</g>
		<g>
			<path class="st49" d="M33.2,38.5v-3.6c0-0.3,0.2-0.5,0.5-0.5h3.1c0.3,0,0.5,0.2,0.5,0.5v3.6H33.2z"/>
			<path class="st2" d="M36.9,34.8V38h-3.1v-3.1H36.9 M36.9,33.8h-3.1c-0.6,0-1,0.4-1,1V39h5.1v-4.1C37.9,34.3,37.4,33.8,36.9,33.8
				L36.9,33.8z"/>
		</g>
	</g>
	<g>
		<path class="st11" d="M12.4,36.6c0,3-1,5.5-2.3,5.5s-2.3-2.4-2.3-5.5s2.3-5.5,2.3-5.5S12.4,33.6,12.4,36.6z"/>
		<path class="st11" d="M12.4,37.3c-2.2,2.1-3.3,4.6-2.4,5.5s3.4-0.1,5.6-2.3s2.4-5.5,2.4-5.5S14.6,35.2,12.4,37.3z"/>
		<path class="st11" d="M9.3,37.3c2.2,2.1,3.3,4.6,2.4,5.5c-0.9,0.9-3.4-0.1-5.6-2.3s-2.4-5.5-2.4-5.5S7.1,35.2,9.3,37.3z"/>
	</g>
	<g>
		<path class="st18" d="M9.9,47.6c-3.5,0-6.7-1.4-9.2-3.9c-0.3-0.3-0.2-0.6-0.1-0.7c0-0.1,0.2-0.4,0.6-0.4h45.7
			c0.4,0,0.6,0.3,0.6,0.4c0,0.1,0.2,0.4-0.1,0.7c-2.4,2.5-5.7,3.9-9.2,3.9H9.9z"/>
		<path class="st2" d="M46.8,43.1c0,0,0.1,0,0.1,0.1c0,0.1,0,0.1,0,0.2c-2.4,2.4-5.5,3.7-8.8,3.7H9.9c-3.3,0-6.5-1.3-8.8-3.7
			C1,43.4,1,43.3,1,43.2c0-0.1,0.1-0.1,0.1-0.1H46.8 M46.8,42.1H1.2c-1,0-1.5,1.3-0.8,2l0,0c2.5,2.6,5.9,4,9.5,4h28.3
			c3.6,0,7-1.4,9.5-4l0,0C48.4,43.4,47.9,42.1,46.8,42.1L46.8,42.1z"/>
	</g>
</g>
<g id="alcoholic_drinks">
</g>
<g id="dish">
</g>
<g id="logo">
</g>
</svg>
