<?xml version="1.0" encoding="utf-8"?>
<!-- Generator: Adobe Illustrator 19.0.1, SVG Export Plug-In . SVG Version: 6.00 Build 0)  -->
<svg version="1.1" xmlns="http://www.w3.org/2000/svg" xmlns:xlink="http://www.w3.org/1999/xlink" x="0px" y="0px"
	 viewBox="0 0 48 48" style="enable-background:new 0 0 48 48;" xml:space="preserve">
<style type="text/css">
	.st0{fill:#FF7043;stroke:#212121;stroke-linecap:round;stroke-miterlimit:10;}
	.st1{fill:#E0E0E0;}
	.st2{fill:#212121;}
	.st3{fill:#FFCC80;}
	.st4{display:none;}
	.st5{display:inline;}
	.st6{clip-path:url(#SVGID_2_);}
	.st7{fill:#4DB6AC;}
	.st8{clip-path:url(#SVGID_4_);}
	.st9{fill:#26A69A;}
	.st10{fill:none;stroke:#212121;stroke-linecap:round;stroke-miterlimit:10;}
	.st11{fill:#66BB6A;stroke:#212121;stroke-linecap:round;stroke-linejoin:round;stroke-miterlimit:10;}
	.st12{fill:#F44336;}
	.st13{fill:#EEEEEE;}
	.st14{fill:#FFA726;}
	.st15{fill:#FFD54F;}
	.st16{display:inline;fill:#212121;}
	.st17{clip-path:url(#SVGID_6_);}
	.st18{fill:#F5F5F5;}
	.st19{display:inline;fill:#F5F5F5;}
	.st20{clip-path:url(#SVGID_8_);}
	.st21{fill:#DBDBDB;}
	.st22{fill:none;stroke:#212121;stroke-miterlimit:10;}
	.st23{fill:#66BB6A;}
	.st24{fill:#FF8A65;}
	.st25{fill:#EF5350;stroke:#212121;stroke-linecap:round;stroke-linejoin:round;stroke-miterlimit:10;}
	.st26{fill:#B71C1C;}
	.st27{display:inline;fill:#80DEEA;}
	.st28{clip-path:url(#SVGID_10_);}
	.st29{fill:#80DEEA;}
	.st30{fill:#74CAD1;}
	.st31{clip-path:url(#SVGID_12_);}
	.st32{fill:#A5D6A7;}
	.st33{fill:#9BC69B;}
	.st34{fill:#FFB74D;stroke:#212121;stroke-linecap:round;stroke-linejoin:round;stroke-miterlimit:10;}
	.st35{fill:#8D6E63;stroke:#212121;stroke-linecap:round;stroke-linejoin:round;stroke-miterlimit:10;}
	.st36{clip-path:url(#SVGID_14_);fill:#A5D6A7;}
	.st37{fill:none;stroke:#212121;stroke-linecap:round;stroke-linejoin:round;stroke-miterlimit:10;}
	.st38{fill:#FFE0B2;}
	.st39{fill:#FFF3E0;}
	.st40{fill:#FFCA28;stroke:#212121;stroke-linecap:round;stroke-linejoin:round;stroke-miterlimit:10;}
	.st41{fill:#FFD54F;stroke:#212121;stroke-miterlimit:10;}
	.st42{fill:#FFF176;stroke:#212121;stroke-miterlimit:10;}
	.st43{fill:#4FC3F7;stroke:#212121;stroke-miterlimit:10;}
	.st44{clip-path:url(#SVGID_16_);}
	.st45{fill:#4FC3F7;}
	.st46{fill:#29B6F6;}
	.st47{fill:none;stroke:#000000;stroke-miterlimit:10;}
	.st48{fill:#FFE0B2;stroke:#212121;stroke-miterlimit:10;}
	.st49{fill:#FFD9A6;}
	.st50{fill:#D7F0F9;}
	.st51{clip-path:url(#SVGID_18_);fill:#FFD54F;stroke:#212121;stroke-miterlimit:10;}
	.st52{fill:#E57373;}
	.st53{fill:#9CCC65;}
	.st54{fill:#97BA60;}
	.st55{fill:#EBF4F7;}
	.st56{fill:#BDBDBD;}
	.st57{clip-path:url(#SVGID_22_);}
	.st58{clip-path:url(#SVGID_24_);}
	.st59{fill:#C62828;}
	.st60{fill:#AF2525;}
</style>
<g id="soups">
</g>
<g id="main_dishes">
	<g>
		<g>
			<polygon class="st11" points="11.3,23.9 8.6,20.4 13.6,23.5 			"/>
			<polygon class="st11" points="15.6,23.9 18.4,20.4 13.4,23.5 			"/>
			<polygon class="st11" points="12.9,23.6 14.1,19.5 14.8,23.5 			"/>
		</g>
		<g>
			<path class="st12" d="M13.5,35.9c-3.4,0-6.2-2.8-6.2-6.2s2.8-6.2,6.2-6.2c3.4,0,6.2,2.8,6.2,6.2S16.9,35.9,13.5,35.9z"/>
			<path class="st2" d="M13.5,24c3.1,0,5.7,2.6,5.7,5.7c0,3.1-2.6,5.7-5.7,5.7s-5.7-2.6-5.7-5.7C7.8,26.5,10.3,24,13.5,24 M13.5,23
				c-3.7,0-6.7,3-6.7,6.7s3,6.7,6.7,6.7c3.7,0,6.7-3,6.7-6.7S17.2,23,13.5,23L13.5,23z"/>
		</g>
		<g>
			<g>
				<g>
					<path class="st13" d="M37,23V10.2c0-0.2-0.2-0.5-0.4-0.5c-0.5-0.1-0.9-0.4-1.2-0.8c-0.2-0.4-0.3-0.8-0.2-1.3
						c0.1-0.6,0.7-1.1,1.3-1.2c0.1,0,0.2,0,0.3,0c0.5,0,1,0.2,1.3,0.6c0.1,0.1,0.2,0.2,0.4,0.2s0.3-0.1,0.4-0.2
						c0.3-0.4,0.8-0.6,1.3-0.6c0.1,0,0.2,0,0.3,0c0.7,0.1,1.2,0.6,1.3,1.2c0.1,0.4,0,0.9-0.2,1.3c-0.3,0.4-0.7,0.7-1.2,0.8
						c-0.2,0-0.4,0.2-0.4,0.5V23H37z"/>
					<path class="st2" d="M40.1,6.9c0.1,0,0.1,0,0.2,0c0.4,0.1,0.8,0.4,0.9,0.9c0.1,0.4,0,0.7-0.2,0.9c-0.2,0.3-0.7,0.5-1.1,0.5
						c-0.5,0.1-1.1,0.5-1.1,1V23h0h-1.1H37V10.2c0-0.5-0.1-0.9-0.6-1c-0.4-0.1-0.6-0.3-0.7-0.5c-0.1-0.2-0.2-0.5-0.1-0.9
						c0.1-0.4,0.5-0.8,1-0.9c0.1,0,0.2,0,0.2,0c0.3,0,0.7,0.2,0.9,0.4c0.2,0.2,0.5,0.4,0.8,0.4s0.6-0.1,0.8-0.4
						C39.5,7,39.8,6.9,40.1,6.9 M40.1,5.9c-0.7,0-1.3,0.3-1.7,0.8c-0.4-0.5-1-0.8-1.7-0.8c-0.1,0-0.3,0-0.4,0c0,0,0,0,0,0
						c-0.8,0.2-1.7,0.8-1.9,1.6C34.1,8.8,35,10,36,10.2V24h1.9H39h1V10.2c2-0.2,2.3-1.3,2-2.6c-0.2-0.8-0.8-1.4-1.6-1.6c0,0,0,0,0,0
						C40.3,5.9,40.3,5.9,40.1,5.9L40.1,5.9z"/>
				</g>
				<g>
					<path class="st14" d="M35.7,41.7c-1.5,0-2.8-0.6-3.8-1.7c-0.9-1-1.2-2.4-1-3.7l2.3-13.2c0.4-2.2,2.4-3.9,4.8-3.9
						c2.4,0,4.4,1.6,4.8,3.9l2.3,13.2c0.2,1.3-0.1,2.6-1,3.7c-0.9,1.1-2.3,1.7-3.8,1.7H35.7z"/>
					<path class="st2" d="M38,19.8c2.1,0,3.9,1.4,4.3,3.4l2.3,13.2c0.2,1.2-0.1,2.3-0.9,3.3c-0.8,1-2.1,1.6-3.4,1.6H38h-2.3
						c-1.3,0-2.6-0.6-3.4-1.6c-0.8-0.9-1.1-2.1-0.9-3.3l2.3-13.2C34.1,21.2,35.9,19.8,38,19.8 M38,18.8L38,18.8
						c-2.6,0-4.8,1.8-5.3,4.3l-2.3,13.2c-0.5,3.1,2,6,5.3,6H38h2.3c3.3,0,5.8-2.9,5.3-6l-2.3-13.2C42.8,20.6,40.6,18.8,38,18.8
						L38,18.8z"/>
				</g>
			</g>
			<g>
				<g>
					<g>
						<g>
							<path class="st15" d="M8,44.4c-3,0-5.5-2.5-5.5-5.5S5,33.4,8,33.4c3,0,5.5,2.5,5.5,5.5S11,44.4,8,44.4z"/>
							<path class="st2" d="M8,33.6c2.9,0,5.2,2.4,5.2,5.2c0,2.9-2.4,5.2-5.2,5.2s-5.2-2.4-5.2-5.2C2.7,36,5.1,33.6,8,33.6 M8,33.1
								c-3.2,0-5.7,2.6-5.7,5.7c0,3.2,2.6,5.7,5.7,5.7c3.2,0,5.7-2.6,5.7-5.7C13.7,35.7,11.2,33.1,8,33.1L8,33.1z"/>
						</g>
						<g>
							<path class="st15" d="M8,44.1c-2.9,0-5.2-2.4-5.2-5.2s2.4-5.2,5.2-5.2c2.9,0,5.2,2.4,5.2,5.2S10.9,44.1,8,44.1z"/>
							<path class="st2" d="M8,34.1c2.6,0,4.7,2.1,4.7,4.7s-2.1,4.7-4.7,4.7s-4.7-2.1-4.7-4.7S5.4,34.1,8,34.1 M8,33.1
								c-3.2,0-5.7,2.6-5.7,5.7c0,3.2,2.6,5.7,5.7,5.7c3.2,0,5.7-2.6,5.7-5.7C13.7,35.7,11.2,33.1,8,33.1L8,33.1z"/>
						</g>
						<g>
							<path class="st15" d="M8,42.2c-1.8,0-3.3-1.5-3.3-3.3s1.5-3.3,3.3-3.3s3.3,1.5,3.3,3.3S9.8,42.2,8,42.2z"/>
							<path class="st2" d="M8,36.1c1.6,0,2.8,1.3,2.8,2.8S9.5,41.7,8,41.7c-1.6,0-2.8-1.3-2.8-2.8S6.4,36.1,8,36.1 M8,35.1
								c-2.1,0-3.8,1.7-3.8,3.8s1.7,3.8,3.8,3.8c2.1,0,3.8-1.7,3.8-3.8S10.1,35.1,8,35.1L8,35.1z"/>
						</g>
						<g>
							<circle class="st15" cx="8" cy="38.9" r="1.4"/>
							<path class="st2" d="M8,38c0.5,0,0.9,0.4,0.9,0.9c0,0.5-0.4,0.9-0.9,0.9s-0.9-0.4-0.9-0.9C7.1,38.4,7.5,38,8,38 M8,37
								c-1.1,0-1.9,0.9-1.9,1.9s0.9,1.9,1.9,1.9c1.1,0,1.9-0.9,1.9-1.9S9,37,8,37L8,37z"/>
						</g>
					</g>
					<g>
						<g>
							<path class="st15" d="M23.3,44.4c-3,0-5.5-2.5-5.5-5.5s2.5-5.5,5.5-5.5s5.5,2.5,5.5,5.5S26.3,44.4,23.3,44.4z"/>
							<path class="st2" d="M23.3,33.6c2.9,0,5.2,2.4,5.2,5.2c0,2.9-2.4,5.2-5.2,5.2S18,41.8,18,38.9C18,36,20.4,33.6,23.3,33.6
								 M23.3,33.1c-3.2,0-5.7,2.6-5.7,5.7c0,3.2,2.6,5.7,5.7,5.7s5.7-2.6,5.7-5.7C29,35.7,26.5,33.1,23.3,33.1L23.3,33.1z"/>
						</g>
						<g>
							<path class="st15" d="M23.3,44.1c-2.9,0-5.2-2.4-5.2-5.2s2.4-5.2,5.2-5.2s5.2,2.4,5.2,5.2S26.2,44.1,23.3,44.1z"/>
							<path class="st2" d="M23.3,34.1c2.6,0,4.7,2.1,4.7,4.7s-2.1,4.7-4.7,4.7s-4.7-2.1-4.7-4.7S20.7,34.1,23.3,34.1 M23.3,33.1
								c-3.2,0-5.7,2.6-5.7,5.7c0,3.2,2.6,5.7,5.7,5.7s5.7-2.6,5.7-5.7C29,35.7,26.5,33.1,23.3,33.1L23.3,33.1z"/>
						</g>
						<g>
							<path class="st15" d="M23.3,42.2c-1.8,0-3.3-1.5-3.3-3.3s1.5-3.3,3.3-3.3s3.3,1.5,3.3,3.3S25.1,42.2,23.3,42.2z"/>
							<path class="st2" d="M23.3,36.1c1.6,0,2.8,1.3,2.8,2.8s-1.3,2.8-2.8,2.8c-1.6,0-2.8-1.3-2.8-2.8S21.7,36.1,23.3,36.1
								 M23.3,35.1c-2.1,0-3.8,1.7-3.8,3.8s1.7,3.8,3.8,3.8s3.8-1.7,3.8-3.8S25.4,35.1,23.3,35.1L23.3,35.1z"/>
						</g>
						<g>
							<circle class="st15" cx="23.3" cy="38.9" r="1.4"/>
							<path class="st2" d="M23.3,38c0.5,0,0.9,0.4,0.9,0.9c0,0.5-0.4,0.9-0.9,0.9s-0.9-0.4-0.9-0.9C22.4,38.4,22.8,38,23.3,38
								 M23.3,37c-1.1,0-1.9,0.9-1.9,1.9s0.9,1.9,1.9,1.9c1.1,0,1.9-0.9,1.9-1.9S24.4,37,23.3,37L23.3,37z"/>
						</g>
					</g>
					<g>
						<g>
							<path class="st15" d="M15.6,40.5c-3,0-5.5-2.5-5.5-5.5c0-3,2.5-5.5,5.5-5.5c3,0,5.5,2.5,5.5,5.5
								C21.1,38.1,18.7,40.5,15.6,40.5z"/>
							<path class="st2" d="M15.6,29.8c2.9,0,5.2,2.4,5.2,5.2s-2.4,5.2-5.2,5.2s-5.2-2.4-5.2-5.2S12.7,29.8,15.6,29.8 M15.6,29.3
								c-3.2,0-5.7,2.6-5.7,5.7s2.6,5.7,5.7,5.7s5.7-2.6,5.7-5.7S18.8,29.3,15.6,29.3L15.6,29.3z"/>
						</g>
						<g>
							<path class="st15" d="M15.6,40.3c-2.9,0-5.2-2.4-5.2-5.2c0-2.9,2.4-5.2,5.2-5.2c2.9,0,5.2,2.4,5.2,5.2
								C20.9,37.9,18.5,40.3,15.6,40.3z"/>
							<path class="st2" d="M15.6,30.3c2.6,0,4.7,2.1,4.7,4.7s-2.1,4.7-4.7,4.7s-4.7-2.1-4.7-4.7S13,30.3,15.6,30.3 M15.6,29.3
								c-3.2,0-5.7,2.6-5.7,5.7s2.6,5.7,5.7,5.7s5.7-2.6,5.7-5.7S18.8,29.3,15.6,29.3L15.6,29.3z"/>
						</g>
						<g>
							<path class="st15" d="M15.6,38.4c-1.8,0-3.3-1.5-3.3-3.3s1.5-3.3,3.3-3.3s3.3,1.5,3.3,3.3S17.5,38.4,15.6,38.4z"/>
							<path class="st2" d="M15.6,32.2c1.6,0,2.8,1.3,2.8,2.8s-1.3,2.8-2.8,2.8s-2.8-1.3-2.8-2.8S14.1,32.2,15.6,32.2 M15.6,31.2
								c-2.1,0-3.8,1.7-3.8,3.8s1.7,3.8,3.8,3.8s3.8-1.7,3.8-3.8S17.8,31.2,15.6,31.2L15.6,31.2z"/>
						</g>
						<g>
							<circle class="st15" cx="15.6" cy="35.1" r="1.4"/>
							<path class="st2" d="M15.6,34.1c0.5,0,0.9,0.4,0.9,0.9c0,0.5-0.4,0.9-0.9,0.9c-0.5,0-0.9-0.4-0.9-0.9
								C14.7,34.6,15.1,34.1,15.6,34.1 M15.6,33.1c-1.1,0-1.9,0.9-1.9,1.9s0.9,1.9,1.9,1.9c1.1,0,1.9-0.9,1.9-1.9
								S16.7,33.1,15.6,33.1L15.6,33.1z"/>
						</g>
					</g>
				</g>
				<g>
					<g>
						<g>
							<path class="st15" d="M25.2,44.4c-3,0-5.5-2.5-5.5-5.5s2.5-5.5,5.5-5.5s5.5,2.5,5.5,5.5S28.2,44.4,25.2,44.4z"/>
							<path class="st2" d="M25.2,33.6c2.9,0,5.2,2.4,5.2,5.2c0,2.9-2.4,5.2-5.2,5.2S20,41.8,20,38.9C20,36,22.3,33.6,25.2,33.6
								 M25.2,33.1c-3.2,0-5.7,2.6-5.7,5.7c0,3.2,2.6,5.7,5.7,5.7s5.7-2.6,5.7-5.7C30.9,35.7,28.4,33.1,25.2,33.1L25.2,33.1z"/>
						</g>
						<g>
							<path class="st15" d="M25.2,44.1c-2.9,0-5.2-2.4-5.2-5.2s2.4-5.2,5.2-5.2s5.2,2.4,5.2,5.2S28.1,44.1,25.2,44.1z"/>
							<path class="st2" d="M25.2,34.1c2.6,0,4.7,2.1,4.7,4.7s-2.1,4.7-4.7,4.7s-4.7-2.1-4.7-4.7S22.6,34.1,25.2,34.1 M25.2,33.1
								c-3.2,0-5.7,2.6-5.7,5.7c0,3.2,2.6,5.7,5.7,5.7s5.7-2.6,5.7-5.7C30.9,35.7,28.4,33.1,25.2,33.1L25.2,33.1z"/>
						</g>
						<g>
							<path class="st15" d="M25.2,42.2c-1.8,0-3.3-1.5-3.3-3.3s1.5-3.3,3.3-3.3s3.3,1.5,3.3,3.3S27,42.2,25.2,42.2z"/>
							<path class="st2" d="M25.2,36.1c1.6,0,2.8,1.3,2.8,2.8s-1.3,2.8-2.8,2.8c-1.6,0-2.8-1.3-2.8-2.8S23.6,36.1,25.2,36.1
								 M25.2,35.1c-2.1,0-3.8,1.7-3.8,3.8s1.7,3.8,3.8,3.8S29,41,29,38.9S27.3,35.1,25.2,35.1L25.2,35.1z"/>
						</g>
						<g>
							<circle class="st15" cx="25.2" cy="38.9" r="1.4"/>
							<path class="st2" d="M25.2,38c0.5,0,0.9,0.4,0.9,0.9c0,0.5-0.4,0.9-0.9,0.9s-0.9-0.4-0.9-0.9C24.3,38.4,24.7,38,25.2,38
								 M25.2,37c-1.1,0-1.9,0.9-1.9,1.9s0.9,1.9,1.9,1.9c1.1,0,1.9-0.9,1.9-1.9S26.3,37,25.2,37L25.2,37z"/>
						</g>
					</g>
					<g>
						<g>
							<path class="st15" d="M40.5,44.4c-3,0-5.5-2.5-5.5-5.5s2.5-5.5,5.5-5.5c3,0,5.5,2.5,5.5,5.5S43.5,44.4,40.5,44.4z"/>
							<path class="st2" d="M40.5,33.6c2.9,0,5.2,2.4,5.2,5.2c0,2.9-2.4,5.2-5.2,5.2s-5.2-2.4-5.2-5.2C35.3,36,37.6,33.6,40.5,33.6
								 M40.5,33.1c-3.2,0-5.7,2.6-5.7,5.7c0,3.2,2.6,5.7,5.7,5.7c3.2,0,5.7-2.6,5.7-5.7C46.3,35.7,43.7,33.1,40.5,33.1L40.5,33.1z"
								/>
						</g>
						<g>
							<path class="st15" d="M40.5,44.1c-2.9,0-5.2-2.4-5.2-5.2s2.4-5.2,5.2-5.2c2.9,0,5.2,2.4,5.2,5.2S43.4,44.1,40.5,44.1z"/>
							<path class="st2" d="M40.5,34.1c2.6,0,4.7,2.1,4.7,4.7s-2.1,4.7-4.7,4.7s-4.7-2.1-4.7-4.7S37.9,34.1,40.5,34.1 M40.5,33.1
								c-3.2,0-5.7,2.6-5.7,5.7c0,3.2,2.6,5.7,5.7,5.7c3.2,0,5.7-2.6,5.7-5.7C46.3,35.7,43.7,33.1,40.5,33.1L40.5,33.1z"/>
						</g>
						<g>
							<path class="st15" d="M40.5,42.2c-1.8,0-3.3-1.5-3.3-3.3s1.5-3.3,3.3-3.3s3.3,1.5,3.3,3.3S42.3,42.2,40.5,42.2z"/>
							<path class="st2" d="M40.5,36.1c1.6,0,2.8,1.3,2.8,2.8s-1.3,2.8-2.8,2.8c-1.6,0-2.8-1.3-2.8-2.8S39,36.1,40.5,36.1
								 M40.5,35.1c-2.1,0-3.8,1.7-3.8,3.8s1.7,3.8,3.8,3.8c2.1,0,3.8-1.7,3.8-3.8S42.6,35.1,40.5,35.1L40.5,35.1z"/>
						</g>
						<g>
							<circle class="st15" cx="40.5" cy="38.9" r="1.4"/>
							<path class="st2" d="M40.5,38c0.5,0,0.9,0.4,0.9,0.9c0,0.5-0.4,0.9-0.9,0.9s-0.9-0.4-0.9-0.9C39.6,38.4,40,38,40.5,38
								 M40.5,37c-1.1,0-1.9,0.9-1.9,1.9s0.9,1.9,1.9,1.9c1.1,0,1.9-0.9,1.9-1.9S41.6,37,40.5,37L40.5,37z"/>
						</g>
					</g>
					<g>
						<g>
							<path class="st15" d="M32.9,40.5c-3,0-5.5-2.5-5.5-5.5c0-3,2.5-5.5,5.5-5.5c3,0,5.5,2.5,5.5,5.5
								C38.4,38.1,35.9,40.5,32.9,40.5z"/>
							<path class="st2" d="M32.9,29.8c2.9,0,5.2,2.4,5.2,5.2s-2.4,5.2-5.2,5.2s-5.2-2.4-5.2-5.2S30,29.8,32.9,29.8 M32.9,29.3
								c-3.2,0-5.7,2.6-5.7,5.7s2.6,5.7,5.7,5.7s5.7-2.6,5.7-5.7S36,29.3,32.9,29.3L32.9,29.3z"/>
						</g>
						<g>
							<path class="st15" d="M32.9,40.3c-2.9,0-5.2-2.4-5.2-5.2c0-2.9,2.4-5.2,5.2-5.2c2.9,0,5.2,2.4,5.2,5.2
								C38.1,37.9,35.7,40.3,32.9,40.3z"/>
							<path class="st2" d="M32.9,30.3c2.6,0,4.7,2.1,4.7,4.7s-2.1,4.7-4.7,4.7s-4.7-2.1-4.7-4.7S30.2,30.3,32.9,30.3 M32.9,29.3
								c-3.2,0-5.7,2.6-5.7,5.7s2.6,5.7,5.7,5.7s5.7-2.6,5.7-5.7S36,29.3,32.9,29.3L32.9,29.3z"/>
						</g>
						<g>
							<path class="st15" d="M32.9,38.4c-1.8,0-3.3-1.5-3.3-3.3s1.5-3.3,3.3-3.3s3.3,1.5,3.3,3.3S34.7,38.4,32.9,38.4z"/>
							<path class="st2" d="M32.9,32.2c1.6,0,2.8,1.3,2.8,2.8s-1.3,2.8-2.8,2.8S30,36.6,30,35.1S31.3,32.2,32.9,32.2 M32.9,31.2
								c-2.1,0-3.8,1.7-3.8,3.8s1.7,3.8,3.8,3.8s3.8-1.7,3.8-3.8S35,31.2,32.9,31.2L32.9,31.2z"/>
						</g>
						<g>
							<circle class="st15" cx="32.9" cy="35.1" r="1.4"/>
							<path class="st2" d="M32.9,34.1c0.5,0,0.9,0.4,0.9,0.9c0,0.5-0.4,0.9-0.9,0.9c-0.5,0-0.9-0.4-0.9-0.9
								C31.9,34.6,32.4,34.1,32.9,34.1 M32.9,33.1c-1.1,0-1.9,0.9-1.9,1.9s0.9,1.9,1.9,1.9c1.1,0,1.9-0.9,1.9-1.9
								S33.9,33.1,32.9,33.1L32.9,33.1z"/>
						</g>
					</g>
				</g>
				<g>
					<g>
						<g>
							<path class="st15" d="M24.3,36.7c-3,0-5.5-2.5-5.5-5.5c0-3,2.5-5.5,5.5-5.5s5.5,2.5,5.5,5.5C29.7,34.3,27.3,36.7,24.3,36.7z"
								/>
							<path class="st2" d="M24.2,26c2.9,0,5.2,2.4,5.2,5.2c0,2.9-2.4,5.2-5.2,5.2S19,34.1,19,31.2C19,28.3,21.4,26,24.2,26
								 M24.2,25.5c-3.2,0-5.7,2.6-5.7,5.7s2.6,5.7,5.7,5.7s5.7-2.6,5.7-5.7S27.4,25.5,24.2,25.5L24.2,25.5z"/>
						</g>
						<g>
							<path class="st15" d="M24.3,36.5c-2.9,0-5.2-2.4-5.2-5.2c0-2.9,2.4-5.2,5.2-5.2s5.2,2.4,5.2,5.2
								C29.5,34.1,27.1,36.5,24.3,36.5z"/>
							<path class="st2" d="M24.2,26.5c2.6,0,4.7,2.1,4.7,4.7S26.9,36,24.2,36s-4.7-2.1-4.7-4.7S21.6,26.5,24.2,26.5 M24.2,25.5
								c-3.2,0-5.7,2.6-5.7,5.7s2.6,5.7,5.7,5.7s5.7-2.6,5.7-5.7S27.4,25.5,24.2,25.5L24.2,25.5z"/>
						</g>
						<g>
							<path class="st15" d="M24.3,34.6c-1.8,0-3.3-1.5-3.3-3.3s1.5-3.3,3.3-3.3s3.3,1.5,3.3,3.3S26.1,34.6,24.3,34.6z"/>
							<path class="st2" d="M24.2,28.4c1.6,0,2.8,1.3,2.8,2.8c0,1.6-1.3,2.8-2.8,2.8s-2.8-1.3-2.8-2.8
								C21.4,29.7,22.7,28.4,24.2,28.4 M24.2,27.4c-2.1,0-3.8,1.7-3.8,3.8s1.7,3.8,3.8,3.8s3.8-1.7,3.8-3.8S26.4,27.4,24.2,27.4
								L24.2,27.4z"/>
						</g>
						<g>
							<circle class="st15" cx="24.3" cy="31.2" r="1.4"/>
							<path class="st2" d="M24.2,30.3c0.5,0,0.9,0.4,0.9,0.9s-0.4,0.9-0.9,0.9s-0.9-0.4-0.9-0.9S23.7,30.3,24.2,30.3 M24.2,29.3
								c-1.1,0-1.9,0.9-1.9,1.9s0.9,1.9,1.9,1.9c1.1,0,1.9-0.9,1.9-1.9S25.3,29.3,24.2,29.3L24.2,29.3z"/>
						</g>
					</g>
				</g>
				<g>
					<g>
						<g>
							<path class="st15" d="M24.3,44.4c-3,0-5.5-2.5-5.5-5.5s2.5-5.5,5.5-5.5s5.5,2.5,5.5,5.5S27.3,44.4,24.3,44.4z"/>
							<path class="st2" d="M24.2,33.6c2.9,0,5.2,2.4,5.2,5.2c0,2.9-2.4,5.2-5.2,5.2S19,41.8,19,38.9C19,36,21.4,33.6,24.2,33.6
								 M24.2,33.1c-3.2,0-5.7,2.6-5.7,5.7s2.6,5.7,5.7,5.7s5.7-2.6,5.7-5.7S27.4,33.1,24.2,33.1L24.2,33.1z"/>
						</g>
						<g>
							<path class="st15" d="M24.3,44.1c-2.9,0-5.2-2.4-5.2-5.2s2.4-5.2,5.2-5.2s5.2,2.4,5.2,5.2S27.1,44.1,24.3,44.1z"/>
							<path class="st2" d="M24.2,34.1c2.6,0,4.7,2.1,4.7,4.7s-2.1,4.7-4.7,4.7s-4.7-2.1-4.7-4.7S21.6,34.1,24.2,34.1 M24.2,33.1
								c-3.2,0-5.7,2.6-5.7,5.7s2.6,5.7,5.7,5.7s5.7-2.6,5.7-5.7S27.4,33.1,24.2,33.1L24.2,33.1z"/>
						</g>
						<g>
							<path class="st15" d="M24.3,42.2c-1.8,0-3.3-1.5-3.3-3.3s1.5-3.3,3.3-3.3s3.3,1.5,3.3,3.3S26.1,42.2,24.3,42.2z"/>
							<path class="st2" d="M24.2,36.1c1.6,0,2.8,1.3,2.8,2.8s-1.3,2.8-2.8,2.8s-2.8-1.3-2.8-2.8S22.7,36.1,24.2,36.1 M24.2,35.1
								c-2.1,0-3.8,1.7-3.8,3.8s1.7,3.8,3.8,3.8s3.8-1.7,3.8-3.8S26.4,35.1,24.2,35.1L24.2,35.1z"/>
						</g>
						<g>
							<circle class="st15" cx="24.3" cy="38.9" r="1.4"/>
							<path class="st2" d="M24.2,38c0.5,0,0.9,0.4,0.9,0.9c0,0.5-0.4,0.9-0.9,0.9s-0.9-0.4-0.9-0.9C23.3,38.4,23.7,38,24.2,38
								 M24.2,37c-1.1,0-1.9,0.9-1.9,1.9s0.9,1.9,1.9,1.9c1.1,0,1.9-0.9,1.9-1.9S25.3,37,24.2,37L24.2,37z"/>
						</g>
					</g>
				</g>
			</g>
		</g>
	</g>
	<g class="st4">
		<path class="st16" d="M46.9,41l-0.8,6H1.8l-0.8-6H46.9 M47.6,40H0.4C0.2,40,0,40.3,0,40.7l0.9,6.8c0,0.3,0.2,0.5,0.4,0.5h45.5
			c0.2,0,0.4-0.2,0.4-0.5l0.9-6.8C48,40.3,47.8,40,47.6,40L47.6,40z"/>
	</g>
	<g>
		<defs>
			<path id="SVGID_5_" d="M46.7,48H1.3c-0.2,0-0.4-0.2-0.4-0.5L0,40.7C0,40.3,0.2,40,0.4,40h47.2c0.3,0,0.4,0.3,0.4,0.7l-0.9,6.8
				C47.1,47.8,46.9,48,46.7,48z"/>
		</defs>
		<clipPath id="SVGID_2_">
			<use xlink:href="#SVGID_5_"  style="overflow:visible;"/>
		</clipPath>
		<g class="st6">
			<path class="st18" d="M48.7,48H3.3c-0.2,0-0.4-0.2-0.4-0.5L2,40.7C2,40.3,2.2,40,2.4,40h47.2c0.3,0,0.4,0.3,0.4,0.7l-0.9,6.8
				C49.1,47.8,48.9,48,48.7,48z"/>
		</g>
	</g>
	<g class="st4">
		<path class="st19" d="M46.7,48H1.3c-0.2,0-0.4-0.2-0.4-0.5L0,40.7C0,40.3,0.2,40,0.4,40h47.2c0.3,0,0.4,0.3,0.4,0.7l-0.9,6.8
			C47.1,47.8,46.9,48,46.7,48z"/>
	</g>
	<g>
		<path class="st2" d="M46.9,41l-0.8,6H1.8l-0.8-6H46.9 M47.6,40H0.4C0.2,40,0,40.3,0,40.7l0.9,6.8c0,0.3,0.2,0.5,0.4,0.5h45.5
			c0.2,0,0.4-0.2,0.4-0.5l0.9-6.8C48,40.3,47.8,40,47.6,40L47.6,40z"/>
	</g>
	<g>
		<defs>
			<path id="SVGID_7_" d="M46.7,48H1.3c-0.2,0-0.4-0.2-0.4-0.5L0,40.7C0,40.3,0.2,40,0.4,40h47.2c0.3,0,0.4,0.3,0.4,0.7l-0.9,6.8
				C47.1,47.8,46.9,48,46.7,48z"/>
		</defs>
		<clipPath id="SVGID_4_">
			<use xlink:href="#SVGID_7_"  style="overflow:visible;"/>
		</clipPath>
		<g class="st8">
			<path class="st21" d="M49.6,40h-4.5c0.3,0,0.4,0.3,0.4,0.7l-0.9,6.8c0,0.3-0.2,0.5-0.4,0.5h4.5c0.2,0,0.4-0.2,0.4-0.5l0.9-6.8
				C50,40.3,49.8,40,49.6,40z"/>
		</g>
	</g>
	<g>
		<path class="st2" d="M46.9,41l-0.8,6H1.8l-0.8-6H46.9 M47.6,40H0.4C0.2,40,0,40.3,0,40.7l0.9,6.8c0,0.3,0.2,0.5,0.4,0.5h45.5
			c0.2,0,0.4-0.2,0.4-0.5l0.9-6.8C48,40.3,47.8,40,47.6,40L47.6,40z"/>
	</g>
	<line class="st22" x1="1" y1="42.5" x2="47" y2="42.5"/>
	<path class="st10" d="M34.6,25.2c0,0,0.5-3.7,3.9-4.2"/>
</g>
<g id="salads">
</g>
<g id="desserts">
</g>
<g id="drinks">
</g>
<g id="alcoholic_drinks">
</g>
<g id="dish">
</g>
<g id="logo">
</g>
</svg>
