<?xml version="1.0" encoding="utf-8"?>
<!-- Generator: Adobe Illustrator 19.0.1, SVG Export Plug-In . SVG Version: 6.00 Build 0)  -->
<svg version="1.1" xmlns="http://www.w3.org/2000/svg" xmlns:xlink="http://www.w3.org/1999/xlink" x="0px" y="0px"
	 viewBox="0 0 48 48" style="enable-background:new 0 0 48 48;" xml:space="preserve">
<style type="text/css">
	.st0{fill:#FF7043;stroke:#212121;stroke-linecap:round;stroke-miterlimit:10;}
	.st1{fill:#E0E0E0;}
	.st2{fill:#212121;}
	.st3{fill:#FFCC80;}
	.st4{display:none;}
	.st5{display:inline;}
	.st6{clip-path:url(#SVGID_2_);}
	.st7{fill:#4DB6AC;}
	.st8{clip-path:url(#SVGID_4_);}
	.st9{fill:#26A69A;}
	.st10{fill:none;stroke:#212121;stroke-linecap:round;stroke-miterlimit:10;}
	.st11{fill:#66BB6A;stroke:#212121;stroke-linecap:round;stroke-linejoin:round;stroke-miterlimit:10;}
	.st12{fill:#F44336;}
	.st13{fill:#EEEEEE;}
	.st14{fill:#FFA726;}
	.st15{fill:#FFD54F;}
	.st16{display:inline;fill:#212121;}
	.st17{clip-path:url(#SVGID_6_);}
	.st18{fill:#F5F5F5;}
	.st19{display:inline;fill:#F5F5F5;}
	.st20{clip-path:url(#SVGID_8_);}
	.st21{fill:#DBDBDB;}
	.st22{fill:none;stroke:#212121;stroke-miterlimit:10;}
	.st23{fill:#66BB6A;}
	.st24{fill:#FF8A65;}
	.st25{fill:#EF5350;stroke:#212121;stroke-linecap:round;stroke-linejoin:round;stroke-miterlimit:10;}
	.st26{fill:#B71C1C;}
	.st27{display:inline;fill:#80DEEA;}
	.st28{clip-path:url(#SVGID_10_);}
	.st29{fill:#80DEEA;}
	.st30{fill:#74CAD1;}
	.st31{clip-path:url(#SVGID_12_);}
	.st32{fill:#A5D6A7;}
	.st33{fill:#9BC69B;}
	.st34{fill:#FFB74D;stroke:#212121;stroke-linecap:round;stroke-linejoin:round;stroke-miterlimit:10;}
	.st35{fill:#8D6E63;stroke:#212121;stroke-linecap:round;stroke-linejoin:round;stroke-miterlimit:10;}
	.st36{clip-path:url(#SVGID_14_);fill:#A5D6A7;}
	.st37{fill:none;stroke:#212121;stroke-linecap:round;stroke-linejoin:round;stroke-miterlimit:10;}
	.st38{fill:#FFE0B2;}
	.st39{fill:#FFF3E0;}
	.st40{fill:#FFCA28;stroke:#212121;stroke-linecap:round;stroke-linejoin:round;stroke-miterlimit:10;}
	.st41{fill:#FFD54F;stroke:#212121;stroke-miterlimit:10;}
	.st42{fill:#FFF176;stroke:#212121;stroke-miterlimit:10;}
	.st43{fill:#4FC3F7;stroke:#212121;stroke-miterlimit:10;}
	.st44{clip-path:url(#SVGID_16_);}
	.st45{fill:#4FC3F7;}
	.st46{fill:#29B6F6;}
	.st47{fill:none;stroke:#000000;stroke-miterlimit:10;}
	.st48{fill:#FFE0B2;stroke:#212121;stroke-miterlimit:10;}
	.st49{fill:#FFD9A6;}
	.st50{fill:#D7F0F9;}
	.st51{clip-path:url(#SVGID_18_);fill:#FFD54F;stroke:#212121;stroke-miterlimit:10;}
	.st52{fill:#E57373;}
	.st53{fill:#9CCC65;}
	.st54{fill:#97BA60;}
	.st55{fill:#EBF4F7;}
	.st56{fill:#BDBDBD;}
	.st57{clip-path:url(#SVGID_22_);}
	.st58{clip-path:url(#SVGID_24_);}
	.st59{fill:#C62828;}
	.st60{fill:#AF2525;}
</style>
<g id="soups">
</g>
<g id="main_dishes">
</g>
<g id="salads">
	<path class="st11" d="M21.4,24c0.2,0,0.3,0,0.5,0c0.2-1.5,1.4-2.7,2.8-2.7c0.2,0,0.4,0,0.5,0.1c0.7-2.1,2.3-3.6,4.3-3.6
		c2,0,3.7,1.5,4.3,3.6c0.1,0,0.2,0,0.3,0c1.5,0,2.8,1.5,2.8,3.3c0,0.4-0.1,0.7-0.1,1c0.3,0,0.5-0.1,0.8-0.1c2.6,0,4.7,1.4,4.7,3.2
		c0,1.8-2.1,3.2-4.7,3.2c-1.5,0-2.8-0.5-3.6-1.2c-1.2,0.7-3.1,1.2-5.2,1.2c-1.8,0-3.5-0.4-4.7-0.9c-0.8,0.5-1.7,0.8-2.8,0.8
		c-2.6,0-4.7-1.8-4.7-4S18.8,24,21.4,24z"/>
	<path class="st11" d="M24.3,24.6c-0.1,0-0.3,0-0.4,0c-0.2-1.1-1.2-2-2.4-2c-0.2,0-0.3,0-0.5,0c-0.6-1.5-2-2.6-3.7-2.6
		c-1.7,0-3.2,1.1-3.7,2.6c-0.1,0-0.2,0-0.2,0c-1.3,0-2.4,1.1-2.4,2.4c0,0.3,0.1,0.5,0.1,0.7c-0.2,0-0.5,0-0.7,0c-2.2,0-4,1.1-4,2.4
		c0,1.3,1.8,2.4,4,2.4c1.3,0,2.4-0.4,3.1-0.9c1.1,0.5,2.7,0.9,4.5,0.9c1.6,0,3-0.3,4-0.7c0.7,0.4,1.5,0.6,2.4,0.6c2.2,0,4-1.3,4-2.9
		S26.5,24.6,24.3,24.6z"/>
	<g>
		<g>
			<g>
				<path class="st23" d="M39.6,20.3c-0.2,0-0.4-0.1-0.6-0.2c-0.2-0.2-0.2-0.4-0.2-0.6c0-0.2,0.1-0.4,0.2-0.6l3.9-3.9
					c0.2-0.2,0.4-0.2,0.6-0.2s0.4,0.1,0.6,0.2s0.2,0.4,0.2,0.6s-0.1,0.4-0.2,0.6L40.2,20C40,20.2,39.8,20.3,39.6,20.3z"/>
				<g>
					<path class="st2" d="M43.5,15.1c0.1,0,0.2,0,0.2,0.1c0.1,0.1,0.1,0.2,0.1,0.2c0,0.1,0,0.2-0.1,0.2l-3.9,3.9
						c-0.1,0.1-0.2,0.1-0.2,0.1s-0.2,0-0.2-0.1c-0.1-0.1-0.1-0.4,0-0.5l3.9-3.9C43.3,15.1,43.5,15.1,43.5,15.1 M43.5,14.1
						c-0.3,0-0.7,0.1-0.9,0.4l-3.9,3.9c-0.5,0.5-0.5,1.4,0,1.9c0.3,0.3,0.6,0.4,0.9,0.4c0.3,0,0.7-0.1,0.9-0.4l3.9-3.9
						c0.5-0.5,0.5-1.4,0-1.9v0C44.2,14.3,43.8,14.1,43.5,14.1L43.5,14.1z"/>
				</g>
			</g>
			<g>
				<path class="st23" d="M42.8,20c-0.2,0-0.4-0.1-0.6-0.2c-0.3-0.3-0.3-0.9,0-1.2l3.9-3.9c0.2-0.2,0.4-0.2,0.6-0.2s0.4,0.1,0.6,0.2
					c0.2,0.2,0.2,0.4,0.2,0.6c0,0.2-0.1,0.4-0.2,0.6l-3.9,3.9C43.2,19.9,43,20,42.8,20z"/>
				<g>
					<path class="st2" d="M46.7,14.9c0.1,0,0.2,0,0.2,0.1c0.1,0.1,0.1,0.4,0,0.5L43,19.4c-0.1,0.1-0.2,0.1-0.2,0.1
						c-0.1,0-0.2,0-0.2-0.1c-0.1-0.1-0.1-0.2-0.1-0.2c0-0.1,0-0.2,0.1-0.2l3.9-3.9C46.6,14.9,46.7,14.9,46.7,14.9 M46.7,13.9
						c-0.3,0-0.7,0.1-0.9,0.4l-3.9,3.9c-0.5,0.5-0.5,1.4,0,1.9v0c0.3,0.3,0.6,0.4,0.9,0.4c0.3,0,0.7-0.1,0.9-0.4l3.9-3.9
						c0.5-0.5,0.5-1.4,0-1.9C47.4,14,47.1,13.9,46.7,13.9L46.7,13.9z"/>
				</g>
			</g>
			<g>
				<path class="st23" d="M42.6,23.3c-0.2,0-0.4-0.1-0.6-0.2c-0.3-0.3-0.3-0.9,0-1.2L46,18c0.2-0.2,0.4-0.2,0.6-0.2s0.4,0.1,0.6,0.2
					c0.3,0.3,0.3,0.9,0,1.2l-3.9,3.9C43.1,23.3,42.9,23.3,42.6,23.3z"/>
				<g>
					<path class="st2" d="M46.6,18.2c0.1,0,0.2,0,0.2,0.1c0.1,0.1,0.1,0.2,0.1,0.2c0,0.1,0,0.2-0.1,0.2l-3.9,3.9
						c-0.1,0.1-0.2,0.1-0.2,0.1s-0.2,0-0.2-0.1c-0.1-0.1-0.1-0.4,0-0.5l3.9-3.9C46.4,18.2,46.5,18.2,46.6,18.2 M46.6,17.2
						c-0.3,0-0.7,0.1-0.9,0.4l-3.9,3.9c-0.5,0.5-0.5,1.4,0,1.9v0c0.3,0.3,0.6,0.4,0.9,0.4c0.3,0,0.7-0.1,0.9-0.4l3.9-3.9
						c0.5-0.5,0.5-1.4,0-1.9C47.3,17.3,46.9,17.2,46.6,17.2L46.6,17.2z"/>
				</g>
			</g>
		</g>
		<g>
			<path class="st24" d="M29.1,36.1c-0.9,0-1.7-0.3-2.3-0.9c-1.3-1.3-1.2-3.4,0.2-5l8.9-10.4c0.9-1,2.1-1.6,3.3-1.6
				c0.9,0,1.7,0.3,2.3,0.9l1.5,1.5c0.6,0.6,0.9,1.5,0.9,2.4c0,1.2-0.6,2.3-1.6,3.1L31.9,35C31.1,35.7,30.1,36.1,29.1,36.1z"/>
			<path class="st2" d="M39.2,18.7L39.2,18.7c0.5,0,1.3,0.1,1.9,0.7l1.5,1.5c0.5,0.5,0.8,1.2,0.7,2c0,1-0.6,2-1.4,2.8l-10.4,8.9
				c-0.7,0.6-1.6,0.9-2.4,0.9c-0.7,0-1.4-0.3-1.9-0.7c-1.1-1.1-1-3,0.2-4.3l8.9-10.4C37.1,19.2,38.2,18.7,39.2,18.7 M39.2,17.7
				c-1.3,0-2.7,0.6-3.7,1.8l-8.9,10.4c-1.5,1.8-1.6,4.3-0.2,5.7v0c0.7,0.7,1.6,1,2.6,1c1.1,0,2.2-0.4,3.1-1.2l10.4-8.9
				c2-1.7,2.4-4.6,0.7-6.3l-1.5-1.5C41.1,18,40.2,17.7,39.2,17.7L39.2,17.7z"/>
		</g>
		<g>
			<g>
				<line class="st10" x1="37.3" y1="21.1" x2="38.8" y2="22.5"/>
				<line class="st10" x1="40.2" y1="23.9" x2="40.9" y2="24.6"/>
			</g>
			<g>
				<line class="st10" x1="36.6" y1="28.8" x2="35.2" y2="27.4"/>
				<line class="st10" x1="33.8" y1="26" x2="33.1" y2="25.3"/>
			</g>
			<g>
				<g>
					<line class="st10" x1="36.6" y1="24.6" x2="38.8" y2="26.7"/>
				</g>
				<g>
					<line class="st10" x1="35.2" y1="23.1" x2="35.2" y2="23.1"/>
				</g>
			</g>
			<line class="st10" x1="31.7" y1="28.1" x2="33.8" y2="30.2"/>
		</g>
	</g>
	<g>
		<g>
			<path class="st25" d="M10.7,22.4c-0.3-0.1-0.7,0.1-0.8,0.4c-0.9,3.3,1.3,6.9,5,8.2c3.7,1.4,7.7,0,9.1-3.1c0.2-0.3,0-0.7-0.3-0.8
				L10.7,22.4z"/>
		</g>
		<g>
			<path class="st26" d="M12.1,26.7L12.1,26.7c-0.3-0.1-0.4-0.4-0.3-0.6l0.3-0.9c0.1-0.3,0.4-0.4,0.6-0.3l0,0
				c0.3,0.1,0.4,0.4,0.3,0.6l-0.3,0.9C12.6,26.7,12.3,26.8,12.1,26.7z"/>
			<path class="st26" d="M19.8,29.5L19.8,29.5c-0.3-0.1-0.4-0.4-0.3-0.6l0.3-0.9c0.1-0.3,0.4-0.4,0.6-0.3l0,0
				c0.3,0.1,0.4,0.4,0.3,0.6l-0.3,0.9C20.3,29.5,20,29.6,19.8,29.5z"/>
			<path class="st26" d="M15.6,28.9L15.6,28.9c-0.3-0.1-0.4-0.4-0.3-0.6l0.3-0.9c0.1-0.3,0.4-0.4,0.6-0.3l0,0
				c0.3,0.1,0.4,0.4,0.3,0.6l-0.3,0.9C16.2,28.8,15.9,29,15.6,28.9z"/>
		</g>
	</g>
	<g class="st4">
		<path class="st27" d="M13.8,47.5c-2.6,0-4.9-1.9-5.4-4.4L5.6,29.2c0-0.1,0-0.3,0.1-0.4c0.1-0.1,0.2-0.2,0.4-0.2h35.8
			c0.2,0,0.3,0.1,0.4,0.2c0.1,0.1,0.1,0.3,0.1,0.4l-2.8,13.9c-0.5,2.6-2.8,4.4-5.4,4.4H13.8z"/>
		<g class="st5">
			<path class="st2" d="M41.9,29.1L39.1,43c-0.5,2.3-2.5,4-4.9,4H13.8c-2.4,0-4.4-1.7-4.9-4L6.1,29.1H41.9L41.9,29.1 M41.9,28.1H6.1
				c-0.6,0-1.1,0.6-1,1.2l2.8,13.9c0.6,2.8,3,4.8,5.9,4.8h20.4c2.9,0,5.3-2,5.9-4.8l2.8-13.9C43,28.7,42.6,28.1,41.9,28.1L41.9,28.1
				z"/>
		</g>
	</g>
	<g>
		<g>
			<defs>
				<path id="SVGID_9_" d="M35.3,48.1H12.7c-3.2,0-5.9-2-6.5-4.8L3,29.3c-0.1-0.6,0.4-1.2,1.1-1.2h39.8c0.7,0,1.2,0.6,1.1,1.2
					l-3.1,14C41.2,46,38.5,48.1,35.3,48.1z"/>
			</defs>
			<clipPath id="SVGID_2_">
				<use xlink:href="#SVGID_9_"  style="overflow:visible;"/>
			</clipPath>
			<g class="st6">
				<path class="st29" d="M37.6,48.1H14.9c-3.2,0-5.9-2-6.5-4.8l-3.1-14c-0.1-0.6,0.4-1.2,1.1-1.2h39.8c0.7,0,1.2,0.6,1.1,1.2
					l-3.1,14C43.5,46,40.7,48.1,37.6,48.1z"/>
			</g>
			<g class="st6">
				<path class="st30" d="M45,28h-4.4c0.7,0,1.2,0.6,1.1,1.2l-3.1,13.9C37.9,46,35.2,48,32,48h4.4c3.2,0,5.9-2,6.5-4.8l3.1-14
					C46.2,28.6,45.7,28,45,28z"/>
			</g>
		</g>
		<g>
			<g>
				<path class="st2" d="M43.9,29.1c0.1,0,0.1,0,0.1,0L40.9,43c-0.5,2.4-2.9,4.1-5.6,4.1H12.7c-2.7,0-5-1.7-5.6-4.1L4,29.1
					c0,0,0,0,0.1,0H43.9 M43.9,28.1H4.1c-0.7,0-1.2,0.6-1.1,1.2l3.1,14c0.6,2.8,3.4,4.8,6.5,4.8h22.7c3.2,0,5.9-2,6.5-4.8l3.1-14
					C45.1,28.6,44.6,28.1,43.9,28.1L43.9,28.1z"/>
			</g>
		</g>
		<path class="st10" d="M10.4,38c0,0-0.1,5.1,4.9,7"/>
	</g>
</g>
<g id="desserts">
</g>
<g id="drinks">
</g>
<g id="alcoholic_drinks">
</g>
<g id="dish">
</g>
<g id="logo">
</g>
</svg>
