<?xml version="1.0" encoding="utf-8"?>
<!-- Generator: Adobe Illustrator 19.0.1, SVG Export Plug-In . SVG Version: 6.00 Build 0)  -->
<svg version="1.1" xmlns="http://www.w3.org/2000/svg" xmlns:xlink="http://www.w3.org/1999/xlink" x="0px" y="0px"
	 viewBox="0 0 48 48" style="enable-background:new 0 0 48 48;" xml:space="preserve">
<style type="text/css">
	.st0{fill:#FF7043;stroke:#212121;stroke-linecap:round;stroke-miterlimit:10;}
	.st1{fill:#E0E0E0;}
	.st2{fill:#212121;}
	.st3{fill:#FFCC80;}
	.st4{display:none;}
	.st5{display:inline;}
	.st6{clip-path:url(#SVGID_2_);}
	.st7{fill:#4DB6AC;}
	.st8{clip-path:url(#SVGID_4_);}
	.st9{fill:#26A69A;}
	.st10{fill:none;stroke:#212121;stroke-linecap:round;stroke-miterlimit:10;}
	.st11{fill:#66BB6A;stroke:#212121;stroke-linecap:round;stroke-linejoin:round;stroke-miterlimit:10;}
	.st12{fill:#F44336;}
	.st13{fill:#EEEEEE;}
	.st14{fill:#FFA726;}
	.st15{fill:#FFD54F;}
	.st16{display:inline;fill:#212121;}
	.st17{clip-path:url(#SVGID_6_);}
	.st18{fill:#F5F5F5;}
	.st19{display:inline;fill:#F5F5F5;}
	.st20{clip-path:url(#SVGID_8_);}
	.st21{fill:#DBDBDB;}
	.st22{fill:none;stroke:#212121;stroke-miterlimit:10;}
	.st23{fill:#66BB6A;}
	.st24{fill:#FF8A65;}
	.st25{fill:#EF5350;stroke:#212121;stroke-linecap:round;stroke-linejoin:round;stroke-miterlimit:10;}
	.st26{fill:#B71C1C;}
	.st27{display:inline;fill:#80DEEA;}
	.st28{clip-path:url(#SVGID_10_);}
	.st29{fill:#80DEEA;}
	.st30{fill:#74CAD1;}
	.st31{clip-path:url(#SVGID_12_);}
	.st32{fill:#A5D6A7;}
	.st33{fill:#9BC69B;}
	.st34{fill:#FFB74D;stroke:#212121;stroke-linecap:round;stroke-linejoin:round;stroke-miterlimit:10;}
	.st35{fill:#8D6E63;stroke:#212121;stroke-linecap:round;stroke-linejoin:round;stroke-miterlimit:10;}
	.st36{clip-path:url(#SVGID_14_);fill:#A5D6A7;}
	.st37{fill:none;stroke:#212121;stroke-linecap:round;stroke-linejoin:round;stroke-miterlimit:10;}
	.st38{fill:#FFE0B2;}
	.st39{fill:#FFF3E0;}
	.st40{fill:#FFCA28;stroke:#212121;stroke-linecap:round;stroke-linejoin:round;stroke-miterlimit:10;}
	.st41{fill:#FFD54F;stroke:#212121;stroke-miterlimit:10;}
	.st42{fill:#FFF176;stroke:#212121;stroke-miterlimit:10;}
	.st43{fill:#4FC3F7;stroke:#212121;stroke-miterlimit:10;}
	.st44{clip-path:url(#SVGID_16_);}
	.st45{fill:#4FC3F7;}
	.st46{fill:#29B6F6;}
	.st47{fill:none;stroke:#000000;stroke-miterlimit:10;}
	.st48{fill:#FFE0B2;stroke:#212121;stroke-miterlimit:10;}
	.st49{fill:#FFD9A6;}
	.st50{fill:#D7F0F9;}
	.st51{clip-path:url(#SVGID_18_);fill:#FFD54F;stroke:#212121;stroke-miterlimit:10;}
	.st52{fill:#E57373;}
	.st53{fill:#9CCC65;}
	.st54{fill:#97BA60;}
	.st55{fill:#EBF4F7;}
	.st56{fill:#BDBDBD;}
	.st57{clip-path:url(#SVGID_22_);}
	.st58{clip-path:url(#SVGID_24_);}
	.st59{fill:#C62828;}
	.st60{fill:#AF2525;}
</style>
<g id="soups">
	<g>
		<ellipse class="st0" cx="22.1" cy="25.6" rx="3.6" ry="3.5"/>
		<g>
			<path class="st1" d="M13.1,29.4c-3.5,0-6.4-1.7-6.4-3.8s2.9-3.8,6.4-3.8s6.4,1.7,6.4,3.8S16.6,29.4,13.1,29.4z"/>
			<path class="st2" d="M13.1,22.4c3.2,0,5.9,1.5,5.9,3.3s-2.8,3.3-5.9,3.3s-5.9-1.5-5.9-3.3S10,22.4,13.1,22.4 M13.1,21.4
				c-3.8,0-6.9,1.9-6.9,4.3s3.1,4.3,6.9,4.3s6.9-1.9,6.9-4.3S17,21.4,13.1,21.4L13.1,21.4z"/>
		</g>
		<g>
			<path class="st3" d="M30,29.4l15.8-15.8c0.2-0.2,0.4-0.3,0.7-0.3s0.5,0.1,0.7,0.3c0.4,0.4,0.4,1,0,1.4L31.4,30.8L30,29.4z"/>
			<path class="st2" d="M46.5,13.8c0.1,0,0.2,0,0.4,0.1c0.1,0.1,0.1,0.3,0.1,0.4c0,0.1,0,0.2-0.1,0.4L31.4,30.1l-0.7-0.7l15.5-15.5
				C46.3,13.8,46.4,13.8,46.5,13.8 M46.5,12.8c-0.4,0-0.8,0.1-1.1,0.4L29.3,29.4l2.1,2.1l16.2-16.2c0.6-0.6,0.6-1.5,0-2.1
				C47.3,12.9,46.9,12.8,46.5,12.8L46.5,12.8z"/>
		</g>
		<g>
			<path class="st3" d="M21,32.1l15.8-15.8c0.2-0.2,0.4-0.3,0.7-0.3c0.3,0,0.5,0.1,0.7,0.3c0.4,0.4,0.4,1,0,1.4L22.4,33.5L21,32.1z"
				/>
			<path class="st2" d="M37.5,16.5c0.1,0,0.2,0,0.4,0.1C38,16.8,38,16.9,38,17c0,0.1,0,0.2-0.1,0.4L22.4,32.8l-0.7-0.7l15.5-15.5
				C37.3,16.5,37.4,16.5,37.5,16.5 M37.5,15.5c-0.4,0-0.8,0.1-1.1,0.4L20.3,32.1l2.1,2.1l16.2-16.2c0.6-0.6,0.6-1.5,0-2.1
				C38.3,15.7,37.9,15.5,37.5,15.5L37.5,15.5z"/>
		</g>
		<g class="st4">
			<g class="st5">
				<defs>
					<path id="SVGID_1_" d="M43,25H4.8C4.2,25,4,25,4,25.6v3.2c0,7.8,5,14.3,13,15.7V48h14v-3.5c7-1.4,13-7.9,13-15.7v-3.2
						C44,25,43.5,25,43,25z"/>
				</defs>
				<clipPath id="SVGID_2_">
					<use xlink:href="#SVGID_1_"  style="overflow:visible;"/>
				</clipPath>
				<g class="st6">
					<path class="st7" d="M45.3,25H7.1C6.5,25,6,25,6,25.6v3.2c0,7.8,6,14.3,13,15.7V48h14v-3.5c8-1.4,13-7.9,13-15.7v-3.2
						C46,25,45.9,25,45.3,25z"/>
				</g>
			</g>
			<g class="st5">
				<g>
					<path class="st2" d="M43,25.6v3.2c0,8.3-6.7,15-15,15h-8c-8.3,0-15-6.7-15-15v-3.2H43 M43,24.6H5c-0.6,0-1,0.4-1,1v3.2
						c0,8.8,7.2,16,16,16h8c8.8,0,16-7.2,16-16v-3.2C44,25,43.6,24.6,43,24.6L43,24.6z"/>
				</g>
				<g>
					<path class="st2" d="M30,45v2H18v-2H30 M31,44H17v4h14V44L31,44z"/>
				</g>
			</g>
		</g>
		<g>
			<g>
				<defs>
					<path id="SVGID_3_" d="M43,25H4.8C4.2,25,4,25,4,25.6v3.2c0,7.8,5,14.3,13,15.7V48h14v-3.5c7-1.4,13-7.9,13-15.7v-3.2
						C44,25,43.5,25,43,25z"/>
				</defs>
				<clipPath id="SVGID_4_">
					<use xlink:href="#SVGID_3_"  style="overflow:visible;"/>
				</clipPath>
				<g class="st8">
					<path class="st7" d="M45.3,25H7.1C6.5,25,6,25,6,25.6v3.2c0,7.8,6,14.3,13,15.7V48h14v-3.5c8-1.4,13-7.9,13-15.7v-3.2
						C46,25,45.9,25,45.3,25z"/>
				</g>
			</g>
			<g>
				<g>
					<path class="st2" d="M43,25.6v3.2c0,8.3-6.7,15-15,15h-8c-8.3,0-15-6.7-15-15v-3.2H43 M43,24.6H5c-0.6,0-1,0.4-1,1v3.2
						c0,8.8,7.2,16,16,16h8c8.8,0,16-7.2,16-16v-3.2C44,25,43.6,24.6,43,24.6L43,24.6z"/>
				</g>
				<g>
					<path class="st2" d="M30,45v2H18v-2H30 M31,44H17v4h14V44L31,44z"/>
				</g>
			</g>
		</g>
		<g>
			<path class="st9" d="M42.3,25H41v3.8c0,7.8-5,14.3-13,15.7V48h2v-3.5c8-1.4,13-7.9,13-15.7v-3.2C43,25,42.9,25,42.3,25z"/>
		</g>
		<g>
			<g>
				<path class="st2" d="M43,25.6v3.2c0,8.3-6.7,15-15,15h-8c-8.3,0-15-6.7-15-15v-3.2H43 M43,24.6H5c-0.6,0-1,0.4-1,1v3.2
					c0,8.8,7.2,16,16,16h8c8.8,0,16-7.2,16-16v-3.2C44,25,43.6,24.6,43,24.6L43,24.6z"/>
			</g>
			<g>
				<path class="st2" d="M30,45v2H18v-2H30 M31,44H17v4h14V44L31,44z"/>
			</g>
		</g>
		<path class="st10" d="M9.6,35.3c0,0,2.8,4.7,9.9,5.8"/>
		<g>
			<path class="st2" d="M15.1,15.5c-0.3,0-0.5-0.2-0.5-0.5c0-1.1,0.6-1.7,1.1-2.2c0.4-0.4,0.8-0.8,0.8-1.5c0-0.7-0.3-1.1-0.8-1.5
				c-0.5-0.5-1.1-1.1-1.1-2.2c0-1.1,0.6-1.7,1.1-2.2C16.1,5,16.5,4.7,16.5,4c0-0.3,0.2-0.5,0.5-0.5s0.5,0.2,0.5,0.5
				c0,1.1-0.6,1.7-1.1,2.2c-0.4,0.4-0.8,0.8-0.8,1.5c0,0.7,0.3,1.1,0.8,1.5c0.5,0.5,1.1,1.1,1.1,2.2c0,1.1-0.6,1.7-1.1,2.2
				c-0.4,0.4-0.8,0.8-0.8,1.5C15.5,15.3,15.3,15.5,15.1,15.5z"/>
			<path class="st2" d="M23.1,12.5c-0.3,0-0.5-0.2-0.5-0.5c0-1.1,0.6-1.7,1.1-2.2c0.4-0.4,0.8-0.8,0.8-1.5c0-0.7-0.3-1.1-0.8-1.5
				c-0.5-0.5-1.1-1.1-1.1-2.2c0-1.1,0.6-1.7,1.1-2.2C24.1,2,24.5,1.7,24.5,1c0-0.3,0.2-0.5,0.5-0.5s0.5,0.2,0.5,0.5
				c0,1.1-0.6,1.7-1.1,2.2c-0.4,0.4-0.8,0.8-0.8,1.5c0,0.7,0.3,1.1,0.8,1.5c0.5,0.5,1.1,1.1,1.1,2.2c0,1.1-0.6,1.7-1.1,2.2
				c-0.4,0.4-0.8,0.8-0.8,1.5C23.5,12.3,23.3,12.5,23.1,12.5z"/>
			<path class="st2" d="M31.1,15.5c-0.3,0-0.5-0.2-0.5-0.5c0-1.1,0.6-1.7,1.1-2.2c0.4-0.4,0.8-0.8,0.8-1.5c0-0.7-0.3-1.1-0.8-1.5
				c-0.5-0.5-1.1-1.1-1.1-2.2c0-1.1,0.6-1.7,1.1-2.2C32.1,5,32.5,4.7,32.5,4c0-0.3,0.2-0.5,0.5-0.5s0.5,0.2,0.5,0.5
				c0,1.1-0.6,1.7-1.1,2.2c-0.4,0.4-0.8,0.8-0.8,1.5c0,0.7,0.3,1.1,0.8,1.5c0.5,0.5,1.1,1.1,1.1,2.2c0,1.1-0.6,1.7-1.1,2.2
				c-0.4,0.4-0.8,0.8-0.8,1.5C31.5,15.3,31.3,15.5,31.1,15.5z"/>
		</g>
	</g>
</g>
<g id="main_dishes">
</g>
<g id="salads">
</g>
<g id="desserts">
</g>
<g id="drinks">
</g>
<g id="alcoholic_drinks">
</g>
<g id="dish">
</g>
<g id="logo">
</g>
</svg>
