<?xml version="1.0" encoding="utf-8"?>
<!-- Generator: Adobe Illustrator 19.0.1, SVG Export Plug-In . SVG Version: 6.00 Build 0)  -->
<svg version="1.1" xmlns="http://www.w3.org/2000/svg" xmlns:xlink="http://www.w3.org/1999/xlink" x="0px" y="0px"
	 viewBox="0 0 48 48" style="enable-background:new 0 0 48 48;" xml:space="preserve">
<style type="text/css">
	.st0{fill:#FF7043;stroke:#212121;stroke-linecap:round;stroke-miterlimit:10;}
	.st1{fill:#E0E0E0;}
	.st2{fill:#212121;}
	.st3{fill:#FFCC80;}
	.st4{display:none;}
	.st5{display:inline;}
	.st6{clip-path:url(#SVGID_2_);}
	.st7{fill:#4DB6AC;}
	.st8{clip-path:url(#SVGID_4_);}
	.st9{fill:#26A69A;}
	.st10{fill:none;stroke:#212121;stroke-linecap:round;stroke-miterlimit:10;}
	.st11{fill:#66BB6A;stroke:#212121;stroke-linecap:round;stroke-linejoin:round;stroke-miterlimit:10;}
	.st12{fill:#F44336;}
	.st13{fill:#EEEEEE;}
	.st14{fill:#FFA726;}
	.st15{fill:#FFD54F;}
	.st16{display:inline;fill:#212121;}
	.st17{clip-path:url(#SVGID_6_);}
	.st18{fill:#F5F5F5;}
	.st19{display:inline;fill:#F5F5F5;}
	.st20{clip-path:url(#SVGID_8_);}
	.st21{fill:#DBDBDB;}
	.st22{fill:none;stroke:#212121;stroke-miterlimit:10;}
	.st23{fill:#66BB6A;}
	.st24{fill:#FF8A65;}
	.st25{fill:#EF5350;stroke:#212121;stroke-linecap:round;stroke-linejoin:round;stroke-miterlimit:10;}
	.st26{fill:#B71C1C;}
	.st27{display:inline;fill:#80DEEA;}
	.st28{clip-path:url(#SVGID_10_);}
	.st29{fill:#80DEEA;}
	.st30{fill:#74CAD1;}
	.st31{clip-path:url(#SVGID_12_);}
	.st32{fill:#A5D6A7;}
	.st33{fill:#9BC69B;}
	.st34{fill:#FFB74D;stroke:#212121;stroke-linecap:round;stroke-linejoin:round;stroke-miterlimit:10;}
	.st35{fill:#8D6E63;stroke:#212121;stroke-linecap:round;stroke-linejoin:round;stroke-miterlimit:10;}
	.st36{clip-path:url(#SVGID_14_);fill:#A5D6A7;}
	.st37{fill:none;stroke:#212121;stroke-linecap:round;stroke-linejoin:round;stroke-miterlimit:10;}
	.st38{fill:#FFE0B2;}
	.st39{fill:#FFF3E0;}
	.st40{fill:#FFCA28;stroke:#212121;stroke-linecap:round;stroke-linejoin:round;stroke-miterlimit:10;}
	.st41{fill:#FFD54F;stroke:#212121;stroke-miterlimit:10;}
	.st42{fill:#FFF176;stroke:#212121;stroke-miterlimit:10;}
	.st43{fill:#4FC3F7;stroke:#212121;stroke-miterlimit:10;}
	.st44{clip-path:url(#SVGID_16_);}
	.st45{fill:#4FC3F7;}
	.st46{fill:#29B6F6;}
	.st47{fill:none;stroke:#000000;stroke-miterlimit:10;}
	.st48{fill:#FFE0B2;stroke:#212121;stroke-miterlimit:10;}
	.st49{fill:#FFD9A6;}
	.st50{fill:#D7F0F9;}
	.st51{clip-path:url(#SVGID_18_);fill:#FFD54F;stroke:#212121;stroke-miterlimit:10;}
	.st52{fill:#E57373;}
	.st53{fill:#9CCC65;}
	.st54{fill:#97BA60;}
	.st55{fill:#EBF4F7;}
	.st56{fill:#BDBDBD;}
	.st57{clip-path:url(#SVGID_22_);}
	.st58{clip-path:url(#SVGID_24_);}
	.st59{fill:#C62828;}
	.st60{fill:#AF2525;}
</style>
<g id="soups">
	<g>
		<ellipse class="st0" cx="-181.9" cy="-42.4" rx="3.6" ry="3.5"/>
		<g>
			<path class="st1" d="M-190.9-38.6c-3.5,0-6.4-1.7-6.4-3.8s2.9-3.8,6.4-3.8s6.4,1.7,6.4,3.8S-187.4-38.6-190.9-38.6z"/>
			<path class="st2" d="M-190.9-45.6c3.2,0,5.9,1.5,5.9,3.3s-2.8,3.3-5.9,3.3s-5.9-1.5-5.9-3.3S-194-45.6-190.9-45.6 M-190.9-46.6
				c-3.8,0-6.9,1.9-6.9,4.3s3.1,4.3,6.9,4.3s6.9-1.9,6.9-4.3S-187-46.6-190.9-46.6L-190.9-46.6z"/>
		</g>
		<g>
			<path class="st3" d="M-174-38.6l15.8-15.8c0.2-0.2,0.4-0.3,0.7-0.3s0.5,0.1,0.7,0.3c0.4,0.4,0.4,1,0,1.4l-15.8,15.8L-174-38.6z"
				/>
			<path class="st2" d="M-157.5-54.2c0.1,0,0.2,0,0.4,0.1c0.1,0.1,0.1,0.3,0.1,0.4s0,0.2-0.1,0.4l-15.5,15.5l-0.7-0.7l15.5-15.5
				C-157.7-54.2-157.6-54.2-157.5-54.2 M-157.5-55.2c-0.4,0-0.8,0.1-1.1,0.4l-16.2,16.2l2.1,2.1l16.2-16.2c0.6-0.6,0.6-1.5,0-2.1
				C-156.7-55.1-157.1-55.2-157.5-55.2L-157.5-55.2z"/>
		</g>
		<g>
			<path class="st3" d="M-183-35.9l15.8-15.8c0.2-0.2,0.4-0.3,0.7-0.3c0.3,0,0.5,0.1,0.7,0.3c0.4,0.4,0.4,1,0,1.4l-15.8,15.8
				L-183-35.9z"/>
			<path class="st2" d="M-166.5-51.5c0.1,0,0.2,0,0.4,0.1c0.1,0.1,0.1,0.3,0.1,0.4s0,0.2-0.1,0.4l-15.5,15.5l-0.7-0.7l15.5-15.5
				C-166.7-51.5-166.6-51.5-166.5-51.5 M-166.5-52.5c-0.4,0-0.8,0.1-1.1,0.4l-16.2,16.2l2.1,2.1l16.2-16.2c0.6-0.6,0.6-1.5,0-2.1
				C-165.7-52.3-166.1-52.5-166.5-52.5L-166.5-52.5z"/>
		</g>
		<g class="st4">
			<g class="st5">
				<defs>
					<path id="SVGID_1_" d="M-161-43h-38.2c-0.6,0-0.8,0-0.8,0.6v3.2c0,7.8,5,14.3,13,15.7v3.5h14v-3.5c7-1.4,13-7.9,13-15.7v-3.2
						C-160-43-160.5-43-161-43z"/>
				</defs>
				<clipPath id="SVGID_2_">
					<use xlink:href="#SVGID_1_"  style="overflow:visible;"/>
				</clipPath>
				<g class="st6">
					<path class="st7" d="M-158.7-43h-38.2c-0.6,0-1.1,0-1.1,0.6v3.2c0,7.8,6,14.3,13,15.7v3.5h14v-3.5c8-1.4,13-7.9,13-15.7v-3.2
						C-158-43-158.1-43-158.7-43z"/>
				</g>
			</g>
			<g class="st5">
				<g>
					<path class="st2" d="M-161-42.4v3.2c0,8.3-6.7,15-15,15h-8c-8.3,0-15-6.7-15-15v-3.2H-161 M-161-43.4h-38c-0.6,0-1,0.4-1,1v3.2
						c0,8.8,7.2,16,16,16h8c8.8,0,16-7.2,16-16v-3.2C-160-43-160.4-43.4-161-43.4L-161-43.4z"/>
				</g>
				<g>
					<path class="st2" d="M-174-23v2h-12v-2H-174 M-173-24h-14v4h14V-24L-173-24z"/>
				</g>
			</g>
		</g>
		<g>
			<g>
				<defs>
					<path id="SVGID_3_" d="M-161-43h-38.2c-0.6,0-0.8,0-0.8,0.6v3.2c0,7.8,5,14.3,13,15.7v3.5h14v-3.5c7-1.4,13-7.9,13-15.7v-3.2
						C-160-43-160.5-43-161-43z"/>
				</defs>
				<clipPath id="SVGID_4_">
					<use xlink:href="#SVGID_3_"  style="overflow:visible;"/>
				</clipPath>
				<g class="st8">
					<path class="st7" d="M-158.7-43h-38.2c-0.6,0-1.1,0-1.1,0.6v3.2c0,7.8,6,14.3,13,15.7v3.5h14v-3.5c8-1.4,13-7.9,13-15.7v-3.2
						C-158-43-158.1-43-158.7-43z"/>
				</g>
			</g>
			<g>
				<g>
					<path class="st2" d="M-161-42.4v3.2c0,8.3-6.7,15-15,15h-8c-8.3,0-15-6.7-15-15v-3.2H-161 M-161-43.4h-38c-0.6,0-1,0.4-1,1v3.2
						c0,8.8,7.2,16,16,16h8c8.8,0,16-7.2,16-16v-3.2C-160-43-160.4-43.4-161-43.4L-161-43.4z"/>
				</g>
				<g>
					<path class="st2" d="M-174-23v2h-12v-2H-174 M-173-24h-14v4h14V-24L-173-24z"/>
				</g>
			</g>
		</g>
		<g>
			<path class="st9" d="M-161.7-43h-1.3v3.8c0,7.8-5,14.3-13,15.7v3.5h2v-3.5c8-1.4,13-7.9,13-15.7v-3.2C-161-43-161.1-43-161.7-43z
				"/>
		</g>
		<g>
			<g>
				<path class="st2" d="M-161-42.4v3.2c0,8.3-6.7,15-15,15h-8c-8.3,0-15-6.7-15-15v-3.2H-161 M-161-43.4h-38c-0.6,0-1,0.4-1,1v3.2
					c0,8.8,7.2,16,16,16h8c8.8,0,16-7.2,16-16v-3.2C-160-43-160.4-43.4-161-43.4L-161-43.4z"/>
			</g>
			<g>
				<path class="st2" d="M-174-23v2h-12v-2H-174 M-173-24h-14v4h14V-24L-173-24z"/>
			</g>
		</g>
		<path class="st10" d="M-194.4-32.8c0,0,2.8,4.7,9.9,5.8"/>
		<g>
			<path class="st2" d="M-188.9-52.5c-0.3,0-0.5-0.2-0.5-0.5c0-1.1,0.6-1.7,1.1-2.2c0.4-0.4,0.8-0.8,0.8-1.5c0-0.7-0.3-1.1-0.8-1.5
				c-0.5-0.5-1.1-1.1-1.1-2.2c0-1.1,0.6-1.7,1.1-2.2c0.4-0.4,0.8-0.8,0.8-1.5c0-0.3,0.2-0.5,0.5-0.5c0.3,0,0.5,0.2,0.5,0.5
				c0,1.1-0.6,1.7-1.1,2.2c-0.4,0.4-0.8,0.8-0.8,1.5c0,0.7,0.3,1.1,0.8,1.5c0.5,0.5,1.1,1.1,1.1,2.2c0,1.1-0.6,1.7-1.1,2.2
				c-0.4,0.4-0.8,0.8-0.8,1.5C-188.5-52.7-188.7-52.5-188.9-52.5z"/>
			<path class="st2" d="M-180.9-55.5c-0.3,0-0.5-0.2-0.5-0.5c0-1.1,0.6-1.7,1.1-2.2c0.4-0.4,0.8-0.8,0.8-1.5c0-0.7-0.3-1.1-0.8-1.5
				c-0.5-0.5-1.1-1.1-1.1-2.2c0-1.1,0.6-1.7,1.1-2.2c0.4-0.4,0.8-0.8,0.8-1.5c0-0.3,0.2-0.5,0.5-0.5c0.3,0,0.5,0.2,0.5,0.5
				c0,1.1-0.6,1.7-1.1,2.2c-0.4,0.4-0.8,0.8-0.8,1.5c0,0.7,0.3,1.1,0.8,1.5c0.5,0.5,1.1,1.1,1.1,2.2c0,1.1-0.6,1.7-1.1,2.2
				c-0.4,0.4-0.8,0.8-0.8,1.5C-180.5-55.7-180.7-55.5-180.9-55.5z"/>
			<path class="st2" d="M-172.9-52.5c-0.3,0-0.5-0.2-0.5-0.5c0-1.1,0.6-1.7,1.1-2.2c0.4-0.4,0.8-0.8,0.8-1.5c0-0.7-0.3-1.1-0.8-1.5
				c-0.5-0.5-1.1-1.1-1.1-2.2c0-1.1,0.6-1.7,1.1-2.2c0.4-0.4,0.8-0.8,0.8-1.5c0-0.3,0.2-0.5,0.5-0.5c0.3,0,0.5,0.2,0.5,0.5
				c0,1.1-0.6,1.7-1.1,2.2c-0.4,0.4-0.8,0.8-0.8,1.5c0,0.7,0.3,1.1,0.8,1.5c0.5,0.5,1.1,1.1,1.1,2.2c0,1.1-0.6,1.7-1.1,2.2
				c-0.4,0.4-0.8,0.8-0.8,1.5C-172.5-52.7-172.7-52.5-172.9-52.5z"/>
		</g>
	</g>
</g>
<g id="main_dishes">
	<g>
		<g>
			<polygon class="st11" points="-124.7,-44.1 -127.4,-47.6 -122.4,-44.5 			"/>
			<polygon class="st11" points="-120.4,-44.1 -117.6,-47.6 -122.6,-44.5 			"/>
			<polygon class="st11" points="-123.1,-44.4 -121.9,-48.5 -121.2,-44.5 			"/>
		</g>
		<g>
			<path class="st12" d="M-122.5-32.1c-3.4,0-6.2-2.8-6.2-6.2s2.8-6.2,6.2-6.2c3.4,0,6.2,2.8,6.2,6.2S-119.1-32.1-122.5-32.1z"/>
			<path class="st2" d="M-122.5-44c3.1,0,5.7,2.6,5.7,5.7c0,3.1-2.6,5.7-5.7,5.7s-5.7-2.6-5.7-5.7C-128.2-41.5-125.7-44-122.5-44
				 M-122.5-45c-3.7,0-6.7,3-6.7,6.7s3,6.7,6.7,6.7c3.7,0,6.7-3,6.7-6.7S-118.8-45-122.5-45L-122.5-45z"/>
		</g>
		<g>
			<g>
				<g>
					<path class="st13" d="M-99-45v-12.8c0-0.2-0.2-0.5-0.4-0.5c-0.5-0.1-0.9-0.4-1.2-0.8c-0.2-0.4-0.3-0.8-0.2-1.3
						c0.1-0.6,0.7-1.1,1.3-1.2c0.1,0,0.2,0,0.3,0c0.5,0,1,0.2,1.3,0.6c0.1,0.1,0.2,0.2,0.4,0.2s0.3-0.1,0.4-0.2
						c0.3-0.4,0.8-0.6,1.3-0.6c0.1,0,0.2,0,0.3,0c0.7,0.1,1.2,0.6,1.3,1.2c0.1,0.4,0,0.9-0.2,1.3c-0.3,0.4-0.7,0.7-1.2,0.8
						c-0.2,0-0.4,0.2-0.4,0.5V-45H-99z"/>
					<path class="st2" d="M-95.9-61.1c0.1,0,0.1,0,0.2,0c0.4,0.1,0.8,0.4,0.9,0.9c0.1,0.4,0,0.7-0.2,0.9c-0.2,0.3-0.7,0.5-1.1,0.5
						c-0.5,0.1-1.1,0.5-1.1,1V-45h0h-1.1H-99v-12.8c0-0.5-0.1-0.9-0.6-1c-0.4-0.1-0.6-0.3-0.7-0.5c-0.1-0.2-0.2-0.5-0.1-0.9
						c0.1-0.4,0.5-0.8,1-0.9c0.1,0,0.2,0,0.2,0c0.3,0,0.7,0.2,0.9,0.4c0.2,0.2,0.5,0.4,0.8,0.4s0.6-0.1,0.8-0.4
						C-96.5-61-96.2-61.1-95.9-61.1 M-95.9-62.1c-0.7,0-1.3,0.3-1.7,0.8c-0.4-0.5-1-0.8-1.7-0.8c-0.1,0-0.3,0-0.4,0c0,0,0,0,0,0
						c-0.8,0.2-1.7,0.8-1.9,1.6c-0.3,1.3,0.6,2.4,1.6,2.6V-44h1.9h1.1h1v-13.8c2-0.2,2.3-1.3,2-2.6c-0.2-0.8-0.8-1.4-1.6-1.6
						c0,0,0,0,0,0C-95.7-62.1-95.7-62.1-95.9-62.1L-95.9-62.1z"/>
				</g>
				<g>
					<path class="st14" d="M-100.3-26.3c-1.5,0-2.8-0.6-3.8-1.7c-0.9-1-1.2-2.4-1-3.7l2.3-13.2c0.4-2.2,2.4-3.9,4.8-3.9
						c2.4,0,4.4,1.6,4.8,3.9l2.3,13.2c0.2,1.3-0.1,2.6-1,3.7c-0.9,1.1-2.3,1.7-3.8,1.7H-100.3z"/>
					<path class="st2" d="M-98-48.2c2.1,0,3.9,1.4,4.3,3.4l2.3,13.2c0.2,1.2-0.1,2.3-0.9,3.3c-0.8,1-2.1,1.6-3.4,1.6H-98h-2.3
						c-1.3,0-2.6-0.6-3.4-1.6c-0.8-0.9-1.1-2.1-0.9-3.3l2.3-13.2C-101.9-46.8-100.1-48.2-98-48.2 M-98-49.2L-98-49.2
						c-2.6,0-4.8,1.8-5.3,4.3l-2.3,13.2c-0.5,3.1,2,6,5.3,6h2.3h2.3c3.3,0,5.8-2.9,5.3-6l-2.3-13.2C-93.2-47.4-95.4-49.2-98-49.2
						L-98-49.2z"/>
				</g>
			</g>
			<g>
				<g>
					<g>
						<g>
							<path class="st15" d="M-128-23.6c-3,0-5.5-2.5-5.5-5.5s2.5-5.5,5.5-5.5c3,0,5.5,2.5,5.5,5.5S-125-23.6-128-23.6z"/>
							<path class="st2" d="M-128-34.4c2.9,0,5.2,2.4,5.2,5.2c0,2.9-2.4,5.2-5.2,5.2c-2.9,0-5.2-2.4-5.2-5.2
								C-133.3-32-130.9-34.4-128-34.4 M-128-34.9c-3.2,0-5.7,2.6-5.7,5.7c0,3.2,2.6,5.7,5.7,5.7c3.2,0,5.7-2.6,5.7-5.7
								C-122.3-32.3-124.8-34.9-128-34.9L-128-34.9z"/>
						</g>
						<g>
							<path class="st15" d="M-128-23.9c-2.9,0-5.2-2.4-5.2-5.2s2.4-5.2,5.2-5.2c2.9,0,5.2,2.4,5.2,5.2S-125.1-23.9-128-23.9z"/>
							<path class="st2" d="M-128-33.9c2.6,0,4.7,2.1,4.7,4.7s-2.1,4.7-4.7,4.7c-2.6,0-4.7-2.1-4.7-4.7S-130.6-33.9-128-33.9
								 M-128-34.9c-3.2,0-5.7,2.6-5.7,5.7c0,3.2,2.6,5.7,5.7,5.7c3.2,0,5.7-2.6,5.7-5.7C-122.3-32.3-124.8-34.9-128-34.9L-128-34.9
								z"/>
						</g>
						<g>
							<path class="st15" d="M-128-25.8c-1.8,0-3.3-1.5-3.3-3.3s1.5-3.3,3.3-3.3s3.3,1.5,3.3,3.3S-126.2-25.8-128-25.8z"/>
							<path class="st2" d="M-128-31.9c1.6,0,2.8,1.3,2.8,2.8s-1.3,2.8-2.8,2.8c-1.6,0-2.8-1.3-2.8-2.8S-129.6-31.9-128-31.9
								 M-128-32.9c-2.1,0-3.8,1.7-3.8,3.8s1.7,3.8,3.8,3.8c2.1,0,3.8-1.7,3.8-3.8S-125.9-32.9-128-32.9L-128-32.9z"/>
						</g>
						<g>
							<circle class="st15" cx="-128" cy="-29.1" r="1.4"/>
							<path class="st2" d="M-128-30c0.5,0,0.9,0.4,0.9,0.9c0,0.5-0.4,0.9-0.9,0.9c-0.5,0-0.9-0.4-0.9-0.9
								C-128.9-29.6-128.5-30-128-30 M-128-31c-1.1,0-1.9,0.9-1.9,1.9s0.9,1.9,1.9,1.9c1.1,0,1.9-0.9,1.9-1.9S-127-31-128-31
								L-128-31z"/>
						</g>
					</g>
					<g>
						<g>
							<path class="st15" d="M-112.7-23.6c-3,0-5.5-2.5-5.5-5.5s2.5-5.5,5.5-5.5s5.5,2.5,5.5,5.5S-109.7-23.6-112.7-23.6z"/>
							<path class="st2" d="M-112.7-34.4c2.9,0,5.2,2.4,5.2,5.2c0,2.9-2.4,5.2-5.2,5.2s-5.2-2.4-5.2-5.2
								C-118-32-115.6-34.4-112.7-34.4 M-112.7-34.9c-3.2,0-5.7,2.6-5.7,5.7c0,3.2,2.6,5.7,5.7,5.7s5.7-2.6,5.7-5.7
								C-107-32.3-109.5-34.9-112.7-34.9L-112.7-34.9z"/>
						</g>
						<g>
							<path class="st15" d="M-112.7-23.9c-2.9,0-5.2-2.4-5.2-5.2s2.4-5.2,5.2-5.2s5.2,2.4,5.2,5.2S-109.8-23.9-112.7-23.9z"/>
							<path class="st2" d="M-112.7-33.9c2.6,0,4.7,2.1,4.7,4.7s-2.1,4.7-4.7,4.7s-4.7-2.1-4.7-4.7S-115.3-33.9-112.7-33.9
								 M-112.7-34.9c-3.2,0-5.7,2.6-5.7,5.7c0,3.2,2.6,5.7,5.7,5.7s5.7-2.6,5.7-5.7C-107-32.3-109.5-34.9-112.7-34.9L-112.7-34.9z"
								/>
						</g>
						<g>
							<path class="st15" d="M-112.7-25.8c-1.8,0-3.3-1.5-3.3-3.3s1.5-3.3,3.3-3.3s3.3,1.5,3.3,3.3S-110.9-25.8-112.7-25.8z"/>
							<path class="st2" d="M-112.7-31.9c1.6,0,2.8,1.3,2.8,2.8s-1.3,2.8-2.8,2.8c-1.6,0-2.8-1.3-2.8-2.8S-114.3-31.9-112.7-31.9
								 M-112.7-32.9c-2.1,0-3.8,1.7-3.8,3.8s1.7,3.8,3.8,3.8s3.8-1.7,3.8-3.8S-110.6-32.9-112.7-32.9L-112.7-32.9z"/>
						</g>
						<g>
							<circle class="st15" cx="-112.7" cy="-29.1" r="1.4"/>
							<path class="st2" d="M-112.7-30c0.5,0,0.9,0.4,0.9,0.9c0,0.5-0.4,0.9-0.9,0.9s-0.9-0.4-0.9-0.9
								C-113.6-29.6-113.2-30-112.7-30 M-112.7-31c-1.1,0-1.9,0.9-1.9,1.9s0.9,1.9,1.9,1.9c1.1,0,1.9-0.9,1.9-1.9
								S-111.6-31-112.7-31L-112.7-31z"/>
						</g>
					</g>
					<g>
						<g>
							<path class="st15" d="M-120.4-27.5c-3,0-5.5-2.5-5.5-5.5c0-3,2.5-5.5,5.5-5.5c3,0,5.5,2.5,5.5,5.5
								C-114.9-29.9-117.3-27.5-120.4-27.5z"/>
							<path class="st2" d="M-120.4-38.2c2.9,0,5.2,2.4,5.2,5.2s-2.4,5.2-5.2,5.2s-5.2-2.4-5.2-5.2S-123.3-38.2-120.4-38.2
								 M-120.4-38.7c-3.2,0-5.7,2.6-5.7,5.7s2.6,5.7,5.7,5.7s5.7-2.6,5.7-5.7S-117.2-38.7-120.4-38.7L-120.4-38.7z"/>
						</g>
						<g>
							<path class="st15" d="M-120.4-27.7c-2.9,0-5.2-2.4-5.2-5.2c0-2.9,2.4-5.2,5.2-5.2c2.9,0,5.2,2.4,5.2,5.2
								C-115.1-30.1-117.5-27.7-120.4-27.7z"/>
							<path class="st2" d="M-120.4-37.7c2.6,0,4.7,2.1,4.7,4.7s-2.1,4.7-4.7,4.7s-4.7-2.1-4.7-4.7S-123-37.7-120.4-37.7
								 M-120.4-38.7c-3.2,0-5.7,2.6-5.7,5.7s2.6,5.7,5.7,5.7s5.7-2.6,5.7-5.7S-117.2-38.7-120.4-38.7L-120.4-38.7z"/>
						</g>
						<g>
							<path class="st15" d="M-120.4-29.6c-1.8,0-3.3-1.5-3.3-3.3s1.5-3.3,3.3-3.3s3.3,1.5,3.3,3.3S-118.5-29.6-120.4-29.6z"/>
							<path class="st2" d="M-120.4-35.8c1.6,0,2.8,1.3,2.8,2.8s-1.3,2.8-2.8,2.8s-2.8-1.3-2.8-2.8S-121.9-35.8-120.4-35.8
								 M-120.4-36.8c-2.1,0-3.8,1.7-3.8,3.8s1.7,3.8,3.8,3.8s3.8-1.7,3.8-3.8S-118.2-36.8-120.4-36.8L-120.4-36.8z"/>
						</g>
						<g>
							<circle class="st15" cx="-120.4" cy="-32.9" r="1.4"/>
							<path class="st2" d="M-120.4-33.9c0.5,0,0.9,0.4,0.9,0.9c0,0.5-0.4,0.9-0.9,0.9c-0.5,0-0.9-0.4-0.9-0.9
								C-121.3-33.4-120.9-33.9-120.4-33.9 M-120.4-34.9c-1.1,0-1.9,0.9-1.9,1.9s0.9,1.9,1.9,1.9c1.1,0,1.9-0.9,1.9-1.9
								S-119.3-34.9-120.4-34.9L-120.4-34.9z"/>
						</g>
					</g>
				</g>
				<g>
					<g>
						<g>
							<path class="st15" d="M-110.8-23.6c-3,0-5.5-2.5-5.5-5.5s2.5-5.5,5.5-5.5s5.5,2.5,5.5,5.5S-107.8-23.6-110.8-23.6z"/>
							<path class="st2" d="M-110.8-34.4c2.9,0,5.2,2.4,5.2,5.2c0,2.9-2.4,5.2-5.2,5.2s-5.2-2.4-5.2-5.2
								C-116-32-113.7-34.4-110.8-34.4 M-110.8-34.9c-3.2,0-5.7,2.6-5.7,5.7c0,3.2,2.6,5.7,5.7,5.7s5.7-2.6,5.7-5.7
								C-105.1-32.3-107.6-34.9-110.8-34.9L-110.8-34.9z"/>
						</g>
						<g>
							<path class="st15" d="M-110.8-23.9c-2.9,0-5.2-2.4-5.2-5.2s2.4-5.2,5.2-5.2s5.2,2.4,5.2,5.2S-107.9-23.9-110.8-23.9z"/>
							<path class="st2" d="M-110.8-33.9c2.6,0,4.7,2.1,4.7,4.7s-2.1,4.7-4.7,4.7s-4.7-2.1-4.7-4.7S-113.4-33.9-110.8-33.9
								 M-110.8-34.9c-3.2,0-5.7,2.6-5.7,5.7c0,3.2,2.6,5.7,5.7,5.7s5.7-2.6,5.7-5.7C-105.1-32.3-107.6-34.9-110.8-34.9L-110.8-34.9
								z"/>
						</g>
						<g>
							<path class="st15" d="M-110.8-25.8c-1.8,0-3.3-1.5-3.3-3.3s1.5-3.3,3.3-3.3s3.3,1.5,3.3,3.3S-109-25.8-110.8-25.8z"/>
							<path class="st2" d="M-110.8-31.9c1.6,0,2.8,1.3,2.8,2.8s-1.3,2.8-2.8,2.8c-1.6,0-2.8-1.3-2.8-2.8S-112.4-31.9-110.8-31.9
								 M-110.8-32.9c-2.1,0-3.8,1.7-3.8,3.8s1.7,3.8,3.8,3.8s3.8-1.7,3.8-3.8S-108.7-32.9-110.8-32.9L-110.8-32.9z"/>
						</g>
						<g>
							<circle class="st15" cx="-110.8" cy="-29.1" r="1.4"/>
							<path class="st2" d="M-110.8-30c0.5,0,0.9,0.4,0.9,0.9c0,0.5-0.4,0.9-0.9,0.9s-0.9-0.4-0.9-0.9
								C-111.7-29.6-111.3-30-110.8-30 M-110.8-31c-1.1,0-1.9,0.9-1.9,1.9s0.9,1.9,1.9,1.9c1.1,0,1.9-0.9,1.9-1.9
								S-109.7-31-110.8-31L-110.8-31z"/>
						</g>
					</g>
					<g>
						<g>
							<path class="st15" d="M-95.5-23.6c-3,0-5.5-2.5-5.5-5.5s2.5-5.5,5.5-5.5c3,0,5.5,2.5,5.5,5.5S-92.5-23.6-95.5-23.6z"/>
							<path class="st2" d="M-95.5-34.4c2.9,0,5.2,2.4,5.2,5.2c0,2.9-2.4,5.2-5.2,5.2s-5.2-2.4-5.2-5.2
								C-100.7-32-98.4-34.4-95.5-34.4 M-95.5-34.9c-3.2,0-5.7,2.6-5.7,5.7c0,3.2,2.6,5.7,5.7,5.7c3.2,0,5.7-2.6,5.7-5.7
								C-89.8-32.3-92.3-34.9-95.5-34.9L-95.5-34.9z"/>
						</g>
						<g>
							<path class="st15" d="M-95.5-23.9c-2.9,0-5.2-2.4-5.2-5.2s2.4-5.2,5.2-5.2c2.9,0,5.2,2.4,5.2,5.2S-92.6-23.9-95.5-23.9z"/>
							<path class="st2" d="M-95.5-33.9c2.6,0,4.7,2.1,4.7,4.7s-2.1,4.7-4.7,4.7s-4.7-2.1-4.7-4.7S-98.1-33.9-95.5-33.9 M-95.5-34.9
								c-3.2,0-5.7,2.6-5.7,5.7c0,3.2,2.6,5.7,5.7,5.7c3.2,0,5.7-2.6,5.7-5.7C-89.8-32.3-92.3-34.9-95.5-34.9L-95.5-34.9z"/>
						</g>
						<g>
							<path class="st15" d="M-95.5-25.8c-1.8,0-3.3-1.5-3.3-3.3s1.5-3.3,3.3-3.3s3.3,1.5,3.3,3.3S-93.7-25.8-95.5-25.8z"/>
							<path class="st2" d="M-95.5-31.9c1.6,0,2.8,1.3,2.8,2.8s-1.3,2.8-2.8,2.8c-1.6,0-2.8-1.3-2.8-2.8S-97-31.9-95.5-31.9
								 M-95.5-32.9c-2.1,0-3.8,1.7-3.8,3.8s1.7,3.8,3.8,3.8c2.1,0,3.8-1.7,3.8-3.8S-93.4-32.9-95.5-32.9L-95.5-32.9z"/>
						</g>
						<g>
							<circle class="st15" cx="-95.5" cy="-29.1" r="1.4"/>
							<path class="st2" d="M-95.5-30c0.5,0,0.9,0.4,0.9,0.9c0,0.5-0.4,0.9-0.9,0.9s-0.9-0.4-0.9-0.9C-96.4-29.6-96-30-95.5-30
								 M-95.5-31c-1.1,0-1.9,0.9-1.9,1.9s0.9,1.9,1.9,1.9c1.1,0,1.9-0.9,1.9-1.9S-94.4-31-95.5-31L-95.5-31z"/>
						</g>
					</g>
					<g>
						<g>
							<path class="st15" d="M-103.1-27.5c-3,0-5.5-2.5-5.5-5.5c0-3,2.5-5.5,5.5-5.5c3,0,5.5,2.5,5.5,5.5
								C-97.6-29.9-100.1-27.5-103.1-27.5z"/>
							<path class="st2" d="M-103.1-38.2c2.9,0,5.2,2.4,5.2,5.2s-2.4,5.2-5.2,5.2s-5.2-2.4-5.2-5.2S-106-38.2-103.1-38.2
								 M-103.1-38.7c-3.2,0-5.7,2.6-5.7,5.7s2.6,5.7,5.7,5.7s5.7-2.6,5.7-5.7S-100-38.7-103.1-38.7L-103.1-38.7z"/>
						</g>
						<g>
							<path class="st15" d="M-103.1-27.7c-2.9,0-5.2-2.4-5.2-5.2c0-2.9,2.4-5.2,5.2-5.2c2.9,0,5.2,2.4,5.2,5.2
								C-97.9-30.1-100.3-27.7-103.1-27.7z"/>
							<path class="st2" d="M-103.1-37.7c2.6,0,4.7,2.1,4.7,4.7s-2.1,4.7-4.7,4.7s-4.7-2.1-4.7-4.7S-105.8-37.7-103.1-37.7
								 M-103.1-38.7c-3.2,0-5.7,2.6-5.7,5.7s2.6,5.7,5.7,5.7s5.7-2.6,5.7-5.7S-100-38.7-103.1-38.7L-103.1-38.7z"/>
						</g>
						<g>
							<path class="st15" d="M-103.1-29.6c-1.8,0-3.3-1.5-3.3-3.3s1.5-3.3,3.3-3.3s3.3,1.5,3.3,3.3S-101.3-29.6-103.1-29.6z"/>
							<path class="st2" d="M-103.1-35.8c1.6,0,2.8,1.3,2.8,2.8s-1.3,2.8-2.8,2.8s-2.8-1.3-2.8-2.8S-104.7-35.8-103.1-35.8
								 M-103.1-36.8c-2.1,0-3.8,1.7-3.8,3.8s1.7,3.8,3.8,3.8s3.8-1.7,3.8-3.8S-101-36.8-103.1-36.8L-103.1-36.8z"/>
						</g>
						<g>
							<circle class="st15" cx="-103.1" cy="-32.9" r="1.4"/>
							<path class="st2" d="M-103.1-33.9c0.5,0,0.9,0.4,0.9,0.9c0,0.5-0.4,0.9-0.9,0.9c-0.5,0-0.9-0.4-0.9-0.9
								C-104.1-33.4-103.6-33.9-103.1-33.9 M-103.1-34.9c-1.1,0-1.9,0.9-1.9,1.9s0.9,1.9,1.9,1.9c1.1,0,1.9-0.9,1.9-1.9
								S-102.1-34.9-103.1-34.9L-103.1-34.9z"/>
						</g>
					</g>
				</g>
				<g>
					<g>
						<g>
							<path class="st15" d="M-111.8-31.3c-3,0-5.5-2.5-5.5-5.5c0-3,2.5-5.5,5.5-5.5s5.5,2.5,5.5,5.5
								C-106.3-33.7-108.7-31.3-111.8-31.3z"/>
							<path class="st2" d="M-111.8-42c2.9,0,5.2,2.4,5.2,5.2c0,2.9-2.4,5.2-5.2,5.2s-5.2-2.4-5.2-5.2C-117-39.7-114.6-42-111.8-42
								 M-111.8-42.5c-3.2,0-5.7,2.6-5.7,5.7s2.6,5.7,5.7,5.7s5.7-2.6,5.7-5.7S-108.6-42.5-111.8-42.5L-111.8-42.5z"/>
						</g>
						<g>
							<path class="st15" d="M-111.8-31.5c-2.9,0-5.2-2.4-5.2-5.2c0-2.9,2.4-5.2,5.2-5.2s5.2,2.4,5.2,5.2
								C-106.5-33.9-108.9-31.5-111.8-31.5z"/>
							<path class="st2" d="M-111.8-41.5c2.6,0,4.7,2.1,4.7,4.7s-2.1,4.7-4.7,4.7s-4.7-2.1-4.7-4.7S-114.4-41.5-111.8-41.5
								 M-111.8-42.5c-3.2,0-5.7,2.6-5.7,5.7s2.6,5.7,5.7,5.7s5.7-2.6,5.7-5.7S-108.6-42.5-111.8-42.5L-111.8-42.5z"/>
						</g>
						<g>
							<path class="st15" d="M-111.8-33.4c-1.8,0-3.3-1.5-3.3-3.3s1.5-3.3,3.3-3.3s3.3,1.5,3.3,3.3S-109.9-33.4-111.8-33.4z"/>
							<path class="st2" d="M-111.8-39.6c1.6,0,2.8,1.3,2.8,2.8s-1.3,2.8-2.8,2.8s-2.8-1.3-2.8-2.8S-113.3-39.6-111.8-39.6
								 M-111.8-40.6c-2.1,0-3.8,1.7-3.8,3.8s1.7,3.8,3.8,3.8s3.8-1.7,3.8-3.8S-109.6-40.6-111.8-40.6L-111.8-40.6z"/>
						</g>
						<g>
							<circle class="st15" cx="-111.8" cy="-36.8" r="1.4"/>
							<path class="st2" d="M-111.8-37.7c0.5,0,0.9,0.4,0.9,0.9s-0.4,0.9-0.9,0.9s-0.9-0.4-0.9-0.9S-112.3-37.7-111.8-37.7
								 M-111.8-38.7c-1.1,0-1.9,0.9-1.9,1.9s0.9,1.9,1.9,1.9c1.1,0,1.9-0.9,1.9-1.9S-110.7-38.7-111.8-38.7L-111.8-38.7z"/>
						</g>
					</g>
				</g>
				<g>
					<g>
						<g>
							<path class="st15" d="M-111.8-23.6c-3,0-5.5-2.5-5.5-5.5s2.5-5.5,5.5-5.5s5.5,2.5,5.5,5.5S-108.7-23.6-111.8-23.6z"/>
							<path class="st2" d="M-111.8-34.4c2.9,0,5.2,2.4,5.2,5.2c0,2.9-2.4,5.2-5.2,5.2s-5.2-2.4-5.2-5.2
								C-117-32-114.6-34.4-111.8-34.4 M-111.8-34.9c-3.2,0-5.7,2.6-5.7,5.7s2.6,5.7,5.7,5.7s5.7-2.6,5.7-5.7
								S-108.6-34.9-111.8-34.9L-111.8-34.9z"/>
						</g>
						<g>
							<path class="st15" d="M-111.8-23.9c-2.9,0-5.2-2.4-5.2-5.2s2.4-5.2,5.2-5.2s5.2,2.4,5.2,5.2S-108.9-23.9-111.8-23.9z"/>
							<path class="st2" d="M-111.8-33.9c2.6,0,4.7,2.1,4.7,4.7s-2.1,4.7-4.7,4.7s-4.7-2.1-4.7-4.7S-114.4-33.9-111.8-33.9
								 M-111.8-34.9c-3.2,0-5.7,2.6-5.7,5.7s2.6,5.7,5.7,5.7s5.7-2.6,5.7-5.7S-108.6-34.9-111.8-34.9L-111.8-34.9z"/>
						</g>
						<g>
							<path class="st15" d="M-111.8-25.8c-1.8,0-3.3-1.5-3.3-3.3s1.5-3.3,3.3-3.3s3.3,1.5,3.3,3.3S-109.9-25.8-111.8-25.8z"/>
							<path class="st2" d="M-111.8-31.9c1.6,0,2.8,1.3,2.8,2.8s-1.3,2.8-2.8,2.8s-2.8-1.3-2.8-2.8S-113.3-31.9-111.8-31.9
								 M-111.8-32.9c-2.1,0-3.8,1.7-3.8,3.8s1.7,3.8,3.8,3.8s3.8-1.7,3.8-3.8S-109.6-32.9-111.8-32.9L-111.8-32.9z"/>
						</g>
						<g>
							<circle class="st15" cx="-111.8" cy="-29.1" r="1.4"/>
							<path class="st2" d="M-111.8-30c0.5,0,0.9,0.4,0.9,0.9c0,0.5-0.4,0.9-0.9,0.9s-0.9-0.4-0.9-0.9
								C-112.7-29.6-112.3-30-111.8-30 M-111.8-31c-1.1,0-1.9,0.9-1.9,1.9s0.9,1.9,1.9,1.9c1.1,0,1.9-0.9,1.9-1.9
								S-110.7-31-111.8-31L-111.8-31z"/>
						</g>
					</g>
				</g>
			</g>
		</g>
	</g>
	<g class="st4">
		<path class="st16" d="M-89.1-27l-0.8,6h-44.4l-0.8-6H-89.1 M-88.4-28h-47.2c-0.3,0-0.4,0.3-0.4,0.7l0.9,6.8c0,0.3,0.2,0.5,0.4,0.5
			h45.5c0.2,0,0.4-0.2,0.4-0.5l0.9-6.8C-88-27.7-88.2-28-88.4-28L-88.4-28z"/>
	</g>
	<g>
		<defs>
			<path id="SVGID_5_" d="M-89.3-20h-45.5c-0.2,0-0.4-0.2-0.4-0.5l-0.9-6.8c0-0.4,0.1-0.7,0.4-0.7h47.2c0.3,0,0.4,0.3,0.4,0.7
				l-0.9,6.8C-88.9-20.2-89.1-20-89.3-20z"/>
		</defs>
		<clipPath id="SVGID_6_">
			<use xlink:href="#SVGID_5_"  style="overflow:visible;"/>
		</clipPath>
		<g class="st17">
			<path class="st18" d="M-87.3-20h-45.5c-0.2,0-0.4-0.2-0.4-0.5l-0.9-6.8c0-0.4,0.1-0.7,0.4-0.7h47.2c0.3,0,0.4,0.3,0.4,0.7
				l-0.9,6.8C-86.9-20.2-87.1-20-87.3-20z"/>
		</g>
	</g>
	<g class="st4">
		<path class="st19" d="M-89.3-20h-45.5c-0.2,0-0.4-0.2-0.4-0.5l-0.9-6.8c0-0.4,0.1-0.7,0.4-0.7h47.2c0.3,0,0.4,0.3,0.4,0.7
			l-0.9,6.8C-88.9-20.2-89.1-20-89.3-20z"/>
	</g>
	<g>
		<path class="st2" d="M-89.1-27l-0.8,6h-44.4l-0.8-6H-89.1 M-88.4-28h-47.2c-0.3,0-0.4,0.3-0.4,0.7l0.9,6.8c0,0.3,0.2,0.5,0.4,0.5
			h45.5c0.2,0,0.4-0.2,0.4-0.5l0.9-6.8C-88-27.7-88.2-28-88.4-28L-88.4-28z"/>
	</g>
	<g>
		<defs>
			<path id="SVGID_7_" d="M-89.3-20h-45.5c-0.2,0-0.4-0.2-0.4-0.5l-0.9-6.8c0-0.4,0.1-0.7,0.4-0.7h47.2c0.3,0,0.4,0.3,0.4,0.7
				l-0.9,6.8C-88.9-20.2-89.1-20-89.3-20z"/>
		</defs>
		<clipPath id="SVGID_8_">
			<use xlink:href="#SVGID_7_"  style="overflow:visible;"/>
		</clipPath>
		<g class="st20">
			<path class="st21" d="M-86.4-28h-4.5c0.3,0,0.4,0.3,0.4,0.7l-0.9,6.8c0,0.3-0.2,0.5-0.4,0.5h4.5c0.2,0,0.4-0.2,0.4-0.5l0.9-6.8
				C-86-27.7-86.2-28-86.4-28z"/>
		</g>
	</g>
	<g>
		<path class="st2" d="M-89.1-27l-0.8,6h-44.4l-0.8-6H-89.1 M-88.4-28h-47.2c-0.3,0-0.4,0.3-0.4,0.7l0.9,6.8c0,0.3,0.2,0.5,0.4,0.5
			h45.5c0.2,0,0.4-0.2,0.4-0.5l0.9-6.8C-88-27.7-88.2-28-88.4-28L-88.4-28z"/>
	</g>
	<line class="st22" x1="-135" y1="-25.5" x2="-89" y2="-25.5"/>
	<path class="st1" d="M-102.5-45.6"/>
	<path class="st10" d="M-101.4-42.8c0,0,0.5-3.7,3.9-4.2"/>
</g>
<g id="salads">
	<path class="st11" d="M-46.6-44c0.2,0,0.3,0,0.5,0c0.2-1.5,1.4-2.7,2.8-2.7c0.2,0,0.4,0,0.5,0.1c0.7-2.1,2.3-3.6,4.3-3.6
		c2,0,3.7,1.5,4.3,3.6c0.1,0,0.2,0,0.3,0c1.5,0,2.8,1.5,2.8,3.3c0,0.4-0.1,0.7-0.1,1c0.3,0,0.5-0.1,0.8-0.1c2.6,0,4.7,1.4,4.7,3.2
		c0,1.8-2.1,3.2-4.7,3.2c-1.5,0-2.8-0.5-3.6-1.2c-1.2,0.7-3.1,1.2-5.2,1.2c-1.8,0-3.5-0.4-4.7-0.9c-0.8,0.5-1.7,0.8-2.8,0.8
		c-2.6,0-4.7-1.8-4.7-4S-49.2-44-46.6-44z"/>
	<path class="st11" d="M-43.8-43.4c-0.1,0-0.3,0-0.4,0c-0.2-1.1-1.2-2-2.4-2c-0.2,0-0.3,0-0.5,0c-0.6-1.5-2-2.6-3.7-2.6
		c-1.7,0-3.2,1.1-3.7,2.6c-0.1,0-0.2,0-0.2,0c-1.3,0-2.4,1.1-2.4,2.4c0,0.3,0.1,0.5,0.1,0.7c-0.2,0-0.5,0-0.7,0c-2.2,0-4,1.1-4,2.4
		c0,1.3,1.8,2.4,4,2.4c1.3,0,2.4-0.4,3.1-0.9c1.1,0.5,2.7,0.9,4.5,0.9c1.6,0,3-0.3,4-0.7c0.7,0.4,1.5,0.6,2.4,0.6c2.2,0,4-1.3,4-2.9
		S-41.5-43.4-43.8-43.4z"/>
	<g>
		<g>
			<g>
				<path class="st23" d="M-28.4-47.7c-0.2,0-0.4-0.1-0.6-0.2c-0.2-0.2-0.2-0.4-0.2-0.6c0-0.2,0.1-0.4,0.2-0.6l3.9-3.9
					c0.2-0.2,0.4-0.2,0.6-0.2s0.4,0.1,0.6,0.2s0.2,0.4,0.2,0.6s-0.1,0.4-0.2,0.6l-3.9,3.9C-28-47.8-28.2-47.7-28.4-47.7z"/>
				<g>
					<path class="st2" d="M-24.5-52.9c0.1,0,0.2,0,0.2,0.1c0.1,0.1,0.1,0.2,0.1,0.2c0,0.1,0,0.2-0.1,0.2l-3.9,3.9
						c-0.1,0.1-0.2,0.1-0.2,0.1s-0.2,0-0.2-0.1c-0.1-0.1-0.1-0.4,0-0.5l3.9-3.9C-24.7-52.9-24.5-52.9-24.5-52.9 M-24.5-53.9
						c-0.3,0-0.7,0.1-0.9,0.4l-3.9,3.9c-0.5,0.5-0.5,1.4,0,1.9c0.3,0.3,0.6,0.4,0.9,0.4c0.3,0,0.7-0.1,0.9-0.4l3.9-3.9
						c0.5-0.5,0.5-1.4,0-1.9v0C-23.8-53.7-24.2-53.9-24.5-53.9L-24.5-53.9z"/>
				</g>
			</g>
			<g>
				<path class="st23" d="M-25.2-48c-0.2,0-0.4-0.1-0.6-0.2c-0.3-0.3-0.3-0.9,0-1.2l3.9-3.9c0.2-0.2,0.4-0.2,0.6-0.2
					s0.4,0.1,0.6,0.2c0.2,0.2,0.2,0.4,0.2,0.6c0,0.2-0.1,0.4-0.2,0.6l-3.9,3.9C-24.8-48.1-25-48-25.2-48z"/>
				<g>
					<path class="st2" d="M-21.3-53.1c0.1,0,0.2,0,0.2,0.1c0.1,0.1,0.1,0.4,0,0.5l-3.9,3.9c-0.1,0.1-0.2,0.1-0.2,0.1
						c-0.1,0-0.2,0-0.2-0.1c-0.1-0.1-0.1-0.2-0.1-0.2c0-0.1,0-0.2,0.1-0.2l3.9-3.9C-21.4-53.1-21.3-53.1-21.3-53.1 M-21.3-54.1
						c-0.3,0-0.7,0.1-0.9,0.4l-3.9,3.9c-0.5,0.5-0.5,1.4,0,1.9v0c0.3,0.3,0.6,0.4,0.9,0.4c0.3,0,0.7-0.1,0.9-0.4l3.9-3.9
						c0.5-0.5,0.5-1.4,0-1.9C-20.6-54-20.9-54.1-21.3-54.1L-21.3-54.1z"/>
				</g>
			</g>
			<g>
				<path class="st23" d="M-25.4-44.7c-0.2,0-0.4-0.1-0.6-0.2c-0.3-0.3-0.3-0.9,0-1.2L-22-50c0.2-0.2,0.4-0.2,0.6-0.2
					s0.4,0.1,0.6,0.2c0.3,0.3,0.3,0.9,0,1.2l-3.9,3.9C-24.9-44.7-25.1-44.7-25.4-44.7z"/>
				<g>
					<path class="st2" d="M-21.4-49.8c0.1,0,0.2,0,0.2,0.1c0.1,0.1,0.1,0.2,0.1,0.2c0,0.1,0,0.2-0.1,0.2l-3.9,3.9
						c-0.1,0.1-0.2,0.1-0.2,0.1s-0.2,0-0.2-0.1c-0.1-0.1-0.1-0.4,0-0.5l3.9-3.9C-21.6-49.8-21.5-49.8-21.4-49.8 M-21.4-50.8
						c-0.3,0-0.7,0.1-0.9,0.4l-3.9,3.9c-0.5,0.5-0.5,1.4,0,1.9v0c0.3,0.3,0.6,0.4,0.9,0.4c0.3,0,0.7-0.1,0.9-0.4l3.9-3.9
						c0.5-0.5,0.5-1.4,0-1.9C-20.7-50.7-21.1-50.8-21.4-50.8L-21.4-50.8z"/>
				</g>
			</g>
		</g>
		<g>
			<path class="st24" d="M-38.9-31.9c-0.9,0-1.7-0.3-2.3-0.9c-1.3-1.3-1.2-3.4,0.2-5l8.9-10.4c0.9-1,2.1-1.6,3.3-1.6
				c0.9,0,1.7,0.3,2.3,0.9l1.5,1.5c0.6,0.6,0.9,1.5,0.9,2.4c0,1.2-0.6,2.3-1.6,3.1L-36.1-33C-36.9-32.3-37.9-31.9-38.9-31.9z"/>
			<path class="st2" d="M-28.8-49.3L-28.8-49.3c0.5,0,1.3,0.1,1.9,0.7l1.5,1.5c0.5,0.5,0.8,1.2,0.7,2c0,1-0.6,2-1.4,2.8l-10.4,8.9
				c-0.7,0.6-1.6,0.9-2.4,0.9c-0.7,0-1.4-0.3-1.9-0.7c-1.1-1.1-1-3,0.2-4.3l8.9-10.4C-30.9-48.8-29.8-49.3-28.8-49.3 M-28.8-50.3
				c-1.3,0-2.7,0.6-3.7,1.8l-8.9,10.4c-1.5,1.8-1.6,4.3-0.2,5.7v0c0.7,0.7,1.6,1,2.6,1c1.1,0,2.2-0.4,3.1-1.2l10.4-8.9
				c2-1.7,2.4-4.6,0.7-6.3l-1.5-1.5C-26.9-50-27.8-50.3-28.8-50.3L-28.8-50.3z"/>
		</g>
		<g>
			<g>
				<line class="st10" x1="-30.7" y1="-46.9" x2="-29.2" y2="-45.5"/>
				<line class="st10" x1="-27.8" y1="-44.1" x2="-27.1" y2="-43.4"/>
			</g>
			<g>
				<line class="st10" x1="-31.4" y1="-39.2" x2="-32.8" y2="-40.6"/>
				<line class="st10" x1="-34.2" y1="-42" x2="-34.9" y2="-42.7"/>
			</g>
			<g>
				<g>
					<line class="st10" x1="-31.4" y1="-43.4" x2="-29.2" y2="-41.3"/>
				</g>
				<g>
					<line class="st10" x1="-32.8" y1="-44.9" x2="-32.8" y2="-44.9"/>
				</g>
			</g>
			<line class="st10" x1="-36.3" y1="-39.9" x2="-34.2" y2="-37.8"/>
		</g>
	</g>
	<g>
		<g>
			<path class="st25" d="M-57.3-45.6c-0.3-0.1-0.7,0.1-0.8,0.4c-0.9,3.3,1.3,6.9,5,8.2c3.7,1.4,7.7,0,9.1-3.1c0.2-0.3,0-0.7-0.3-0.8
				L-57.3-45.6z"/>
		</g>
		<g>
			<path class="st26" d="M-55.9-41.3L-55.9-41.3c-0.3-0.1-0.4-0.4-0.3-0.6l0.3-0.9c0.1-0.3,0.4-0.4,0.6-0.3l0,0
				c0.3,0.1,0.4,0.4,0.3,0.6l-0.3,0.9C-55.4-41.3-55.7-41.2-55.9-41.3z"/>
			<path class="st26" d="M-48.2-38.5L-48.2-38.5c-0.3-0.1-0.4-0.4-0.3-0.6l0.3-0.9c0.1-0.3,0.4-0.4,0.6-0.3v0
				c0.3,0.1,0.4,0.4,0.3,0.6l-0.3,0.9C-47.7-38.5-48-38.4-48.2-38.5z"/>
			<path class="st26" d="M-52.4-39.1L-52.4-39.1c-0.3-0.1-0.4-0.4-0.3-0.6l0.3-0.9c0.1-0.3,0.4-0.4,0.6-0.3h0
				c0.3,0.1,0.4,0.4,0.3,0.6l-0.3,0.9C-51.8-39.2-52.1-39-52.4-39.1z"/>
		</g>
	</g>
	<g class="st4">
		<path class="st27" d="M-54.2-20.5c-2.6,0-4.9-1.9-5.4-4.4l-2.8-13.9c0-0.1,0-0.3,0.1-0.4c0.1-0.1,0.2-0.2,0.4-0.2h35.8
			c0.2,0,0.3,0.1,0.4,0.2c0.1,0.1,0.1,0.3,0.1,0.4l-2.8,13.9c-0.5,2.6-2.8,4.4-5.4,4.4H-54.2z"/>
		<g class="st5">
			<path class="st2" d="M-26.1-38.9L-28.9-25c-0.5,2.3-2.5,4-4.9,4h-20.4c-2.4,0-4.4-1.7-4.9-4l-2.8-13.9H-26.1L-26.1-38.9
				 M-26.1-39.9h-35.8c-0.6,0-1.1,0.6-1,1.2l2.8,13.9c0.6,2.8,3,4.8,5.9,4.8h20.4c2.9,0,5.3-2,5.9-4.8l2.8-13.9
				C-25-39.3-25.4-39.9-26.1-39.9L-26.1-39.9z"/>
		</g>
	</g>
	<g>
		<g>
			<defs>
				<path id="SVGID_9_" d="M-32.7-19.9h-22.7c-3.2,0-5.9-2-6.5-4.8l-3.1-14c-0.1-0.6,0.4-1.2,1.1-1.2h39.8c0.7,0,1.2,0.6,1.1,1.2
					l-3.1,14C-26.8-22-29.5-19.9-32.7-19.9z"/>
			</defs>
			<clipPath id="SVGID_10_">
				<use xlink:href="#SVGID_9_"  style="overflow:visible;"/>
			</clipPath>
			<g class="st28">
				<path class="st29" d="M-30.4-19.9h-22.7c-3.2,0-5.9-2-6.5-4.8l-3.1-14c-0.1-0.6,0.4-1.2,1.1-1.2h39.8c0.7,0,1.2,0.6,1.1,1.2
					l-3.1,14C-24.5-22-27.3-19.9-30.4-19.9z"/>
			</g>
			<g class="st28">
				<path class="st30" d="M-23-40h-4.4c0.7,0,1.2,0.6,1.1,1.2l-3.1,13.9C-30.1-22-32.8-20-36-20h4.4c3.2,0,5.9-2,6.5-4.8l3.1-14
					C-21.8-39.4-22.3-40-23-40z"/>
			</g>
		</g>
		<g>
			<g>
				<path class="st2" d="M-24.1-38.9c0.1,0,0.1,0,0.1,0L-27.1-25c-0.5,2.4-2.9,4.1-5.6,4.1h-22.7c-2.7,0-5-1.7-5.6-4.1L-64-38.9
					c0,0,0,0,0.1,0H-24.1 M-24.1-39.9h-39.8c-0.7,0-1.2,0.6-1.1,1.2l3.1,14c0.6,2.8,3.4,4.8,6.5,4.8h22.7c3.2,0,5.9-2,6.5-4.8
					l3.1-14C-22.9-39.4-23.4-39.9-24.1-39.9L-24.1-39.9z"/>
			</g>
		</g>
		<path class="st10" d="M-57.6-30c0,0-0.1,5.1,4.9,7"/>
	</g>
</g>
<g id="desserts">
	<g>
		<g>
			<g>
				<defs>
					<path id="SVGID_11_" d="M16.8-20H6.1v-1.1C6.1-22.1,7-23,8.1-23h6.8c1.1,0,1.9,0.9,1.9,1.9V-20z"/>
				</defs>
				<clipPath id="SVGID_12_">
					<use xlink:href="#SVGID_11_"  style="overflow:visible;"/>
				</clipPath>
				<g class="st31">
					<path class="st32" d="M18.8-20H8.1v-1.1c0-1.1,0.9-1.9,1.9-1.9h6.8c1.1,0,1.9,0.9,1.9,1.9V-20z"/>
				</g>
			</g>
			<g>
				<g>
					<path class="st33" d="M13.9-23h-2c1.1,0,2.1,0.9,2.1,1.9v1.1h2v-1.1C16-22.1,14.9-23,13.9-23z"/>
				</g>
			</g>
			<g>
				<path class="st2" d="M14.9-22c0.5,0,0.9,0.4,0.9,0.9v0.1H7.1v-0.1c0-0.5,0.4-0.9,0.9-0.9H14.9 M14.9-23H8.1
					c-1.1,0-1.9,0.9-1.9,1.9v1.1h10.7v-1.1C16.8-22.1,15.9-23,14.9-23L14.9-23z"/>
			</g>
			<g>
				<rect x="10.5" y="-31.7" class="st32" width="2" height="9.2"/>
				<path class="st2" d="M12-31.2v8.2h-1v-8.2H12 M13-32.2h-3V-22h3V-32.2L13-32.2z"/>
			</g>
			<g>
				<g>
					<circle class="st34" cx="11.2" cy="-44.5" r="4.9"/>
					<g>
						<path class="st35" d="M12.2-40.5c0-2.7-2.2-4.9-4.9-4.9s-4.9,2.2-4.9,4.9c0,0.3,0,0.7,0.1,1H12C12.1-39.8,12.2-40.2,12.2-40.5
							z"/>
					</g>
					<g>
						<path class="st25" d="M16.2-43.4c-2.4,0-4.4,1.7-4.8,3.9H21C20.6-41.7,18.6-43.4,16.2-43.4z"/>
					</g>
				</g>
				<g>
					<defs>
						<path id="SVGID_13_" d="M12.6-29.5h-2.4c-4.8,0-8.8-3.9-8.8-8.8v-0.2c0-0.6,0.4-1,1-1h18c0.6,0,1,0.4,1,1v0.2
							C21.4-33.4,17.5-29.5,12.6-29.5z"/>
					</defs>
					<clipPath id="SVGID_14_">
						<use xlink:href="#SVGID_13_"  style="overflow:visible;"/>
					</clipPath>
					<path class="st36" d="M14.6-29.5h-2.4c-4.8,0-8.8-3.9-8.8-8.8v-0.2c0-0.6,0.4-1,1-1h18c0.6,0,1,0.4,1,1v0.2
						C23.4-33.4,19.5-29.5,14.6-29.5z"/>
				</g>
				<path class="st33" d="M20.2-39h-2c0.6,0,0.8-0.1,0.8,0.5v0.2c0,4.8-3.7,9.3-8.6,9.3h2c4.8,0,8.6-4.4,8.6-9.3v-0.2
					C21-39.1,20.7-39,20.2-39z"/>
				<path class="st37" d="M12.7-29.5h-2.4c-4.8,0-8.8-3.9-8.8-8.8v-0.2c0-0.6,0.4-1,1-1h18c0.6,0,1,0.4,1,1v0.2
					C21.5-33.4,17.5-29.5,12.7-29.5z"/>
			</g>
		</g>
		<path class="st10" d="M6.1-37.1c0,0,0.1,3.7,3.9,5.1"/>
	</g>
	<g>
		<g>
			<path class="st18" d="M27.3-20.5c-1.7,0-3.2-1.3-3.3-3h21.5c-0.2,1.7-1.6,3-3.3,3H27.3z"/>
			<g>
				<path class="st2" d="M44.9-23c-0.4,1.2-1.4,2-2.7,2H27.3c-1.3,0-2.4-0.8-2.7-2H44.9 M46-24H23.4v0.2c0,2.1,1.7,3.8,3.8,3.8h14.9
					c2.1,0,3.8-1.7,3.8-3.8V-24L46-24z"/>
			</g>
		</g>
		<g>
			<path class="st38" d="M26.9-23.6c-0.8,0-1.5-0.7-1.5-1.5s0.7-1.5,1.5-1.5h15.6c0.8,0,1.5,0.7,1.5,1.5s-0.7,1.5-1.5,1.5H26.9z"/>
			<path class="st2" d="M42.5-26.1c0.6,0,1,0.4,1,1s-0.4,1-1,1H26.9c-0.6,0-1-0.4-1-1s0.4-1,1-1H42.5 M42.5-27.1H26.9
				c-1.1,0-2,0.9-2,2s0.9,2,2,2h15.6c1.1,0,2-0.9,2-2S43.6-27.1,42.5-27.1L42.5-27.1z"/>
		</g>
		<g>
			<path class="st38" d="M26.9-29.6c-0.8,0-1.5-0.7-1.5-1.5s0.7-1.5,1.5-1.5h15.6c0.8,0,1.5,0.7,1.5,1.5s-0.7,1.5-1.5,1.5H26.9z"/>
			<path class="st2" d="M42.5-32.1c0.6,0,1,0.4,1,1s-0.4,1-1,1H26.9c-0.6,0-1-0.4-1-1s0.4-1,1-1H42.5 M42.5-33.1H26.9
				c-1.1,0-2,0.9-2,2s0.9,2,2,2h15.6c1.1,0,2-0.9,2-2S43.6-33.1,42.5-33.1L42.5-33.1z"/>
		</g>
		<g>
			<path class="st39" d="M26.9-26.6c-0.8,0-1.5-0.7-1.5-1.5s0.7-1.5,1.5-1.5h15.6c0.8,0,1.5,0.7,1.5,1.5s-0.7,1.5-1.5,1.5H26.9z"/>
			<path class="st2" d="M42.5-29.1c0.6,0,1,0.4,1,1s-0.4,1-1,1H26.9c-0.6,0-1-0.4-1-1s0.4-1,1-1H42.5 M42.5-30.1H26.9
				c-1.1,0-2,0.9-2,2s0.9,2,2,2h15.6c1.1,0,2-0.9,2-2S43.6-30.1,42.5-30.1L42.5-30.1z"/>
		</g>
		<g>
			<path class="st38" d="M26.9-29.6c-0.8,0-1.5-0.7-1.5-1.5s0.7-1.5,1.5-1.5h15.6c0.8,0,1.5,0.7,1.5,1.5s-0.7,1.5-1.5,1.5H26.9z"/>
			<path class="st2" d="M42.5-32.1c0.6,0,1,0.4,1,1s-0.4,1-1,1H26.9c-0.6,0-1-0.4-1-1s0.4-1,1-1H42.5 M42.5-33.1H26.9
				c-1.1,0-2,0.9-2,2s0.9,2,2,2h15.6c1.1,0,2-0.9,2-2S43.6-33.1,42.5-33.1L42.5-33.1z"/>
		</g>
		<g>
			<path class="st38" d="M26.9-35.6c-0.8,0-1.5-0.7-1.5-1.5s0.7-1.5,1.5-1.5h15.6c0.8,0,1.5,0.7,1.5,1.5s-0.7,1.5-1.5,1.5H26.9z"/>
			<path class="st2" d="M42.5-38.1c0.6,0,1,0.4,1,1s-0.4,1-1,1H26.9c-0.6,0-1-0.4-1-1s0.4-1,1-1H42.5 M42.5-39.1H26.9
				c-1.1,0-2,0.9-2,2c0,1.1,0.9,2,2,2h15.6c1.1,0,2-0.9,2-2C44.5-38.2,43.6-39.1,42.5-39.1L42.5-39.1z"/>
		</g>
		<path class="st40" d="M28.4-42.1v2.9c0,0.8,0.7,1.5,1.5,1.5h0c0.8,0,1.5-0.7,1.5-1.5v-2.9c0-0.8-0.7-1.5-1.5-1.5h0
			C29.1-43.6,28.4-42.9,28.4-42.1z"/>
		<g>
			<path class="st39" d="M26.9-32.6c-0.8,0-1.5-0.7-1.5-1.5s0.7-1.5,1.5-1.5h15.6c0.8,0,1.5,0.7,1.5,1.5s-0.7,1.5-1.5,1.5H26.9z"/>
			<path class="st2" d="M42.5-35.1c0.6,0,1,0.4,1,1s-0.4,1-1,1H26.9c-0.6,0-1-0.4-1-1s0.4-1,1-1H42.5 M42.5-36.1H26.9
				c-1.1,0-2,0.9-2,2s0.9,2,2,2h15.6c1.1,0,2-0.9,2-2S43.6-36.1,42.5-36.1L42.5-36.1z"/>
		</g>
		<path class="st40" d="M28-38.5c0,0,0.5,6.5,2.3,6.8c1.8,0.3,1.7-1.6,1.7-2.4c0-0.8,0.2-2.7,1.7-2.9s0.9-1.6,0.9-1.6L28-38.5z"/>
		<g>
			<g>
				<path class="st3" d="M31-49.6c-0.5,0-0.8-0.4-0.8-0.8v-13.4c0-0.5,0.4-0.8,0.8-0.8h0.3c0.5,0,0.8,0.4,0.8,0.8v13.4
					c0,0.5-0.4,0.8-0.8,0.8H31z"/>
				<g>
					<path class="st2" d="M31.3-64.2c0.2,0,0.3,0.2,0.3,0.3v13.4c0,0.2-0.2,0.3-0.3,0.3H31c-0.2,0-0.3-0.2-0.3-0.3v-13.4
						c0-0.2,0.2-0.3,0.3-0.3H31.3 M31.3-65.2H31c-0.7,0-1.3,0.6-1.3,1.3v13.4c0,0.7,0.6,1.3,1.3,1.3h0.3c0.7,0,1.3-0.6,1.3-1.3
						v-13.4C32.6-64.6,32-65.2,31.3-65.2L31.3-65.2z"/>
				</g>
			</g>
			<g>
				<path class="st3" d="M29.6-47.7c-0.6,0-1-0.5-1-1c0-0.6,0.5-1,1-1h3c0.6,0,1,0.5,1,1c0,0.6-0.5,1-1,1H29.6z"/>
				<path class="st2" d="M32.6-49.2c0.3,0,0.5,0.2,0.5,0.5c0,0.3-0.2,0.5-0.5,0.5h-3c-0.3,0-0.5-0.2-0.5-0.5c0-0.3,0.2-0.5,0.5-0.5
					H32.6 M32.6-50.2h-3c-0.8,0-1.5,0.7-1.5,1.5v0c0,0.8,0.7,1.5,1.5,1.5h3c0.8,0,1.5-0.7,1.5-1.5v0C34.1-49.5,33.5-50.2,32.6-50.2
					L32.6-50.2z"/>
			</g>
			<g>
				<path class="st3" d="M29.6-41.7c-0.6,0-1-0.5-1-1c0-0.6,0.5-1,1-1h3c0.6,0,1,0.5,1,1c0,0.6-0.5,1-1,1H29.6z"/>
				<path class="st2" d="M32.6-43.3c0.3,0,0.5,0.2,0.5,0.5c0,0.3-0.2,0.5-0.5,0.5h-3c-0.3,0-0.5-0.2-0.5-0.5c0-0.3,0.2-0.5,0.5-0.5
					H32.6 M32.6-44.3h-3c-0.8,0-1.5,0.7-1.5,1.5v0c0,0.8,0.7,1.5,1.5,1.5h3c0.8,0,1.5-0.7,1.5-1.5v0C34.1-43.6,33.5-44.3,32.6-44.3
					L32.6-44.3z"/>
			</g>
			<g>
				<path class="st3" d="M28.6-45.7c-0.6,0-1-0.5-1-1c0-0.6,0.5-1,1-1h5c0.6,0,1,0.5,1,1c0,0.6-0.5,1-1,1H28.6z"/>
				<path class="st2" d="M33.6-47.2c0.3,0,0.5,0.2,0.5,0.5c0,0.3-0.2,0.5-0.5,0.5h-5c-0.3,0-0.5-0.2-0.5-0.5c0-0.3,0.2-0.5,0.5-0.5
					H33.6 M33.6-48.2h-5c-0.8,0-1.5,0.7-1.5,1.5v0c0,0.8,0.7,1.5,1.5,1.5h5c0.8,0,1.5-0.7,1.5-1.5v0C35.1-47.5,34.5-48.2,33.6-48.2
					L33.6-48.2z"/>
			</g>
			<g>
				<path class="st3" d="M28.6-43.7c-0.6,0-1-0.5-1-1c0-0.6,0.5-1,1-1h5c0.6,0,1,0.5,1,1c0,0.6-0.5,1-1,1H28.6z"/>
				<path class="st2" d="M33.6-45.2c0.3,0,0.5,0.2,0.5,0.5c0,0.3-0.2,0.5-0.5,0.5h-5c-0.3,0-0.5-0.2-0.5-0.5c0-0.3,0.2-0.5,0.5-0.5
					H33.6 M33.6-46.2h-5c-0.8,0-1.5,0.7-1.5,1.5v0c0,0.8,0.7,1.5,1.5,1.5h5c0.8,0,1.5-0.7,1.5-1.5v0C35.1-45.6,34.5-46.2,33.6-46.2
					L33.6-46.2z"/>
			</g>
		</g>
	</g>
</g>
<g id="drinks">
	<g>
		<g>
			<g>
				<circle class="st41" cx="-175.3" cy="15.5" r="7"/>
				<circle class="st42" cx="-175.3" cy="15.5" r="4"/>
			</g>
			<polygon class="st37" points="-175.3,15.8 -175.3,15.4 -175.3,11.5 -175.3,11.5 			"/>
			<rect x="-176.8" y="12.1" class="st22" width="0" height="4.4"/>
			<rect x="-173.7" y="12.1" class="st22" width="0" height="4.4"/>
		</g>
		<g>
			<g>
				<g>
					<path class="st43" d="M-166.8,17.9c-3.9,0-7,3.1-7,7c0,3.9,3.1,7,7,7s7-3.1,7-7C-159.8,21-162.9,17.9-166.8,17.9z M-166.8,29.7
						c-2.7,0-4.8-2.2-4.8-4.8c0-2.7,2.2-4.8,4.8-4.8s4.8,2.2,4.8,4.8C-161.9,27.5-164.1,29.7-166.8,29.7z"/>
					<g>
						<defs>
							<path id="SVGID_15_" d="M-181,43.1L-181,43.1c-7.7,0-14-6.3-14-14v-13c0-0.6,0.4-1,1-1h26c0.6,0,1,0.4,1,1v13
								C-167,36.8-173.2,43.1-181,43.1z"/>
						</defs>
						<clipPath id="SVGID_16_">
							<use xlink:href="#SVGID_15_"  style="overflow:visible;"/>
						</clipPath>
						<g class="st44">
							<path class="st45" d="M-178,43.1L-178,43.1c-7.7,0-14-6.3-14-14v-13c0-0.6,0.4-1,1-1h26c0.6,0,1,0.4,1,1v13
								C-164,36.8-170.2,43.1-178,43.1z"/>
						</g>
					</g>
					<g>
						<path class="st46" d="M-167,16h-4c0.6,0,1,0.5,1,1v12.1c0,6.5-5.2,11.9-12,12.8c0.7,0.1,1.3,0.1,2,0.1h0c7.7,0,14-5.8,14-12.9
							V17C-166,16.5-166.4,16-167,16z"/>
					</g>
					<g>
						<g>
							<path class="st2" d="M-167,16.1v13c0,7.2-5.8,13-13,13s-13-5.8-13-13v-13H-167 M-167,15.1h-26c-0.6,0-1,0.4-1,1v13
								c0,7.7,6.3,14,14,14h0c7.7,0,14-6.3,14-14v-13C-166,15.5-166.4,15.1-167,15.1L-167,15.1z"/>
						</g>
					</g>
				</g>
				<line class="st47" x1="-194" y1="17.5" x2="-166" y2="17.5"/>
			</g>
			<g>
				<line class="st22" x1="-184.5" y1="16" x2="-184.5" y2="23"/>
				<path class="st48" d="M-182.5,31h-4c-0.6,0-1-0.4-1-1v-5.3c0-0.4,0.3-0.8,0.7-0.9l2.3-0.8l2.3,0.8c0.4,0.1,0.7,0.5,0.7,0.9V30
					C-181.5,30.6-182,31-182.5,31z"/>
			</g>
		</g>
	</g>
	<g>
		<g>
			<path class="st49" d="M-166.6,42.6v-4.1h3.6c0.3,0,0.5,0.2,0.5,0.5v3.6H-166.6z"/>
			<path class="st2" d="M-163,39v3.1h-3.1V39H-163 M-163,38h-4.1v5.1h5.1V39C-162,38.4-162.5,38-163,38L-163,38z"/>
		</g>
		<g>
			<rect x="-170.8" y="38.5" class="st49" width="4.1" height="4.1"/>
			<path class="st2" d="M-167.1,39v3.1h-3.1V39H-167.1 M-166.1,38h-5.1v5.1h5.1V38L-166.1,38z"/>
		</g>
		<g>
			<path class="st49" d="M-170.8,38.5v-3.6c0-0.3,0.2-0.5,0.5-0.5h3.1c0.3,0,0.5,0.2,0.5,0.5v3.6H-170.8z"/>
			<path class="st2" d="M-167.1,34.8V38h-3.1v-3.1H-167.1 M-167.1,33.8h-3.1c-0.6,0-1,0.4-1,1V39h5.1v-4.1
				C-166.1,34.3-166.6,33.8-167.1,33.8L-167.1,33.8z"/>
		</g>
	</g>
	<g>
		<path class="st11" d="M-191.6,36.6c0,3-1,5.5-2.3,5.5s-2.3-2.4-2.3-5.5s2.3-5.5,2.3-5.5S-191.6,33.6-191.6,36.6z"/>
		<path class="st11" d="M-191.6,37.3c-2.2,2.1-3.3,4.6-2.4,5.5s3.4-0.1,5.6-2.3c2.2-2.1,2.4-5.5,2.4-5.5S-189.4,35.2-191.6,37.3z"/>
		<path class="st11" d="M-194.7,37.3c2.2,2.1,3.3,4.6,2.4,5.5s-3.4-0.1-5.6-2.3s-2.4-5.5-2.4-5.5S-196.9,35.2-194.7,37.3z"/>
	</g>
	<g>
		<path class="st18" d="M-194.1,47.6c-3.5,0-6.7-1.4-9.2-3.9c-0.3-0.3-0.2-0.6-0.1-0.7c0-0.1,0.2-0.4,0.6-0.4h45.7
			c0.4,0,0.6,0.3,0.6,0.4c0,0.1,0.2,0.4-0.1,0.7c-2.4,2.5-5.7,3.9-9.2,3.9H-194.1z"/>
		<path class="st2" d="M-157.2,43.1c0,0,0.1,0,0.1,0.1c0,0.1,0,0.1,0,0.2c-2.4,2.4-5.5,3.7-8.8,3.7h-28.3c-3.3,0-6.5-1.3-8.8-3.7
			c-0.1-0.1-0.1-0.1,0-0.2c0-0.1,0.1-0.1,0.1-0.1H-157.2 M-157.2,42.1h-45.7c-1,0-1.5,1.3-0.8,2l0,0c2.5,2.6,5.9,4,9.5,4h28.3
			c3.6,0,7-1.4,9.5-4l0,0C-155.6,43.4-156.1,42.1-157.2,42.1L-157.2,42.1z"/>
	</g>
</g>
<g id="alcoholic_drinks">
	<g>
		<polygon class="st2" points="-115.3,18 -132.9,18 -132.9,19 -115.3,19 -115.3,18 		"/>
	</g>
	<rect x="-101.4" y="30.6" class="st2" width="1.3" height="13"/>
	<g>
		<path class="st50" d="M-108,47.5c0.3-1.1,1.4-2.1,3-2.6l4.3-1.5l4.3,1.5c1.6,0.6,2.7,1.6,3,2.6H-108z"/>
		<path class="st2" d="M-100.7,43.9l4.1,1.5c1.1,0.4,1.9,1,2.4,1.7h-13c0.4-0.7,1.3-1.3,2.4-1.7L-100.7,43.9 M-100.7,42.8l-4.4,1.6
			c-2.1,0.7-3.4,2.1-3.4,3.6h15.6c0-1.5-1.3-2.9-3.4-3.6L-100.7,42.8L-100.7,42.8z"/>
	</g>
	<g>
		<path class="st50" d="M-105.2,30.4c-1,0-1.8-0.7-2-1.6l-0.7-2.6h14.3l-0.7,2.6c-0.2,0.9-1.1,1.6-2,1.6H-105.2z"/>
		<path class="st2" d="M-94.2,26.7l-0.5,2c-0.2,0.7-0.8,1.2-1.6,1.2h-8.9c-0.7,0-1.4-0.5-1.6-1.2l-0.5-2H-94.2 M-92.9,25.7h-15.6
			l0.8,3.2c0.3,1.2,1.3,2,2.5,2h8.9c1.2,0,2.2-0.8,2.5-2L-92.9,25.7L-92.9,25.7z"/>
	</g>
	<g>
		<path class="st2" d="M-89.4,17.6l-4.5,8.4h-13.7l-4.5-8.4H-89.4L-89.4,17.6 M-89.4,16.6h-22.7c-0.8,0-1.2,0.8-0.9,1.5l4.8,8.9
			h14.9l4.8-8.9C-88.2,17.4-88.7,16.6-89.4,16.6L-89.4,16.6z"/>
	</g>
	<g>
		<path class="st2" d="M-89.4,17.6l-4.5,8.4h-13.7l-4.5-8.4H-89.4L-89.4,17.6 M-89.4,16.6h-22.7c-0.8,0-1.2,0.8-0.9,1.5l4.8,8.9
			h14.9l4.8-8.9C-88.2,17.4-88.7,16.6-89.4,16.6L-89.4,16.6z"/>
	</g>
	<g>
		<defs>
			<path id="SVGID_17_" d="M-93.3,27h-14.9l-4.8-8.9c-0.4-0.7,0.1-1.5,0.9-1.5h22.7c0.8,0,1.2,0.8,0.9,1.5L-93.3,27z"/>
		</defs>
		<clipPath id="SVGID_18_">
			<use xlink:href="#SVGID_17_"  style="overflow:visible;"/>
		</clipPath>
		<polygon class="st51" points="-110.2,21.5 -90.7,21.5 -93.3,26.5 -107.6,26.5 		"/>
	</g>
	<g>
		<path class="st2" d="M-89.4,17.6l-4.5,8.4h-13.7l-4.5-8.4H-89.4L-89.4,17.6 M-89.4,16.6h-22.7c-0.8,0-1.2,0.8-0.9,1.5l4.8,8.9
			h14.9l4.8-8.9C-88.2,17.4-88.7,16.6-89.4,16.6L-89.4,16.6z"/>
	</g>
	<g>
		<g>
			<circle class="st52" cx="-96.4" cy="23.4" r="2.1"/>
			<path class="st2" d="M-96.4,21.8c0.9,0,1.6,0.7,1.6,1.6s-0.7,1.6-1.6,1.6c-0.9,0-1.6-0.7-1.6-1.6S-97.2,21.8-96.4,21.8
				 M-96.4,20.8c-1.4,0-2.6,1.2-2.6,2.6s1.2,2.6,2.6,2.6c1.4,0,2.6-1.2,2.6-2.6S-94.9,20.8-96.4,20.8L-96.4,20.8z"/>
		</g>
		<path class="st37" d="M-95.6,20.9c0,0,2.6-5.3,4.5-5.5"/>
	</g>
	<g>
		<line class="st37" x1="-99.6" y1="10.4" x2="-102.3" y2="25.8"/>
		<g>
			<polygon class="st53" points="-105.8,8.8 -98.6,4.7 -93.2,11 -93.2,11 			"/>
			<path class="st2" d="M-98.7,5.3l4.2,5l-9.9-1.7L-98.7,5.3 M-98.6,4.2c-0.1,0-0.2,0-0.3,0.1l-7.2,4.1c-0.4,0.2-0.3,0.9,0.2,1
				l12.5,2.2c0,0,0.1,0,0.1,0c0.4,0,0.7-0.5,0.4-0.9l-5.3-6.3C-98.3,4.2-98.4,4.2-98.6,4.2L-98.6,4.2z"/>
		</g>
	</g>
	<g>
		<g>
			<line class="st37" x1="-120.6" y1="6.4" x2="-123.3" y2="21.8"/>
			<g>
				<polygon class="st52" points="-126.8,4.8 -119.6,0.7 -114.2,7 -114.2,7 				"/>
				<g>
					<path class="st2" d="M-119.7,1.3l4.2,5l-9.9-1.7L-119.7,1.3 M-119.6,0.2c-0.1,0-0.2,0-0.3,0.1l-7.2,4.1c-0.4,0.2-0.3,0.9,0.2,1
						l12.5,2.2c0,0,0.1,0,0.1,0c0.4,0,0.7-0.5,0.4-0.9l-5.3-6.3C-119.3,0.2-119.4,0.2-119.6,0.2L-119.6,0.2z"/>
				</g>
			</g>
		</g>
		<g>
			<g>
				<rect x="-124.7" y="36.3" class="st2" width="1.3" height="10"/>
			</g>
			<g>
				<path class="st53" d="M-114.1,26.8c0-1.3-0.2-2.3-0.7-3.5c-0.6-1.5-0.9-3.3-1-4.3h-15.7c-0.1,1-0.4,2.8-1,4.2
					c-0.6,1.6-0.8,3.2-0.6,5c0.6,4.9,4.5,8.7,9.2,9.2c0.1,0,0.1,0,0.2,0C-118.2,37-114.1,32.4-114.1,26.8z"/>
				<path class="st54" d="M-114.7,23.3c-0.6-1.5-0.9-3.3-1-4.3h-3c0.1,1,0.4,2.8,1,4.3c0.4,1.2,0.7,2.3,0.7,3.6c0,5-3.4,9.2-8,10.4
					c0.4,0.1,0.9,0.2,1.3,0.2c0.1,0,0.1,0,0.2,0c5.3-0.5,9.5-5,9.5-10.6C-114.1,25.6-114.3,24.5-114.7,23.3z"/>
			</g>
			<g>
				<defs>
					<path id="SVGID_19_" d="M-114.8,13.9l0.6-2.9c0.1-0.6-0.3-1.1-0.9-1.1h-17.7c-0.6,0-1.1,0.5-0.9,1.1l0.6,3.2
						c0.6,3,0.5,6.2-0.7,9.1c-0.6,1.5-0.8,3.3-0.6,5.1c0.6,4.8,4.5,8.6,9.2,9.1c6.3,0.7,11.7-4.2,11.7-10.4c0-1.3-0.2-2.6-0.7-3.7
						C-115.4,20.3-115.5,17-114.8,13.9z"/>
				</defs>
				<clipPath id="SVGID_20_">
					<use xlink:href="#SVGID_19_"  style="overflow:visible;"/>
				</clipPath>
			</g>
			<g>
				<path class="st50" d="M-130.5,47.5c0.3-0.9,1.3-1.8,2.7-2.2l2-0.6c0.5-0.2,1.1-0.2,1.7-0.2s1.2,0.1,1.7,0.2l2,0.6
					c1.5,0.4,2.5,1.3,2.7,2.2H-130.5z"/>
				<g>
					<path class="st2" d="M-124.1,45c0.5,0,1.1,0.1,1.5,0.2l2,0.6c0.9,0.3,1.6,0.7,2,1.2h-11.2c0.4-0.5,1.1-0.9,2-1.2l2-0.6
						C-125.1,45.1-124.6,45-124.1,45 M-124.1,44c-0.6,0-1.2,0.1-1.8,0.3l-2,0.6c-1.9,0.6-3.2,1.8-3.2,3.2h14c0-1.4-1.2-2.6-3.2-3.2
						l-2-0.6C-122.8,44.1-123.4,44-124.1,44L-124.1,44z"/>
				</g>
			</g>
			<g>
				<path class="st2" d="M-114.8,10.2l-0.6,3c-0.8,3.7-0.5,7.3,0.7,10.4c0.4,1.1,0.7,2.3,0.7,3.5c0,5.5-4.5,10-10,10
					c-0.4,0-0.8,0-1.1-0.1c-4.5-0.5-8.2-4.2-8.8-8.7c-0.2-1.7,0-3.3,0.6-4.8c1.2-3,1.4-6.5,0.7-10l-0.7-3.3H-114.8 M-114.8,9.2
					h-18.6c-0.6,0-1.1,0.6-1,1.2l0.7,3.3c0.6,3.2,0.5,6.5-0.7,9.5c-0.6,1.6-0.9,3.4-0.7,5.3c0.6,5,4.7,9,9.7,9.6
					c0.4,0,0.8,0.1,1.2,0.1c6.1,0,11-4.9,11-11c0-1.4-0.3-2.7-0.7-3.9c-1.2-3.1-1.3-6.6-0.6-9.8l0.6-3
					C-113.6,9.7-114.1,9.2-114.8,9.2L-114.8,9.2z"/>
			</g>
			<g>
				<g>
					<circle class="st55" cx="-122.9" cy="32.3" r="1"/>
					<path class="st2" d="M-122.9,31.8c0.3,0,0.5,0.2,0.5,0.5s-0.2,0.5-0.5,0.5s-0.5-0.2-0.5-0.5S-123.2,31.8-122.9,31.8
						 M-122.9,30.8c-0.8,0-1.5,0.7-1.5,1.5s0.7,1.5,1.5,1.5s1.5-0.7,1.5-1.5S-122.1,30.8-122.9,30.8L-122.9,30.8z"/>
				</g>
				<g>
					<circle class="st55" cx="-117.9" cy="28.3" r="2"/>
					<path class="st2" d="M-117.9,26.8c0.8,0,1.5,0.7,1.5,1.5s-0.7,1.5-1.5,1.5s-1.5-0.7-1.5-1.5S-118.8,26.8-117.9,26.8
						 M-117.9,25.8c-1.4,0-2.5,1.1-2.5,2.5s1.1,2.5,2.5,2.5s2.5-1.1,2.5-2.5S-116.6,25.8-117.9,25.8L-117.9,25.8z"/>
				</g>
				<g>
					<circle class="st55" cx="-121.9" cy="24.3" r="1.5"/>
					<path class="st2" d="M-121.9,23.3c0.6,0,1,0.4,1,1s-0.4,1-1,1s-1-0.4-1-1S-122.5,23.3-121.9,23.3 M-121.9,22.3
						c-1.1,0-2,0.9-2,2s0.9,2,2,2s2-0.9,2-2S-120.8,22.3-121.9,22.3L-121.9,22.3z"/>
				</g>
			</g>
		</g>
	</g>
</g>
<g id="dish">
	<g class="st4">
		<g class="st5">
			<circle class="st18" cx="-44.4" cy="22.4" r="2.5"/>
			<path class="st2" d="M-44.4,20.4c1.1,0,2,0.9,2,2s-0.9,2-2,2s-2-0.9-2-2S-45.5,20.4-44.4,20.4 M-44.4,19.4c-1.7,0-3,1.3-3,3
				s1.3,3,3,3s3-1.3,3-3S-42.7,19.4-44.4,19.4L-44.4,19.4z"/>
		</g>
		<g class="st5">
			<path class="st18" d="M-64,47.5c-1.9,0-3.5-1.6-3.5-3.5v-1c0-0.3,0.2-0.5,0.5-0.5h46c0.3,0,0.5,0.2,0.5,0.5v1
				c0,1.9-1.6,3.5-3.5,3.5H-64z"/>
			<g>
				<path class="st2" d="M-21,43v1c0,1.7-1.3,3-3,3h-40c-1.7,0-3-1.3-3-3v-1H-21 M-21,42h-46c-0.6,0-1,0.4-1,1v1c0,2.2,1.8,4,4,4h40
					c2.2,0,4-1.8,4-4v-1C-20,42.4-20.4,42-21,42L-21,42z"/>
			</g>
		</g>
		<g class="st5">
			<g>
				<path class="st18" d="M-64.8,42c0.5-10.9,9.5-19.6,20.5-19.6s20,8.8,20.5,19.6H-64.8z"/>
				<path class="st2" d="M-44.4,23.4c10.5,0,19.2,7.6,19.9,18.6h-39.9C-63.6,31-54.9,23.4-44.4,23.4 M-44.4,22.4
					c-11.5,0-20.8,8.6-21,20.6h42C-23.6,31-32.9,22.4-44.4,22.4L-44.4,22.4z"/>
			</g>
		</g>
	</g>
	<g>
		<g>
			<g>
				<g>
					<circle class="st18" cx="-44.4" cy="22.4" r="3"/>
				</g>
				<g>
					<path class="st56" d="M-44.4,19.4c-0.4,0-0.7,0.1-1,0.2c1.2,0.4,2,1.5,2,2.8s-0.8,2.4-2,2.8c0.3,0.1,0.6,0.2,1,0.2
						c1.7,0,3-1.3,3-3S-42.7,19.4-44.4,19.4z"/>
				</g>
				<g>
					<path class="st2" d="M-44.4,20.4c1.1,0,2,0.9,2,2s-0.9,2-2,2s-2-0.9-2-2S-45.5,20.4-44.4,20.4 M-44.4,19.4c-1.7,0-3,1.3-3,3
						s1.3,3,3,3s3-1.3,3-3S-42.7,19.4-44.4,19.4L-44.4,19.4z"/>
				</g>
			</g>
			<g>
				<g>
					<defs>
						<path id="SVGID_21_" d="M-44.4,22.4c-11.5,0-20.8,8.6-21,20.6h42C-23.6,31-32.9,22.4-44.4,22.4z"/>
					</defs>
					<clipPath id="SVGID_22_">
						<use xlink:href="#SVGID_21_"  style="overflow:visible;"/>
					</clipPath>
					<g class="st57">
						<path class="st18" d="M-42.4,22.4c-11.5,0-20.8,8.6-21,20.6h42C-21.6,31-30.9,22.4-42.4,22.4z"/>
					</g>
					<g class="st57">
						<path class="st21" d="M-44.4,22.1c-0.7,0-1.3,0.2-2,0.2c10.5,1,18.8,9.7,19,20.7h4C-23.6,31-32.9,22.1-44.4,22.1z"/>
					</g>
				</g>
				<g>
					<path class="st2" d="M-44.4,23.4c10.5,0,19.2,7.6,20,18.6h-39.9C-63.6,31-54.9,23.4-44.4,23.4 M-44.4,22.4
						c-11.5,0-20.8,8.6-21,20.6h42C-23.6,31-32.9,22.4-44.4,22.4L-44.4,22.4z"/>
				</g>
			</g>
			<g>
				<g>
					<defs>
						<path id="SVGID_23_" d="M-24,48h-40c-2.2,0-4-1.8-4-4v-1c0-0.6,0.4-1,1-1h46c0.6,0,1,0.4,1,1v1C-20,46.2-21.8,48-24,48z"/>
					</defs>
					<clipPath id="SVGID_24_">
						<use xlink:href="#SVGID_23_"  style="overflow:visible;"/>
					</clipPath>
					<g class="st58">
						<path class="st18" d="M-22,48h-40c-2.2,0-4-1.8-4-4v-1c0-0.6,0.4-1,1-1h46c0.6,0,1,0.4,1,1v1C-18,46.2-19.8,48-22,48z"/>
					</g>
					<g class="st58">
						<path class="st21" d="M-21,42h-3c0.6,0,1,0.4,1,1v1c0,2.2-1.8,4-4,4h3c2.2,0,4-1.8,4-4v-1C-20,42.4-20.4,42-21,42z"/>
					</g>
				</g>
				<g>
					<g>
						<path class="st2" d="M-21,43v1c0,1.7-1.3,3-3,3h-40c-1.7,0-3-1.3-3-3v-1H-21 M-21,42h-46c-0.6,0-1,0.4-1,1v1c0,2.2,1.8,4,4,4
							h40c2.2,0,4-1.8,4-4v-1C-20,42.4-20.4,42-21,42L-21,42z"/>
					</g>
				</g>
			</g>
		</g>
		<path class="st37" d="M-50.6,27c0,0-3,0.4-5.8,3.8"/>
	</g>
	<g>
		<g>
			<path class="st2" d="M-36.9,17c-0.3,0-0.5-0.2-0.5-0.5c0-1.1,0.6-1.7,1.1-2.2c0.4-0.4,0.8-0.8,0.8-1.5c0-0.7-0.3-1.1-0.8-1.5
				c-0.5-0.5-1.1-1.1-1.1-2.2c0-1.1,0.6-1.7,1.1-2.2c0.4-0.4,0.8-0.8,0.8-1.5c0-0.3,0.2-0.5,0.5-0.5s0.5,0.2,0.5,0.5
				c0,1.1-0.6,1.7-1.1,2.2c-0.4,0.4-0.8,0.8-0.8,1.5c0,0.7,0.3,1.1,0.8,1.5c0.5,0.5,1.1,1.1,1.1,2.2c0,1.1-0.6,1.7-1.1,2.2
				c-0.4,0.4-0.8,0.8-0.8,1.5C-36.5,16.8-36.7,17-36.9,17z"/>
			<path class="st2" d="M-28.9,20c-0.3,0-0.5-0.2-0.5-0.5c0-1.1,0.6-1.7,1.1-2.2c0.4-0.4,0.8-0.8,0.8-1.5c0-0.7-0.3-1.1-0.8-1.5
				c-0.5-0.5-1.1-1.1-1.1-2.2c0-1.1,0.6-1.7,1.1-2.2c0.4-0.4,0.8-0.8,0.8-1.5c0-0.3,0.2-0.5,0.5-0.5s0.5,0.2,0.5,0.5
				c0,1.1-0.6,1.7-1.1,2.2c-0.4,0.4-0.8,0.8-0.8,1.5c0,0.7,0.3,1.1,0.8,1.5c0.5,0.5,1.1,1.1,1.1,2.2c0,1.1-0.6,1.7-1.1,2.2
				c-0.4,0.4-0.8,0.8-0.8,1.5C-28.5,19.8-28.7,20-28.9,20z"/>
		</g>
		<g>
			<path class="st2" d="M-51.1,17c0.3,0,0.5-0.2,0.5-0.5c0-1.1-0.6-1.7-1.1-2.2c-0.4-0.4-0.8-0.8-0.8-1.5c0-0.7,0.3-1.1,0.8-1.5
				c0.5-0.5,1.1-1.1,1.1-2.2c0-1.1-0.6-1.7-1.1-2.2c-0.4-0.4-0.8-0.8-0.8-1.5c0-0.3-0.2-0.5-0.5-0.5s-0.5,0.2-0.5,0.5
				c0,1.1,0.6,1.7,1.1,2.2c0.4,0.4,0.8,0.8,0.8,1.5c0,0.7-0.3,1.1-0.8,1.5c-0.5,0.5-1.1,1.1-1.1,2.2c0,1.1,0.6,1.7,1.1,2.2
				c0.4,0.4,0.8,0.8,0.8,1.5C-51.5,16.8-51.3,17-51.1,17z"/>
			<path class="st2" d="M-59.1,20c0.3,0,0.5-0.2,0.5-0.5c0-1.1-0.6-1.7-1.1-2.2c-0.4-0.4-0.8-0.8-0.8-1.5c0-0.7,0.3-1.1,0.8-1.5
				c0.5-0.5,1.1-1.1,1.1-2.2c0-1.1-0.6-1.7-1.1-2.2c-0.4-0.4-0.8-0.8-0.8-1.5c0-0.3-0.2-0.5-0.5-0.5s-0.5,0.2-0.5,0.5
				c0,1.1,0.6,1.7,1.1,2.2c0.4,0.4,0.8,0.8,0.8,1.5c0,0.7-0.3,1.1-0.8,1.5c-0.5,0.5-1.1,1.1-1.1,2.2c0,1.1,0.6,1.7,1.1,2.2
				c0.4,0.4,0.8,0.8,0.8,1.5C-59.5,19.8-59.3,20-59.1,20z"/>
		</g>
	</g>
</g>
<g id="logo">
	<g>
		<g>
			<path d="M6.6,26.5l2.7,3.2c0.4,0.5,0.9,0.7,1.6,0.8V31H8.5l-2.9-3.8c-0.4-0.6-0.7-0.6-1.4-0.6v2.5c0,1.2,0.2,1.4,1.7,1.4V31H1.6
				v-0.5c1.1,0,1.3-0.2,1.3-1.4v-5.6c0-1.1-0.2-1.3-1.2-1.4v-0.5h3.8c2.2,0,3.5,0.9,3.5,2.3C9,25.3,8.2,26.2,6.6,26.5z M4.2,26H5
				c1.6,0,2.4-0.6,2.4-1.9c0-1.3-0.6-1.8-1.9-1.8H4.4c-0.1,0-0.2,0.1-0.2,0.2V26z"/>
			<path d="M16.7,29.9c-0.7,0.8-1.5,1.2-2.5,1.2c-1.9,0-3.1-1.3-3.1-3.2c0-2,1.4-3.4,3.3-3.4c1.5,0,2.4,0.9,2.4,2.4
				c0,0.2,0,0.2-0.4,0.2h-3.9c0,0.1,0,0.3,0,0.5c0,1.7,0.8,2.8,2.1,2.8c0.7,0,1.2-0.3,1.8-0.9L16.7,29.9z M14.7,26.6
				c0.6,0,0.7,0,0.7-0.3c0-0.7-0.5-1.2-1.3-1.2c-0.9,0-1.4,0.5-1.6,1.5H14.7z"/>
			<path d="M23.4,30c-0.6,0.7-1.5,1.1-2.6,1.1c-1.7,0-2.9-1.3-2.9-3.3c0-2,1.3-3.3,3.3-3.3c1.2,0,2.1,0.4,2.1,1.1
				c0,0.3-0.2,0.5-0.6,0.5c-0.3,0-0.4-0.1-0.7-0.5c-0.3-0.4-0.6-0.5-1-0.5c-1.1,0-1.7,0.9-1.7,2.6c0,1.8,0.7,2.8,1.9,2.8
				c0.7,0,1.2-0.3,1.8-0.8L23.4,30z"/>
			<path d="M26.5,29.1c0,1.2,0.2,1.5,1.1,1.5V31h-3.4v-0.4c1,0,1.2-0.3,1.2-1.4v-1.5c0-0.9,0-1.5-0.1-1.8c-0.1-0.4-0.3-0.5-1.1-0.5
				V25l2.4-0.5V29.1z M25.8,21.3c0.4,0,0.7,0.3,0.7,0.7s-0.3,0.7-0.7,0.7s-0.7-0.3-0.7-0.7S25.4,21.3,25.8,21.3z"/>
			<path d="M30.4,25.5L30.4,25.5c0.6-0.6,1.1-1,1.9-1c1.8,0,3.1,1.4,3.1,3.3c0,2-1.4,3.3-3.1,3.3c-0.7,0-1.3-0.2-1.8-0.8v1.8
				c0,1.3,0.2,1.5,1.4,1.5V34h-3.7v-0.4c1,0,1.2-0.3,1.2-1.4v-4.5c0-0.9,0-1.5-0.1-1.8c-0.1-0.4-0.3-0.5-1.1-0.5V25l2.3-0.5V25.5z
				 M30.4,27.3v0.9c0,0.9,0.1,1.2,0.3,1.5c0.4,0.5,0.9,0.8,1.5,0.8c1.1,0,1.8-1,1.8-2.7c0-1.7-0.8-2.8-1.9-2.8
				c-0.6,0-1.1,0.3-1.4,0.8C30.5,26.2,30.4,26.6,30.4,27.3z"/>
			<path d="M38.7,29.1c0,1.2,0.2,1.5,1.1,1.5V31h-3.4v-0.4c1,0,1.2-0.3,1.2-1.4v-1.5c0-0.9,0-1.5-0.1-1.8c-0.1-0.4-0.3-0.5-1.1-0.5
				V25l2.4-0.5V29.1z"/>
			<path d="M46.3,29.9c-0.7,0.8-1.5,1.2-2.5,1.2c-1.9,0-3.1-1.3-3.1-3.2c0-2,1.4-3.4,3.3-3.4c1.5,0,2.4,0.9,2.4,2.4
				c0,0.2,0,0.2-0.4,0.2h-3.9c0,0.1,0,0.3,0,0.5c0,1.7,0.8,2.8,2.1,2.8c0.7,0,1.2-0.3,1.8-0.9L46.3,29.9z M44.4,26.6
				c0.6,0,0.7,0,0.7-0.3c0-0.7-0.5-1.2-1.3-1.2c-0.9,0-1.4,0.5-1.6,1.5H44.4z"/>
		</g>
		<g>
			<path class="st37" d="M38,18.8c0,0,0.3-1.8,1.1-3.2c0.7-1.3,1.9-1.7,2.7-1.6"/>
			<g>
				<g>
					<g>
						<circle class="st59" cx="37.8" cy="20.7" r="2.5"/>
					</g>
					<g>
						<path class="st60" d="M38.7,18.6c-0.2,0-0.3,0-0.5,0.1c0.3,0.4,0.4,1.1,0.3,1.9c-0.2,0.8-0.6,1.4-1.1,1.6
							c0.1,0.1,0.2,0.2,0.4,0.3c0.6,0.1,1.3-0.6,1.6-1.7C39.6,19.8,39.3,18.8,38.7,18.6z"/>
					</g>
				</g>
				<g>
					<path class="st2" d="M37.8,19.2c0.8,0,1.5,0.7,1.5,1.5s-0.7,1.5-1.5,1.5s-1.5-0.7-1.5-1.5S37,19.2,37.8,19.2 M37.8,18.2
						c-1.4,0-2.5,1.1-2.5,2.5s1.1,2.5,2.5,2.5c1.4,0,2.5-1.1,2.5-2.5S39.2,18.2,37.8,18.2L37.8,18.2z"/>
				</g>
			</g>
		</g>
	</g>
</g>
</svg>
